<?xml version="1.0" encoding="UTF-8" standalone="no"?>
<!-- Created with sK1/UniConvertor (http://sk1project.org/) -->

<svg
   xmlns:dc="http://purl.org/dc/elements/1.1/"
   xmlns:cc="http://creativecommons.org/ns#"
   xmlns:rdf="http://www.w3.org/1999/02/22-rdf-syntax-ns#"
   xmlns:svg="http://www.w3.org/2000/svg"
   xmlns="http://www.w3.org/2000/svg"
   xmlns:sodipodi="http://sodipodi.sourceforge.net/DTD/sodipodi-0.dtd"
   xmlns:inkscape="http://www.inkscape.org/namespaces/inkscape"
   width="209.62798"
   height="273.125"
   viewBox="0 0 167.70239 218.49999"
   id="svg2"
   version="1.1"
   inkscape:version="0.48.1 "
   sodipodi:docname="GERB.cdr"
   style="fill-rule:evenodd">
  <metadata
     id="metadata36">
    <rdf:RDF>
      <cc:Work
         rdf:about="">
        <dc:format>image/svg+xml</dc:format>
        <dc:type
           rdf:resource="http://purl.org/dc/dcmitype/StillImage" />
        <dc:title></dc:title>
      </cc:Work>
    </rdf:RDF>
  </metadata>
  <defs
     id="defs34" />
  <sodipodi:namedview
     pagecolor="#ffffff"
     bordercolor="#666666"
     borderopacity="1"
     objecttolerance="10"
     gridtolerance="10"
     guidetolerance="10"
     inkscape:pageopacity="0"
     inkscape:pageshadow="2"
     inkscape:window-width="1024"
     inkscape:window-height="712"
     id="namedview32"
     showgrid="false"
     fit-margin-top="0"
     fit-margin-left="0"
     fit-margin-right="0"
     fit-margin-bottom="0"
     inkscape:zoom="0.70686318"
     inkscape:cx="225.28509"
     inkscape:cy="71.942276"
     inkscape:window-x="-4"
     inkscape:window-y="-4"
     inkscape:window-maximized="1"
     inkscape:current-layer="svg2" />
  <g
     id="g4"
     transform="translate(-82.04772,-110.81254)">
    <g
       id="g6">
      <path
         style="fill:#006634;stroke:#2c2c2b;stroke-width:1.00005996"
         d="m 82.5704,111.323 166.6116,0 0,156.726 c -10.744,6.496 -17.081,7.256 -16.935,-0.661 -10.456,7.307 -16.269,7.567 -17.437,0.781 -10.138,6.963 -16.068,7.25 -16.917,-0.52 -9.337,6.921 -15.97,8.836 -16.656,-0.261 -9.994,6.967 -16.534,8.408 -16.917,0 -11.255,8.254 -16.233,7.38 -16.917,0.261 -11.761,8.167 -16.486,7.206 -16.397,0 -10.83,7.056 -17.237,7.997 -17.177,0 -11.846,8.83 -16.4236,7.108 -17.0968,-0.121 -4.4646,3.651 -9.3773,5.739 -14.1618,6.507 l 0,-162.712 z"
         id="path8"
         inkscape:connector-curvature="0" />
      <path
         style="fill:#009fe0;stroke:#2c2c2b;stroke-width:1.00005996"
         d="m 82.5703,274.22 166.6117,-0.156 c 0.794,20.387 -7.165,28.98 -22.503,29.24 -43.101,-1.155 -53.402,-2.69 -60.656,24.465 -9.709,-23.569 -11.078,-25.535 -49.937,-24.505 -28.0602,1.794 -33.8658,-7.481 -33.5157,-29.044 z"
         id="path10"
         inkscape:connector-curvature="0" />
      <path
         style="fill:#ffffff;stroke:#2c2c2b;stroke-width:1.00005996"
         d="m 83.5683,273.935 c 5.0843,-0.891 9.4081,-3.113 13.2119,-6.246 0.6006,7.808 6.3258,7.767 17.1758,-0.12 -0.136,8.098 6.5,6.757 16.935,0.12 0.199,8.35 7.005,6.348 16.815,-0.36 -0.2,7.887 5.365,7.927 16.696,0.12 0.75,8.038 7.016,7.137 17.055,0.12 0.39,8.329 6.936,6.807 16.935,-0.24 0.47,8.583 7.096,7.112 17.176,0 -0.13,8.208 6.015,7.287 16.455,0.12 0.779,8.83 7.729,6.738 17.159,-0.13 l 0,7.061 -165.854,0.156 0.2403,-0.601 z"
         id="path12"
         inkscape:connector-curvature="0" />
      <path
         style="fill:#ffffff;stroke:#2c2c2b;stroke-width:1.00005996"
         d="m 248.913,282.463 -165.7548,0.26 -0.2601,-4.724 c 1.8017,4.404 8.1971,3.463 17.3649,-3.343 0.211,7.667 5.235,8.828 17.296,0.48 -0.44,7.207 5.205,7.207 16.935,0 -0.22,7.917 6.026,6.897 16.696,-0.24 -0.1,7.867 6.265,6.987 17.055,0.12 0.044,8.719 7.352,5.913 16.695,-0.12 -0.2,7.567 5.365,7.607 16.695,0.12 1.086,8.568 8.434,5.863 17.536,0 -0.18,6.977 4.585,7.837 16.575,-0.24 0.161,7.557 5.538,7.404 13.385,2.47 0.314,1.521 -0.139,3.696 -0.218,5.217 z"
         id="path14"
         inkscape:connector-curvature="0" />
      <path
         style="fill:#ffffff;stroke:#2c2c2b;stroke-width:1.00005996"
         d="m 83.5285,285.806 3.0425,-1.662 c -0.1604,8.728 5.4447,8.648 16.815,-0.24 -0.611,9.008 5.815,8.128 17.056,0.48 0.29,8.469 6.475,7.427 16.695,-0.12 0.48,7.888 6.085,7.928 16.815,0.12 -0.13,6.977 4.814,7.838 17.176,-0.24 -0.321,7.928 5.284,8.008 16.815,0.24 0.28,7.808 5.845,7.607 16.695,-0.6 -0.04,8.208 5.685,8.167 17.176,0.36 0.079,7.928 5.925,7.727 16.575,-0.36 1.361,6.406 4.393,7.932 9.278,4.729 l -1.059,3.318 -161.2881,0.39 c -1.0379,-1.778 -1.4746,-3.876 -1.7914,-6.415 z"
         id="path16"
         inkscape:connector-curvature="0" />
      <path
         style="fill:#ffffff;stroke:#2c2c2b;stroke-width:1.00005996"
         d="m 242.352,297.957 c -0.961,-1.001 -0.92,-2.162 -0.6,-3.483 -10.97,8.808 -16.655,8.968 -17.056,0.48 -9.96,6.898 -16.786,8.88 -16.815,-0.24 -10.64,7.777 -16.985,8.918 -17.055,0.36 -9.09,7.068 -15.776,9.031 -17.176,-0.24 -9.809,7.627 -15.974,8.748 -16.815,0.36 -10.219,7.317 -16.405,8.258 -16.695,-0.12 -10.22,7.327 -16.405,8.408 -16.696,0.361 -10.349,7.536 -16.795,8.437 -17.535,-0.361 -2.583,2.553 -6.306,4.534 -10.8103,6.126 -4.0436,-1.802 -5.8451,-3.924 -5.4049,-6.366 l -1.5614,0.961 c 4.0711,4.687 9.2147,7.77 18.7366,7.326 l 124.315,0.121 c 4.473,-0.471 7.856,-1.972 11.168,-5.285 z"
         id="path18"
         inkscape:connector-curvature="0" />
      <path
         style="fill:#ffffff;stroke:#2c2c2b;stroke-width:1.00005996"
         d="m 158.927,312.685 c 2.86,-1.365 5.801,-3.23 7.621,-5.115 -0.846,4.518 1.046,5.815 4.882,6.172 l -1.192,1.898 -9.572,0.143 -1.739,-3.098 z"
         id="path20"
         inkscape:connector-curvature="0" />
      <g
         id="g22">
        <path
           style="fill:#2c2c2b;stroke:none"
           d="m 140.066,122.158 c -2.31,0.374 -3.229,2.135 -2.946,4.598 -0.017,1.172 -0.946,2.612 -0.114,3.184 -0.026,0.382 -0.221,0.676 -0.583,0.88 l 0.498,0.467 c -0.221,8.89 2.26,10.134 5.498,9.236 l 0.969,2.829 c 0.444,0.691 -1.305,1.604 -1.957,2.406 -4.982,1.374 -6.261,3.752 -5.26,7.786 -1.198,0.521 -1.18,2.105 0.055,4.753 l -1.319,6.657 c -0.497,0.753 -0.893,1.47 -1.065,2.109 -1.555,1.649 -2.027,2.895 -1.417,3.739 -0.549,1.567 0.009,2.921 0.562,3.778 -0.2,0.347 -0.271,0.649 -0.215,0.906 -1.277,1.596 -1.722,3.007 -0.951,4.15 -0.788,1.627 -1.469,6.212 -3.315,8.325 -1.005,1.15 -2.129,1.601 -3.137,2.515 -1.217,1.102 -2.291,2.476 -3.122,3.857 -0.478,0.794 -0.503,1.586 -0.732,2.289 -0.485,1.484 -1.082,2.41 -0.905,2.871 0.14,0.365 0.623,0.374 1.554,-0.08 l 0.5,-0.259 c -0.385,2.6 0.139,2.756 1.073,1.802 l 0.834,-1.613 c 0.404,0.666 1.031,0.154 2.145,-2.95 1.304,-1.629 3.118,-2.236 4.35,-3.59 0.631,-0.693 0.226,-1.925 2.387,-4.705 l 3.287,-3.712 c 2.249,1.532 4.296,2.239 5.556,0.772 0.648,-0.954 1.547,-1.82 2.619,-2.624 0.661,-0.674 0.475,-1.648 -0.558,-2.922 l 0.212,-1.639 c 0.525,0.785 1.349,1.269 2.298,1.454 l 1.042,4.669 c -0.22,1.359 -0.334,2.559 0.295,3.769 -0.047,3.679 -0.985,3.57 -1.376,4.438 -0.235,0.521 -0.273,1.476 0.195,2.224 -0.892,6.596 -2.631,23.538 0.927,33.507 3.901,10.928 19.868,18.908 21.114,30.33 l 0.822,3.347 c -0.623,1.021 -0.809,2.273 -1.213,3.409 -0.821,2.188 0.8,2.279 2.075,1.593 0.872,-0.47 1.106,-1.369 1.638,-1.836 1.282,-0.722 1.982,-1.753 2.1,-3.093 0.06,-2.38 0.294,-4.759 0.645,-7.139 1.102,-1.346 2.501,-2.755 4.332,-4.256 0.757,-0.425 1.078,0.367 1.617,0.116 1.199,-2.702 2.689,-5.24 4.471,-6.86 2.181,1.703 3.907,3.366 4.901,2.141 1.208,0.229 2.125,0.844 2.751,1.847 0.443,1.812 1.888,1.598 2.041,-0.645 0.343,0.043 0.877,0.027 1.124,-0.134 0.246,-0.162 0.151,-0.702 0.382,-1.014 1.024,-1.378 1.459,-2.495 -0.698,-4.415 -0.916,-0.815 -1.703,-1.757 -3.849,-2.325 1.158,-4.323 1.206,-7.159 -0.837,-7.284 -0.023,-2.907 3.484,-6.037 3.955,-10.067 -2.179,-1.156 -3.511,-5.533 -5.691,-4.592 l -0.708,-3.6 c 1.987,-1.402 3.809,0.856 4.671,0.196 0.541,-0.413 0.943,-1.766 1.136,-4.353 l -2.626,-4.04 c -2.082,-3.147 -8.681,0.075 -11.399,0.225 -3.817,-1.011 -5.847,-0.361 -6.652,1.426 -0.012,-2.004 -0.965,-3.907 -2.859,-5.711 1.657,-6.132 2.549,-11.64 1.758,-15.774 2.862,0.757 5.665,0.951 8.34,-0.09 4.731,-3.913 13.699,-9.924 14.195,-11.739 1.678,-5.463 3.65,-10.863 6.27,-16.126 l 4.048,-15.357 c 1.319,-2.8 -0.61,-6.349 -0.914,-9.523 -0.409,-1.622 -2.572,-2.261 -4.339,-3.111 -0.968,-0.466 -1.786,-1.169 -2.636,-1.431 -1.416,-0.437 -2.67,-0.184 -3.015,0.512 l -4.514,-6.341 c -2.003,2.888 -6.194,3.828 -8.762,5.967 1.027,1.718 4.737,2.761 5.835,4.254 l -3.12,10.554 c -3.158,2.551 -5.655,6.505 -8.057,10.661 -2.667,-3.724 -7.875,-5.05 -11.813,-7.575 -0.536,-4.241 -3.017,-4.147 -5.573,-4.596 -3.085,-0.541 -6.249,-0.29 -5.815,0.224 l -1.697,-1.8 c 1.959,-0.044 3.399,-1.187 4.604,-2.829 l 1.056,-0.501 c 0.64,-0.062 1.517,0.761 2.981,0.888 1.465,0.128 3.519,-0.441 5.383,-1.191 1.949,1.935 3.181,3.099 4.543,3.576 0.933,0.326 1.902,0.066 2.672,-0.105 1.473,-0.329 2.816,-1.344 3.72,-3.181 0.16,-1.106 -3.775,0.559 -4.392,-0.397 l -0.767,-2.4 c 1.715,-1.374 2.795,-2.4 2.251,-3.375 0.484,-1.399 0.544,-2.248 0.18,-2.549 -0.363,-0.299 -1.009,0.4 -2.361,0.749 -0.614,-0.571 0.324,-1.775 -0.079,-2.041 -0.624,-0.412 -1.93,0.898 -3.071,1.012 -0.862,-1.042 -1.912,-1.385 -3.15,-1.028 -0.042,-1.424 -1.065,-2.502 -2.764,-2.844 -2.481,-0.498 -6.801,0.302 -8.352,0.09 -5.702,-3.017 -10.245,-3.966 -13.772,-1.725 z"
           id="path24"
           inkscape:connector-curvature="0" />
        <path
           style="fill:#fbb900;stroke:none"
           d="m 126.232,195.737 c 0.42,0.249 -0.891,3.24 -1.106,2.868 -0.135,-0.244 0.819,-3.038 1.106,-2.868 z m -1.673,-3.34 c -0.116,0.889 -0.831,1.844 -1.971,2.813 0.414,-0.97 1.124,-1.901 1.971,-2.813 z m -2.315,3.614 c 0.726,0.679 -0.32,2.083 -0.834,3.268 l 0.834,-3.268 z m 1.163,-1.059 c -0.501,0.31 -0.4,0.467 0.211,0.38 0.142,-0.019 0.275,-0.129 0.474,-0.165 -0.021,-0.112 -0.495,-0.224 -0.685,-0.215 z m 0.192,1.662 c 0.134,-0.078 0.328,-0.124 0.482,-0.229 0.154,-0.105 0.269,-0.269 0.322,-0.242 0.234,0.143 -0.817,3.197 -1.226,4.796 0.141,-1.442 -0.04,-3.761 0.422,-4.325 z m 2.143,-1.144 c -0.58,1.543 -1.209,4.373 -1.788,4.98 -0.05,-1.221 0.37,-2.773 1.177,-4.6 l 0.611,-0.38 z"
           id="path26"
           inkscape:connector-curvature="0" />
        <path
           style="fill:#ffcc00;stroke:none"
           d="m 165.144,147.347 c 0.409,1.47 1.291,2.747 2.469,3.901 1.435,1.408 3.979,2.248 5.967,3.428 1.181,0.699 1.926,2.417 2.99,3.186 1.552,1.125 3.369,1.329 4.786,2.474 -0.063,0.483 -1.593,0.952 -1.715,1.521 -0.418,1.951 3.573,2.632 7.114,2.482 1.335,-0.056 2.055,-2.261 3.315,-3.34 1.229,-1.051 1.814,0.133 3.005,-0.019 0.542,-0.069 1.359,-1.088 1.871,-1.235 0.29,1.136 -0.844,1.949 -2.622,2.615 0.186,-0.895 -0.408,-0.83 -1.248,-0.044 -0.84,0.787 -1.925,2.297 -3.163,3.354 -1.044,0.892 -2.06,1.333 -2.807,1.817 0.68,0.981 0.594,2.346 -0.163,2.815 -1.193,0.737 -3.048,0.603 -4.94,1.058 -1.778,0.428 -2.611,1.591 -3.654,1.121 l -1.113,4.048 c 0.065,0.101 0.363,-0.624 0.427,-0.524 0.117,0.181 10e-4,1.188 0.119,1.369 0.126,0.196 0.532,-0.528 0.729,-0.235 0.273,0.403 0.06,1.136 0.187,1.333 0.094,0.147 0.363,0.018 0.43,0.179 0.113,0.27 0.017,0.837 0.175,1.084 1.02,-1.456 1.464,-2.933 2.221,-3.853 1.122,-1.361 2.292,-1.742 2.779,-1.451 0.293,0.175 0.234,0.434 0.074,1.316 -0.041,0.288 0.307,0.796 0.774,0.839 0.341,0.031 0.721,-0.258 1.015,-0.296 0.38,-0.048 0.617,0.048 0.449,0.155 -1.453,0.925 -2.575,2.187 -3.409,2.533 -0.648,0.269 -1.167,-0.228 -1.233,-0.504 -0.09,-0.376 0.452,-1.346 1.86,-3.125 0.199,-0.825 -0.577,-0.633 -1.43,0.235 -0.967,0.983 -2.044,2.79 -2.115,4.114 -0.115,2.131 1.943,4.833 2.432,4.844 0.069,-0.016 0.172,0.034 0.322,-0.184 0.151,-0.218 0.117,-0.581 0.465,-0.864 0.546,-0.443 1.458,-0.812 2.212,-1.427 2.823,-2.3 6.099,-5.491 6.3,-5.875 0.07,-0.431 -0.015,-0.861 0.213,-1.292 2.698,-2.233 7.116,-4.687 7.257,-8.913 -0.194,-0.596 -0.585,-1.221 -0.698,-2.07 -0.217,-1.622 -0.11,-3.624 -0.521,-4.719 -0.385,-1.028 -1.791,-0.296 -1.483,-1.055 1.695,-1.406 5.477,-1.261 5.086,-4.217 2.09,-10.81 -1.919,-18.525 -6.278,-26.062 -1.029,1.524 -0.742,4.411 0.105,7.878 1.366,5.59 7.527,6.487 5.299,18.015 -0.495,1.688 -1.06,-2.547 -1.589,-3.896 -0.942,0.042 -3.437,-0.17 -4.003,-1.05 -0.687,-1.069 0.604,-2.241 0.78,-3.265 0.06,-0.342 -0.128,-0.68 -0.274,-0.898 -0.06,-0.705 0.185,-1.132 0.985,-1.434 0.132,-0.266 0.042,-1.549 -0.519,-3.18 -0.558,-1.625 -1.429,-3.644 -2.246,-5.575 -0.596,-1.408 0.017,-4.137 -1.558,-3.744 -0.424,0.395 -0.751,-0.953 -0.988,-2.286 -0.223,-1.253 -0.351,-2.495 -0.905,-2.161 -0.268,0.117 -0.452,0.257 -0.516,0.023 -0.073,-0.265 0.683,-1.171 0.855,-1.337 0.5,-0.48 1.222,-0.859 1.792,-1.391 l -0.579,-1.036 c -0.969,1.699 -3.952,3.128 -6.891,4.663 -0.678,0.55 2.611,2.358 4.014,3.567 0.145,0.249 -0.105,0.618 0.039,0.987 1.284,0.504 1.91,1.468 2.039,2.78 0.162,1.65 -0.243,5.274 -1.515,8.154 -1.123,2.54 -3.069,4.377 -3.782,5.512 0.141,0.172 0.836,-0.188 0.72,0.22 -0.193,0.68 -1.296,2.219 -1.053,2.494 0.201,0.228 0.71,0.071 0.955,0.254 0.364,0.27 -1.438,1.396 -1.163,1.782 0.23,0.323 1.684,0.452 2.973,0.028 1.373,-0.452 2.788,-1.522 3.53,-1.348 0.571,0.134 -0.087,1.043 -0.797,2.812 -0.005,0.415 -0.278,0.024 -0.671,0.209 -1.286,0.603 -3.68,2.447 -5.13,3.333 -1.605,-0.068 -3.079,-0.285 -4.47,-0.915 -1.939,-0.881 -2.926,-3.058 -4.671,-4.492 -2.723,-2.238 -6.159,-3.872 -9.217,-5.22 z m -11.942,-18.856 0.625,0.912 c 0.035,0.06 0.098,0.123 0.184,0.188 -0.029,0.059 -0.028,0.142 0.007,0.253 0.541,0.427 1.851,0.803 2.807,1.153 0.501,0.31 1.034,0.655 1.192,0.502 0.268,-0.182 0.128,-0.645 0.155,-0.998 0.052,-0.672 -0.215,-1.476 -0.858,-1.855 -0.576,-0.339 -1.615,-0.373 -2.506,-0.375 -0.947,-0.003 -1.728,0.042 -1.606,0.22 z m 15.876,1.285 c 2.285,2.308 3.902,2.686 4.05,-1.18 -0.104,-0.18 -0.852,0.374 -1.738,0.608 -1.141,0.301 -2.454,0.351 -2.312,0.572 z m 23.184,89.398 c 1.482,1.574 2.28,1.861 2.376,3.179 0.122,1.693 -1.656,3.622 -2.341,6.083 -0.348,0.257 -0.681,-0.67 -1.001,-2.136 -0.1,-0.458 -0.354,-1.134 -0.354,-1.659 0,-1.155 0.765,-2.415 0.852,-3.406 0.051,-0.574 -0.205,-1.045 -0.159,-1.417 0.06,-0.478 0.434,-0.769 0.627,-0.644 z m -2.781,0.048 -1.926,5.38 c -0.569,1.5 0.043,1.975 0.44,1.958 0.397,-0.018 1.116,0.039 1.835,-1.99 0.229,-1.041 -0.185,-3.448 0.259,-5.133 -0.059,-0.794 -0.333,-0.979 -0.608,-0.215 z m -2.963,8.108 c 0.674,0.685 0.884,1.711 1.414,2.51 0.32,0.479 0.817,0.844 1.135,1.324 0.05,0.129 -0.438,-0.043 -1.089,-0.14 -0.651,-0.096 -1.453,-0.145 -1.777,-0.313 -0.552,-0.287 -0.396,-0.838 -0.868,-0.98 -1.857,-0.558 -3.444,0.68 -2.129,-1.273 0.074,-0.367 1.654,-0.45 2.358,-0.73 0.548,-0.218 0.84,-0.538 0.956,-0.398 z M 147.37,195.012 c 0.369,-0.827 2.099,1.682 3.021,2.478 0.003,0.206 -0.563,-0.207 -0.577,0.068 -0.018,0.354 0.499,1.4 0.351,1.644 -0.205,0.337 -0.716,0.298 -0.739,0.661 -0.018,0.277 0.951,0.703 0.897,0.97 -0.098,0.488 -0.718,0.634 -0.752,1.31 -0.033,0.667 0.676,1.065 0.617,1.535 -0.052,0.416 -0.629,0.504 -0.652,0.95 -0.012,0.247 0.499,0.849 0.536,1.273 0.028,0.329 -0.399,0.492 -0.489,0.683 -0.102,0.218 0.549,0.505 0.5,0.718 -0.049,0.212 -0.798,0.352 -0.844,0.58 -0.041,0.209 0.689,0.508 0.755,0.732 0.088,0.286 -0.475,0.499 -0.487,0.757 -0.012,0.266 0.457,0.473 0.545,0.714 0.113,0.31 -0.148,0.654 -0.162,0.995 -0.013,0.324 0.48,0.61 0.5,1.009 0.056,1.043 -0.557,0.607 -0.566,0.929 -0.007,0.281 0.333,0.561 0.315,0.841 -0.041,0.616 -0.452,1.23 -0.446,1.842 0.004,0.348 0.195,0.865 0.45,1.155 0.198,0.225 0.478,0.223 0.465,0.478 -0.047,0.946 0.058,2.402 0.057,3.497 0,0.852 -0.135,1.471 -0.002,1.561 0.886,0.679 1.468,2.006 1.911,3.627 -1.189,-0.378 -1.423,1.013 -0.288,1.876 1.427,1.086 2.633,2.378 5.876,4.034 6.882,3.515 17.421,7.405 15.437,7.672 -0.233,0.052 0.672,0.415 1.799,1.189 0.807,0.553 0.868,1.665 1.918,2.4 1.749,1.224 6.176,2.487 5.881,3.04 l -2.387,3.181 c -0.274,0.266 -7.194,-7.169 -7.926,-6.438 -1.272,1.272 5.156,7.919 4.778,8.269 -2.821,2.133 -5.66,6.273 -8.262,6.235 -0.438,-2.253 -1.29,-5.285 -3.176,-7.934 -2.351,-3.306 -5.538,-6.338 -7.418,-8.282 -1.205,-1.245 -1.821,-2.072 -1.509,-2.145 0.229,-0.02 -0.186,-0.41 -0.46,-1.183 -0.155,-0.435 -0.033,-0.872 -0.168,-1.405 -0.173,-0.684 -1.4,-1.793 -0.743,-1.94 0.521,-0.022 1.428,0.261 2.438,1.008 0.737,0.546 1.468,1.449 2.452,2.114 1.324,0.893 3.093,1.51 4.595,2.436 1.086,0.671 1.967,1.565 2.924,2.227 0.743,0.516 1.584,0.817 2.261,1.243 0.444,0.227 0.476,-0.624 0.22,-1.524 -0.182,-0.641 -0.133,-1.259 -0.392,-1.516 -0.591,-0.588 -2.829,-0.137 -3.42,-0.726 -4.515,-4.645 -9.728,-7.808 -15.191,-10.436 -3.358,2.384 -4.353,-2.783 -5.072,-10.667 -0.27,-2.964 -0.466,-6.36 -0.388,-10 0.096,-4.393 0.62,-9.075 1.017,-13.735 z m 0.845,-4.419 c -0.151,1.36 -1.114,1.564 -1.126,2.114 -0.016,0.704 0.709,0.828 1.533,1.175 0.824,0.347 1.871,0.961 2.958,1.099 0.131,-0.166 -0.813,-1.32 -1.699,-2.44 -0.805,-1.02 -1.547,-2.028 -1.666,-1.948 z m 24.394,14.421 c 0.507,0.767 0.05,1.113 -1.37,1.039 -0.174,0.016 -0.533,0.757 -1.348,1.213 -0.947,0.53 -2.501,1.297 -4.013,1.661 -0.74,0.178 -1.413,-0.005 -2.108,0.154 -0.219,0.049 -0.327,0.403 -0.43,0.634 -0.254,0.987 -1.132,0.73 -2.039,1.178 -1.095,0.542 -2.298,1.725 -3.367,2.288 -0.382,-0.434 0.149,-1.461 1.339,-2.601 1.065,-1.02 2.718,-1.929 4.248,-3.115 1.732,-1.345 3.348,-2.97 4.522,-4.112 0.938,-1.233 2.447,-0.017 3.577,1.056 0.346,0.33 0.772,0.278 0.989,0.605 z m -8.654,4.864 c -0.197,-0.345 1.148,-0.291 1.487,-0.135 0.195,0.028 -0.134,0.905 0.138,1.669 0.29,0.814 0.831,1.585 1.387,1.55 0.581,-0.036 -0.087,-1.497 0.024,-2.322 0.05,-0.374 0.147,-0.484 0.873,-0.536 0.977,-0.309 2.521,-0.525 3.671,-0.937 1.151,-0.413 1.908,-1.021 2.193,-0.913 0.837,0.231 1.419,0.545 1.724,0.883 0.327,0.362 1.277,2.038 -0.058,2.835 -3.548,2.115 -12.416,3.489 -10.632,-1.372 -0.049,-0.274 -0.601,-0.415 -0.807,-0.722 z m 14.006,1.542 c 0.083,-1.337 -0.395,-2.571 -1.188,-3.171 -0.793,-0.602 -1.901,-0.571 -1.928,-0.736 0.085,-0.559 0.558,-1.372 1.547,-1.615 1.38,-0.341 3.307,-0.195 5.029,0.244 2.686,0.685 4.783,2.226 2.833,4.844 -0.4,0.466 -0.438,2.133 -1.292,2.631 -0.74,0.432 -1.751,0.976 -2.803,1.32 -0.378,0.124 -0.317,0.833 -0.147,1.356 0.219,0.672 0.575,1.195 -0.038,1.438 -1.11,0.442 -2.774,0.092 -4.364,0.097 -2.226,0.006 -4.59,0.26 -4.478,-0.097 0.145,-0.12 0.418,-0.323 0.691,-0.362 0.286,-0.041 0.295,-0.511 0.588,-0.541 1.41,-0.139 3.163,0.266 4.543,0.069 2.039,-0.403 0.201,-0.894 0.494,-1.276 0.499,-0.651 1.151,-1.283 0.7,-1.33 -0.298,-0.032 -1.463,1.083 -2.802,1.484 -1.068,0.32 -2.295,-0.101 -2.943,0.176 -0.339,0.144 -0.069,0.419 -0.163,0.472 -1.56,0.238 -6.638,-0.762 -6.205,-0.896 0.538,-0.886 5.513,-0.245 8.829,-1.044 0.287,-0.069 0.959,-0.142 1.244,-0.217 3.36,-0.887 6.38,-2.218 7.336,-3.234 0.346,-0.367 0.138,-0.846 -0.073,-1.067 -0.202,-0.212 -2.005,-1.325 -1.634,-0.582 -0.735,0.124 -1.022,-0.021 -0.86,-0.435 0.51,-0.067 -0.424,-0.3 -1.331,-0.699 -0.908,-0.4 -1.788,-0.965 -1.926,-0.804 -0.302,0.353 -0.031,1.356 0.27,2.26 0.207,0.618 0.567,1.092 0.629,1.486 0.068,0.441 -0.452,1.177 -0.558,0.229 z m 3.53,-5.748 c -0.345,0.137 0.415,0.378 1.679,0.446 1.73,0.094 4.291,0.005 5.443,0.443 1.165,0.442 1.234,1.23 1.539,1.752 0.303,0.521 0.817,0.695 0.585,0.918 -0.203,0.455 -1.253,1.101 -1.815,1.666 -0.744,0.234 -0.313,3.094 0.364,1.548 0.393,-1.04 3.429,-3.556 5.243,-3.241 -1.414,-2.317 -2.332,-4.055 -4.088,-4.624 -1.088,-0.354 -2.712,-0.177 -4.329,0.09 -1.433,0.238 -3.258,0.639 -4.621,1.002 z m 4.092,4.117 c 0.011,-0.433 1.943,0.966 1.955,1.245 0.124,0.495 0.161,2.111 -0.035,3.15 -0.253,1.336 -0.972,2.638 -1.1,3.973 -0.09,0.929 0.268,1.858 0.179,2.788 -0.085,0.614 -1.099,-1.251 -1.695,-1.316 -0.678,-0.074 -2.058,1.313 -2.127,0.901 l 1.347,-2.905 c 2.128,1.002 3.222,-4.715 1.519,-5.162 l -0.043,-2.674 z m 8.6,0.526 c -0.035,1.626 -0.234,2.662 -0.733,3.079 -0.186,0.157 -0.416,0.117 -0.678,0.099 -0.437,-0.03 -0.966,-0.197 -1.544,-0.725 -0.069,-0.096 0.324,-0.448 0.768,-0.925 0.366,-0.391 0.803,-0.947 1.232,-1.256 0.335,-0.241 0.896,-0.616 0.955,-0.272 z m -2.439,29.208 -0.919,3.88 c -0.21,1.005 0.614,0.415 1.463,0.084 0.179,-0.07 0.452,0.045 0.683,0.008 0.233,-0.038 0.488,-0.229 0.419,-0.092 -0.788,2.131 -0.593,3.004 0.385,3.018 0.283,0.036 0.472,0.244 0.439,0.438 -0.042,0.249 -0.37,0.521 -0.453,0.846 -0.078,0.302 0.069,0.689 0.266,0.772 0.616,0.261 1.205,-0.357 0.902,-1.257 -0.139,-0.415 -0.242,-0.791 -1.047,-1.389 -0.884,-0.519 -0.379,-0.976 0.078,-0.995 0.391,-0.017 1.017,0.741 1.405,0.395 0.162,-0.144 -0.59,-0.852 -0.391,-1.101 0.258,-0.326 0.922,0.977 1.283,0.384 0.151,-0.248 -1.146,-1.14 -0.955,-1.3 0.153,-0.127 0.911,0.928 1.309,0.392 0.336,-0.455 -1.286,-1.062 -1.111,-1.34 0.138,-0.22 0.507,0.181 0.563,-0.088 0.314,-0.749 -3.948,-3.699 -4.319,-2.655 z m -18.888,18.952 c 0.483,0.871 1.372,2.755 0.975,3.883 -0.272,0.773 -0.974,1.293 -1.757,1.949 -0.445,0.371 -1.099,1.649 -1.632,2.038 -0.533,0.39 -1.206,0.399 -1.603,0.214 -0.216,-0.381 0.608,-0.314 1.123,-0.511 0.31,-0.118 0.468,-0.44 0.338,-0.707 0.048,-0.49 0.705,-2.509 1.2,-3.1 0.167,-0.364 -0.591,-0.112 -0.888,-0.167 -0.075,-0.022 -0.18,-0.13 -0.097,-0.242 0.082,-0.111 0.385,-0.217 0.414,-0.423 0.034,-0.234 -0.297,-0.596 -0.144,-0.964 0.459,-1.104 1.642,-2.329 2.071,-1.97 z M 143.378,159.51 c -0.238,-0.295 1.935,-0.305 2.622,-0.142 0.144,0.296 -2.24,0.256 -2.622,0.142 z m -6.628,-0.261 1.123,1.888 0.094,3.079 c -0.125,0.297 -2.355,0.744 -2.481,0.596 0.281,-2.602 0.608,-4.955 1.264,-5.563 z m -13.442,38.286 c 0.031,-0.215 0.257,-0.316 0.43,-0.225 0.103,0.056 0.165,0.356 0.129,0.479 l -0.629,3.078 c -0.23,0.501 -0.641,0.469 -0.683,-0.02 l 0.753,-3.312 z m 11.67,-18.044 c 0.003,-0.663 -1.003,-1.063 -1.746,-0.729 -0.338,0.151 -0.516,0.522 -0.705,0.971 -1.188,2.218 -2.108,6.291 -3.743,8.269 -2.171,2.626 -5.351,3.157 -6.77,6.923 -0.186,0.497 -0.186,0.98 -0.35,1.513 -0.239,0.779 -0.628,1.629 -0.809,2.495 -0.154,0.698 0.328,0.927 0.59,0.275 0.298,-0.738 0.525,-2.411 0.983,-3.575 0.334,-0.848 0.805,-1.558 1.056,-1.935 0.694,-1.043 1.425,-1.638 1.529,-1.404 0.022,0.106 -0.114,0.22 -0.205,0.454 -0.121,0.306 -0.291,0.711 -0.508,1.063 -0.216,0.354 -0.522,0.588 -0.699,0.855 0.465,0.026 0.707,0.303 0.629,0.49 -0.106,0.253 -0.632,0.511 -1.043,0.372 -0.095,-0.031 -0.143,-0.129 -0.224,-0.202 -0.172,0.484 -0.055,0.818 0.372,0.788 0.605,-0.042 1.303,-0.558 1.893,-1.415 0.461,-0.669 1.001,-1.482 1.579,-2.408 1.006,-1.61 3.643,-1.835 4.934,-3.902 1.51,-2.416 2.651,-5.99 3.237,-8.898 z m -1.059,-6.485 c 0.557,-0.166 1.115,-0.131 1.673,0.108 0.104,0.334 -1.721,0.859 -1.831,1.383 -0.039,0.338 1.174,0.107 1.172,0.446 -0.165,0.219 -1.341,0.388 -2.101,1.072 -0.59,0.531 -0.833,1.495 -0.789,2.264 0.775,-0.404 2.007,-0.325 3.277,0.394 2.602,1.471 5.48,4.776 5.747,6.169 -0.257,0.431 -2.231,-0.43 -3.346,-0.645 -0.902,0.139 0.728,1.842 3.532,1.545 0.681,-0.072 1.471,-1.282 1.69,-1.706 -0.58,-1.873 -2.805,-4.125 -4.208,-6.188 0.018,-0.671 3.605,1.459 5.419,2.466 -1.137,-2.103 -3.23,-3.651 -6.138,-4.729 -0.441,-1.264 3.718,1.102 5.079,2.317 0.286,0.064 0.516,-0.787 -0.057,-1.314 -2.893,-2.129 -8.447,-7.379 -8.764,-5.142 l -0.355,1.56 z m 4.017,-6.408 c 0.186,0.172 0.179,0.989 1.26,2.417 1.307,1.726 4.772,1.462 4.821,4.774 -0.375,0.03 -0.869,0.082 -1.213,-0.129 -0.504,-0.308 -0.838,-0.945 -1.228,-1.12 -0.422,-0.188 -0.855,0.025 -0.861,0.696 -0.668,0.016 -1.079,-0.476 -2.006,-1.042 -1.051,-0.642 -2.308,-1.347 -3.256,-1.72 -0.935,-0.371 -2.415,-0.4 -2.903,-0.464 -0.077,-0.507 0.869,-1.59 1.303,-2.029 -0.13,0.795 0.711,-0.172 1.882,-0.815 0.352,-0.193 0.783,-0.317 1.185,-0.402 0.402,-0.085 0.777,-0.13 1.016,-0.166 z m 26.842,-12.952 c 0.554,0.104 1.715,3.618 3.442,3.537 0.438,-0.02 -0.919,-3.065 -0.489,-2.984 1.519,2.292 2.698,5.306 3.867,8.343 l -2.694,0.323 c -0.491,-0.025 -0.772,-0.833 -1.451,-0.881 -0.851,-0.063 -1.049,0.525 -1.539,0.5 -0.538,-0.027 -0.983,-0.437 -1.514,-0.423 -0.884,0.021 -1.852,0.389 -2.75,0.435 0.028,-3.077 1.133,-6.019 3.128,-8.85 z m -4.064,-3.051 c -0.462,0.074 -0.333,7.721 -0.096,11.326 0.108,0.21 0.624,0.538 0.769,0.51 -0.143,-3.437 1.86,-6.532 2.308,-9.285 0.317,-0.546 0.153,-0.894 -0.234,-1.062 -0.232,-0.102 -0.58,0.006 -0.856,-0.233 -0.385,-0.333 -0.68,-1.323 -0.998,-1.644 -0.408,-0.413 -0.782,-0.1 -0.893,0.388 z m 2.596,16.02 c -0.741,-3.784 -9.077,-8.108 -15.332,-7.454 -0.465,0.048 -6.602,3.199 -6.334,3.54 0.121,0.155 4.364,-1.913 5.785,-2.013 0.006,0.146 -1.514,0.732 -2.973,1.35 -1.371,0.58 -2.687,1.192 -2.635,1.318 0.063,0.15 1.606,-0.393 3.106,-0.722 1.323,-0.29 2.569,-0.374 2.574,-0.241 0.39,0.273 -1.946,0.843 -1.289,1.145 0.939,0.434 3.224,0.022 4.722,-0.19 0.842,-0.12 1.659,-0.041 2.467,0.003 0.629,0.034 1.272,-0.013 1.797,0.189 1.541,0.591 3.979,4.626 4.133,4.122 l -0.365,-1.162 c -0.056,-0.205 0.853,0.546 1.907,0.774 0.929,0.203 2.223,-0.13 2.437,-0.659 z m 32.368,-36.995 c 2.498,-0.306 4.552,0.609 6.165,2.747 -0.514,1.167 -0.761,3.392 -1.142,5.088 -0.052,0.169 -1.114,-1.135 -1.135,-0.36 -0.018,0.732 -0.1,1.728 0.169,2.903 0.326,1.418 1.027,3.096 1.188,4.888 0.26,2.891 -0.289,6.147 -0.298,8.078 -0.326,1.463 0.676,4.263 0.913,4.281 0.318,-0.391 1.22,-4.712 2.317,-9.275 0.657,-2.741 2.121,-6.615 2.022,-7.688 -0.026,-1.054 -0.429,-2.805 -0.798,-4.533 -0.269,-1.26 -0.49,-2.509 -0.866,-3.372 -0.552,-1.269 -2.5,-1.693 -3.816,-2.434 -1.637,-1.313 -3.113,-1.75 -4.262,-1.453 1.209,0.087 2.341,0.359 3.197,1.292 -1.783,-1.04 -4.573,-0.801 -3.654,-0.162 z m -11.34,13.651 c -2.981,2.914 -5.366,6.778 -7.534,10.985 3.881,-2.843 6.901,-6.203 7.534,-10.985 z m -7.172,11.408 2.868,-2.314 c -0.93,1.578 0.158,0.677 1.165,-0.169 0.703,-0.59 1.046,-0.501 1.28,-0.591 -2.964,3.002 -0.666,3.311 4.102,1.879 0.99,-0.297 1.828,-0.832 3.034,-1.254 0.759,-0.111 -1.2,1.551 -2.274,1.963 -5.799,2.23 -10.437,2.32 -10.175,0.486 z m -5.014,3.062 c 0.217,1.569 2.261,4.038 1.826,5.745 1.043,1.592 2.087,3.46 3.131,4.776 l -0.131,1.938 c 1.738,-0.739 4.021,-0.9 6.457,-0.9 l -0.391,-1.869 c -1.074,-0.227 -1.447,-0.548 -1.495,-0.868 -0.049,-0.321 0.227,-0.642 0.792,-0.873 1.28,-0.523 3.568,-0.658 3.768,-0.681 l -4.175,-0.762 c -0.652,0.508 -2.13,0.415 -2.673,-0.068 -2.239,-1.8 -2.131,-3.139 0.326,-4.016 -1.592,-0.136 -3.281,-0.285 -4.328,-0.815 -0.923,-0.468 -1.26,-1.309 -1.819,-1.608 -0.625,-0.333 -1.042,-0.173 -1.288,0.001 z m -3.775,13.436 c -1.73,-2.767 -3.558,-5.405 -5.733,-7.584 0.746,1.773 1.38,3.688 1.739,5.51 0.918,4.657 0.934,8.658 0.491,8.881 -0.902,0.455 -3.874,-8.584 -4.225,-7.689 l 0.831,3.793 c -0.485,-0.157 -1.18,-1.635 -2.244,-5.468 -0.133,-0.445 -1.195,-1.874 -1.329,-1.235 0.596,5.988 1.22,10.224 2.726,12.278 2.132,2.908 5.323,1.716 6.582,-2.753 0.131,-0.145 0.576,0.082 0.747,-0.695 0.45,-0.892 0.218,4.475 -0.332,5.193 -0.276,0.364 -2.161,0.47 -3.242,0.705 0.761,0.272 2.692,1.063 3.158,0.971 4.193,-4.158 5.29,-13.214 0.333,-20.02 -0.426,-0.632 -1.544,-0.662 -1.593,-0.224 -0.062,0.562 1.323,2.659 1.26,3.222 -0.803,-0.573 -1.273,-2.161 -2.077,-2.734 -0.803,-0.573 -2.479,-0.837 -2.743,-0.706 4.503,5.433 5.805,7.71 5.651,8.555 z m 1.526,-5.501 c 0.335,-0.271 1.838,-0.064 3.219,0.489 1.776,0.711 3.45,1.892 3.21,2.278 -0.259,0.314 -1.143,-0.196 -1.637,-0.226 -0.384,-0.024 -0.498,0.374 -0.785,0.588 -0.304,0.225 -0.682,-0.474 -0.897,-0.031 -0.315,0.647 -0.638,3.343 -0.894,2.802 -0.739,-1.966 -2.446,-5.672 -2.216,-5.9 z m -29.045,-42.938 c -0.138,0.349 0.606,0.531 1.434,0.651 0.377,0.055 0.795,-0.033 1.113,0.104 0.339,0.146 0.228,0.718 0.481,0.851 0.315,0.061 0.097,-0.553 0.561,-0.742 0.299,-0.121 0.776,-0.157 1.335,-0.12 0.559,0.036 1.912,0.052 1.828,0.313 -0.243,0.309 -1.535,0.136 -2.294,0.143 -0.686,0.005 -0.628,0.205 -0.614,0.305 0.032,0.209 0.512,0.054 0.92,0.124 0.317,0.053 0.388,0.222 0.252,0.273 -0.332,0.123 -0.735,0.072 -1.143,0.224 -0.532,0.337 1.08,0.369 1.537,0.799 0.087,0.082 0.324,0.128 0.455,-0.051 0.131,-0.178 0.157,-0.579 0.244,-0.496 0.326,0.309 1.425,0 1.744,0.34 2.222,2.358 3.669,5.851 6.305,6.938 0.869,0.359 2.013,0.752 2.902,1.074 0.248,0.091 0.187,0.313 0.447,0.36 0.664,0.119 1.203,-0.463 2.492,-0.577 0.443,-0.04 0.49,0.22 0.926,0.169 0.617,-0.072 0.313,-0.874 0.931,-0.883 0.34,-0.006 1.18,0.001 1.797,0.198 0.369,0.118 0.569,0.494 0.783,0.442 0.178,-0.374 -0.628,-1.686 -1.965,-1.967 -0.635,-0.134 -1.558,0.509 -2.653,0.763 -1.321,0.307 -2.844,0.236 -3.785,0.002 -2.966,-0.738 -4.446,-3.654 -6.241,-5.818 -0.777,-0.936 -1.68,-1.342 -2.536,-2.143 0.489,-0.454 2.352,1.438 3.378,2.251 0.651,0.515 1.47,0.533 2.261,0.731 0.697,0.176 1.437,0.535 2.059,0.913 0.642,0.39 1.777,0.197 2.387,0.963 0.283,0.354 0.298,0.994 0.405,1.513 0.064,0.311 0.162,0.578 0.37,0.714 1.704,0.853 2.432,-0.609 4.176,-0.666 1.119,-0.037 1.11,0.97 2.055,0.95 0.659,-0.081 0.712,-3.367 1.197,-3.643 0.786,-0.452 0.754,2.074 2.155,1.557 -1.387,-2.272 -2.539,-3.116 -3.271,-1.413 -0.153,0.529 -0.414,0.957 -0.798,1.078 -0.384,0.122 -0.891,-0.064 -1.352,-0.074 -0.815,-0.017 -1.714,0.189 -1.59,-0.066 0.347,-0.891 -1.587,-1.632 -1.379,-2.113 0.845,-0.284 2.077,-0.269 2.501,-0.664 0.179,-1.401 -4.829,-0.092 -7.917,-1.306 -2.442,-0.959 -4.837,-2.171 -6.994,-2.742 -3.505,-0.928 -6.21,-0.453 -6.899,0.741 z m 24.405,9.091 c -0.38,0.321 0.296,0.974 0.973,2.122 0.925,1.569 2.252,3.722 3.63,4.604 0.614,0.393 1.277,0.43 1.85,0.229 0.122,-0.042 0.341,-0.324 0.091,-0.83 -0.366,-0.741 -3.425,-3.94 -2.413,-3.721 0.469,0.135 1.209,1.516 1.508,1.496 0.14,-0.123 0.022,-0.684 -0.16,-1 -0.183,-0.315 -0.554,-0.567 -0.797,-0.931 -0.588,-0.877 -1.251,-1.869 -2.216,-2.235 -0.803,-0.305 -1.683,-0.098 -2.466,0.266 z m -9.136,4.164 c -0.107,-1.483 6.87,-3.591 7.476,-1.398 0.09,0.666 -2.097,0.856 -4.09,1.082 -1.76,0.198 -3.349,0.482 -3.386,0.316 z m -15.289,-5.71 c 0.582,-1.968 2.635,-2.149 2.932,-0.45 -0.962,0.03 -1.968,0.195 -2.932,0.45 z m -2.676,0.407 c 0.573,-1.496 -0.645,-1.571 -1.317,0.225 0.438,-0.075 0.92,-0.331 1.317,-0.225 z m 17.086,26.787 c -1.434,-4.409 -2.032,-8.818 -3.048,-13.229 -1.145,0.812 -2.728,2.958 -3.666,4.515 -2.598,4.305 -4.008,7.448 -5.552,7.636 -2.104,0.257 -5.633,-6.384 -3.746,-9.27 -2.189,1.12 -2.958,2.545 -2.808,4.17 0.112,1.202 0.729,2.514 1.647,3.89 1.248,1.871 -0.449,9.909 1.409,11.912 1.248,1.346 3.228,1.514 5.154,1.525 2.398,0.013 3.04,2.09 5.419,1.276 -0.259,0.435 -0.189,0.636 -0.073,0.805 0.848,0.249 -6.372,-0.341 -6.205,0.294 0.585,1.461 1.996,3.192 2.847,4.897 0.478,0.956 0.353,1.848 0.843,2.817 1.131,2.233 2.231,4.436 2.986,6.326 0.224,0.558 0.121,1.047 0.087,1.428 -0.044,0.492 -0.076,0.808 -0.226,0.877 l -0.496,-0.38 -1.387,-1.913 c -1.258,-0.098 0.572,2.15 2.089,4.292 0.594,0.838 1.074,1.729 1.401,2.353 0.34,0.235 0.771,0.154 0.942,-0.118 0.19,-0.791 0.226,-1.581 0.416,-2.371 0.216,-0.896 0.587,-1.791 0.803,-2.686 -0.446,-0.695 -1.592,-1.349 -2.04,-2.043 -0.347,-0.54 -0.258,-1.075 -0.343,-1.661 -0.033,-0.305 0.242,-0.414 0.529,-0.076 0.729,0.75 1.34,1.794 2.186,2.251 0.249,0.087 0.754,0.271 1.219,0.176 1.06,-1.359 4.302,-3.703 4.674,-2.78 0.012,0.129 -1.255,0.485 -2.406,1.368 -1.116,0.854 -2.171,2.223 -2.545,3.176 2.75,-2.735 5.241,-4.952 5.928,-3.527 0.181,0.512 -0.352,1.314 -0.874,1.112 -4.953,3.642 -6.704,12.375 -7.509,21.419 -1.035,11.627 -0.443,23.246 3.342,24.27 0.176,0.075 0.254,-0.324 0.601,-0.367 0.446,-0.056 1.198,0.233 1.723,0.296 0.934,0.112 1.743,0.169 1.72,0.189 l -0.776,0.764 c -0.595,0.467 4.601,0.56 4.321,2.293 0.142,0.601 7.94,2.599 12.091,3.789 0.662,0.19 0.913,0.005 1.631,0.284 3.677,1.43 6.893,2.113 6.5,2.63 l -1.274,-0.118 0.166,0.471 c -1.323,0.063 -3.207,-0.712 -3.546,-0.529 -0.732,0.516 2.497,0.775 5.189,2.271 2.374,1.32 4.145,3.775 4.341,3.373 -0.737,-2.484 1.992,-5.645 3.106,-8.687 0.714,-1.951 0.43,-4.218 -0.336,-4.542 -1.135,-0.115 -2.639,-0.591 -4.029,-0.706 -0.388,-0.032 -0.602,0.314 -0.999,0.261 -0.44,-0.058 -0.884,-0.133 -1.328,-0.216 -1.332,-0.252 -2.665,-0.503 -3.906,-0.7 -1.314,-0.21 -2.278,-0.585 -3.398,-0.697 -0.568,-0.058 0.575,0.735 0.006,0.678 -0.07,0.171 -0.431,-0.199 -0.501,-0.028 -0.069,0.171 0.153,0.884 0.083,1.055 -0.074,0.046 -1.149,0.051 -2.546,-0.146 -0.634,-0.089 -1.22,-0.374 -2.012,-0.446 -0.916,-0.083 -2.009,0.095 -2.991,0.002 -0.81,-0.078 -1.621,-0.379 -2.394,-0.428 -3.038,-0.195 -5.368,0.207 -5.403,0.078 0.036,-0.233 -0.188,-0.641 -0.635,-1.005 -1.06,-0.863 -2.957,-1.811 -2.634,-1.994 2.476,-0.064 4.929,0.276 7.404,0.212 2.806,-0.072 5.658,-0.646 8.463,-0.718 0.23,-0.023 0.639,0.325 0.909,0.692 0.307,0.416 0.45,0.96 0.675,1.048 0.114,0.063 0.659,0.03 1.318,0.07 1.098,0.066 2.556,0.164 3.169,0.001 0.172,-0.103 0.606,-0.605 0.525,-0.952 -0.047,-0.2 -0.817,0.08 -0.722,-0.28 0.079,-0.301 0.629,-0.57 0.567,-0.811 -0.066,-0.254 -0.795,-0.291 -1.07,-0.455 -0.166,-0.097 0.076,-0.301 0.036,-0.453 -0.291,-0.084 -2.022,0.098 -2.313,0.015 -0.291,-0.083 0.858,-0.433 0.568,-0.516 0.152,-0.086 -0.115,-0.193 -0.134,-0.396 -0.018,-0.203 0.212,-0.503 0.36,-0.619 0.176,-0.14 1.02,0.081 1.202,-0.023 0.188,-0.108 0.523,-0.518 0.718,-0.575 0.196,-0.055 0.253,0.243 0.442,0.135 1.27,-1.232 3.039,-2.552 3.977,-3.783 0.184,-0.436 -1.128,-0.014 -3.314,1.174 -1.7,0.922 -3.929,2.483 -6.391,3.333 -3.491,1.204 -7.937,0.955 -10.55,1.624 -0.598,0.153 -1.418,-0.581 -2.017,-0.428 -0.271,-0.396 1.698,-0.741 1.279,-1.372 -0.206,-0.311 -0.863,-0.904 -1.627,-1.163 -0.673,-0.229 -1.466,-0.12 -1.652,-0.392 -0.091,-0.448 1.024,-0.639 2.262,-0.371 0.796,0.172 1.411,0.805 2.245,1.001 0.944,0.224 2.094,-0.014 2.701,-0.349 0.308,0.013 -0.445,-0.799 0.034,-1.261 0.349,-0.337 0.94,-0.577 0.853,-0.738 -1.683,-1.483 -4.941,-5.212 -5.048,-4.449 -0.555,0.253 -0.671,-0.626 -0.656,-0.781 0.02,-0.199 0.45,-0.415 1.216,0.056 l 6.426,6.644 c 0.431,0.174 0.382,-0.52 1.234,-0.255 0.289,0.09 0.945,0.201 1.519,0.517 0.739,0.406 1.418,1.033 1.79,1.149 0.46,0 1.478,-1.689 2.823,-2.731 0.547,-0.424 1.348,-0.889 1.969,-0.974 0.425,-0.059 0.72,0.219 0.97,0.177 0.462,-0.815 1.655,-1.9 1.385,-2.175 l -0.775,-0.294 c -0.485,0.014 -0.623,0.508 -1.108,0.544 -0.55,0.041 -1.446,-0.373 -1.995,-0.309 -0.769,0.11 -1.911,0.188 -2.942,0.383 -0.504,0.096 -0.874,0.356 -1.369,0.396 -1.332,0.109 -2.53,-0.149 -3.43,-0.038 -0.693,0.086 -0.864,0.57 -1.068,0.513 l -5.177,-4.077 c -0.622,-0.374 -1.387,-0.341 -1.808,-0.192 -0.702,0.249 -0.832,1.046 -0.162,1.78 l 3.879,3.234 c 1.563,1.534 0.67,2.11 -0.827,1.888 -1.864,-0.276 -4.745,-1.574 -5.929,-1.286 -1.705,0.414 -3.076,1.299 -3.272,1.22 -0.207,-0.09 0.5,-0.644 0.945,-0.853 0.537,-0.252 1.36,-0.34 1.763,-0.669 0.17,-0.139 -0.373,-0.566 0.019,-0.705 0.681,0.789 1.049,0.753 1.231,-0.134 0.071,-0.346 -0.009,-0.751 0.014,-1.37 0.122,-0.057 0.253,-0.396 0.375,-0.505 0.101,-0.091 0.406,0.118 0.528,0.062 0.13,-0.248 0.013,-1.332 -0.055,-1.999 0.089,-0.921 -3.14,1.309 -3.291,-0.208 -0.02,-0.195 0.081,-0.712 0.484,-0.944 0.672,-0.386 1.901,-0.533 2.729,-1.141 0.742,-0.545 1.163,-1.6 1.241,-1.881 0.427,-0.424 0.39,-0.62 -0.11,-0.589 -1.245,0.688 -3.002,1.952 -4.223,2.633 -0.554,0.309 -0.892,0.116 -1.207,0.366 -0.297,0.29 -0.916,1.632 -0.999,2.263 -0.111,0.747 -0.436,0.728 -0.386,-0.087 l 0.277,-1.117 c 0.004,-0.162 -0.862,-0.054 -0.998,0.234 -0.204,0.51 -0.41,0.956 -0.634,1.114 -0.224,0.157 -0.468,0.027 -0.496,-0.083 -0.034,-0.134 0.352,-0.388 0.577,-0.853 0.021,-0.362 -1.279,-0.188 -1.163,-0.883 0.473,-2.709 0.7,-2.919 0.719,-1.059 0.112,0.167 0.478,0.018 0.587,0.185 0.112,0.166 -0.032,0.649 0.078,0.815 0.268,0.316 1.173,0.136 1.441,0 1.287,-1.558 1.555,-3.748 2.884,-5.305 1.33,-1.558 3.764,-2.485 5.093,-4.043 -0.195,-0.793 0.892,-2.454 1.847,-4.392 0.593,-1.203 1.006,-2.635 1.422,-3.663 0.216,-0.475 -0.722,-0.93 -0.682,-1.71 0.035,-0.689 1.033,-1.592 1.126,-2.323 0.036,-0.479 -1.358,-0.135 -1.298,-0.69 0.052,-0.479 1.458,-1.486 1.517,-2.215 -0.128,-0.439 -1.194,-0.179 -1.322,-0.844 -0.087,-0.451 0.26,-1.354 0.389,-1.793 0.557,-0.808 -1.121,0.052 -1.204,-0.268 -0.095,-0.367 1.143,-1.436 1.071,-1.967 -0.019,-0.284 -0.609,-0.019 -0.638,-0.213 -0.028,-0.194 0.396,-0.505 0.297,-0.913 -0.028,-0.15 -0.449,-0.088 -0.878,-0.261 -0.428,-0.174 -0.957,-0.732 -1.085,-0.92 -0.257,-0.378 0.211,-0.561 -0.062,-0.758 -1.252,-0.956 -3.374,-1.389 -4.354,-2.797 -1.343,-1.93 -1.295,-5.225 -2.734,-6.882 0.226,-2.576 -5.796,-2.626 -8.757,-5.021 -2.208,-0.692 0.087,-0.663 0.131,-0.994 3.424,1.764 6.164,2.047 6.457,-2.957 -0.436,-0.685 -1.998,0.205 -3.18,0.094 -1.135,-0.107 -2.291,-0.165 -3.425,-0.108 -2.654,0.131 -4.632,0.771 -5.5,0.064 -0.979,0.017 -1.67,0.019 -2.07,-0.456 -0.45,-0.255 -0.718,-0.621 -0.548,-0.999 0.282,-0.629 1.519,-1.326 2.815,-2.287 -1.974,-0.173 -2.731,-0.343 -2.772,-0.703 -0.115,-0.994 -1.127,-1.327 7.032,-1.521 1.062,-1.201 1.828,-2.54 2.611,-4.184 0.536,-0.312 0.72,0.074 0.566,0.808 -0.198,0.945 -0.855,2.43 -0.957,3.369 l 3.519,0.346 c 0.69,-0.189 1.745,-0.71 1.914,-1.232 z M 145.5,142.279 c -0.275,-0.533 -0.437,-1.097 -0.346,-1.728 0.115,-0.015 -0.242,-0.017 -0.347,-0.101 -0.106,-0.082 0.033,-0.384 1.16,-0.699 0.277,-0.077 0.494,-0.401 0.578,-0.156 0.039,0.118 0.17,0.149 0.188,0.746 l 0.593,0.047 0.049,0.843 c 0.19,0.07 0.797,-0.46 0.987,-0.39 0.188,0.069 -0.041,0.74 0.148,0.81 1.117,0.515 0.733,1.487 0.531,1.959 -0.26,0.608 -1.025,0.925 -2.011,1.078 -2.002,0.467 -2.08,1.403 -1.973,1.549 0.305,0.416 2.169,-1.415 2.835,-1.234 0.404,0.416 2.69,-0.642 2.937,-0.419 0.03,0.216 -0.654,0.937 -1.364,1.88 -0.757,1.004 -1.556,2.248 -2.027,3.02 -2.34,3.83 -3.225,6.403 -4.567,6.311 -1.642,-0.113 -7.548,-11.063 0.408,-9.43 0,0 0.151,0.027 0.221,-0.227 0.096,-0.347 -0.926,-0.37 -0.837,-0.811 0.101,-0.499 1.278,-1.347 1.568,-1.746 0.523,-0.718 1.381,-1.086 1.269,-1.302 z m -8.381,-14.815 c 0.478,-0.71 0.507,-1.547 0.959,-2.226 0.397,-0.599 1.049,-0.895 1.639,-1.784 1.152,1.054 2.322,1.829 3.559,1.613 0.729,1.6 1.674,2.52 3.086,1.946 0.917,2.627 0.615,5.318 0.037,7.424 -0.316,1.154 -0.946,2.406 -1.875,3.301 -1.55,1.494 -3.855,2.085 -5.584,0.855 -0.905,-0.505 -0.513,-0.838 0.907,-0.896 0.838,0.106 0.604,-0.775 -0.118,-0.461 -1.089,0.287 -1.688,0.148 -1.734,-0.099 -0.094,-0.515 0.283,-0.577 2.938,-0.869 0.439,0.033 0.471,-0.28 -0.024,-0.355 -0.283,-0.091 -0.659,-0.049 -0.983,-0.256 -0.338,-0.217 -0.625,-0.607 -0.864,-0.712 -0.142,-0.064 -0.293,0.113 -0.355,0.103 -0.644,-0.286 -0.684,-0.505 -0.079,-0.655 0.124,-0.032 0.337,-0.413 0.6,-0.381 0.263,0.032 0.597,0.475 0.841,0.448 0.221,-0.024 0.484,-0.098 0.566,-0.266 0.204,-0.21 -0.165,-1.068 -0.285,-1.915 -0.1,-0.701 0.016,-1.394 0.368,-1.705 0.181,0.127 0.367,0.282 0.623,0.208 -0.022,1.015 2.144,0.775 2.719,-0.461 l 1.261,-0.737 c 0.266,-0.153 -0.053,-0.353 -0.072,-0.536 -0.018,-0.182 0.065,-0.349 -0.087,-0.479 -0.267,-0.23 -0.775,-0.373 -1.166,-0.526 -0.689,-0.271 -1.371,-0.504 -1.586,-0.164 -0.173,0.108 -1.394,0.058 -1.923,0.303 -0.651,0.302 -1.33,2.69 -2.079,4.113 -0.227,0.432 -0.409,0.76 -0.582,0.9 -0.287,0.234 -0.466,-0.015 -0.09,-0.891 1.584,-3.273 1.957,-5.21 -1.016,-3.457 l 0.399,-1.383 z m 16.332,14.39 c 1.527,-0.412 7.49,0.229 8.496,1.089 0.082,0.131 -0.74,0.319 -1.208,1.299 -0.318,0.665 -0.806,1.557 -1.091,2.533 -0.195,0.668 -0.175,1.391 -0.413,2.043 -0.188,0.513 -0.499,0.956 -0.748,1.466 -0.319,0.656 -0.57,1.328 -0.702,1.373 -0.152,-1.432 -0.077,-2.935 -0.002,-4.447 -0.255,-0.216 -0.313,1.006 -0.511,1.24 -0.181,-0.103 -0.343,-0.285 -0.372,-1.029 -0.596,0.531 -0.729,1.178 -0.888,2.058 -0.186,-0.787 -0.376,-1.836 -0.329,-2.882 0.072,-1.634 0.46,-3.209 0.334,-3.351 -1.215,1.86 -0.681,5.254 0.342,9.077 -0.676,-1.171 -2.074,-2.744 -2.795,-4.608 -0.928,-2.396 -1.33,-5.073 -0.113,-5.861 z"
           id="path28"
           inkscape:connector-curvature="0" />
        <path
           style="fill:#ef7e20;stroke:none"
           d="m 143.364,128.315 c -0.319,0.028 1.402,1.537 1.62,0.882 0.068,-0.371 -1.08,-0.55 -1.62,-0.882 z m 53.715,115.326 c -0.366,0.153 -0.312,0.654 0.099,0.616 0.286,-0.157 0.275,-0.485 -0.099,-0.616 z m -0.338,1.088 c 0.433,0.136 0.509,0.46 0.121,0.612 -0.504,0.015 -0.516,-0.605 -0.121,-0.612 z m -1.039,0.665 c -0.526,0.361 0.06,1.2 0.752,0.949 0.312,-0.416 -0.209,-1.208 -0.752,-0.949 z m -4.638,-4.734 c -0.807,0.918 -1.332,1.727 -1.664,3.275 0.005,0.542 2.146,1.651 3.219,2.475 -0.142,-0.645 0.128,-2.244 -0.287,-2.428 -0.478,-0.213 -1.569,0.98 -1.751,0.005 -0.137,-0.733 0.334,-2.568 0.483,-3.327 z m -20.087,21.715 c -1.132,2.21 -1.688,2.624 -1.851,1.81 0.095,-0.515 0.274,-1.095 0.499,-1.539 0.224,-0.445 0.495,-0.757 0.513,-0.916 l -0.52,-2.945 c -0.076,-0.311 0.003,-0.595 0.318,-0.768 1.669,-0.293 3.18,-1.922 4.77,-2.883 -0.051,1.52 -0.325,2.763 -0.385,3.894 -0.087,1.654 0.137,2.979 -0.311,4.002 -0.179,0.412 -0.345,0.722 -0.592,0.983 -0.247,0.26 -0.574,0.47 -0.865,0.68 -0.567,0.408 -1.182,1.571 -1.826,1.944 -0.161,0.094 -0.683,0.331 -1.146,0.358 -0.818,0.047 -1.519,-0.655 -0.368,-0.911 1.195,-0.236 1.99,-1.205 2.692,-1.858 1.171,-1.089 2.301,-1.919 1.942,-4.094 -0.553,-1.653 -0.843,-2.264 -1.482,-1.961 -1.364,0.7 -1.962,1.847 -1.793,3.437 0.068,0.142 -0.442,0.664 -0.375,0.792 0.068,0.128 0.713,-0.138 0.78,-0.025 z m -14.618,-32.058 c 0.329,0.14 2.318,-0.062 3.392,0.135 0.175,0.128 -0.905,0.316 -0.9,0.687 2.854,0.672 5.269,1.365 4.613,2.2 -0.259,0.173 -6.305,-1.925 -7.105,-3.022 z m 9.032,4.303 c 4.557,2.808 10.907,4.727 17.045,5.563 0.509,0.069 -1.448,-0.673 -1.043,-0.599 0.54,0.099 2.917,0.3 1.431,-0.133 l -17.433,-4.831 z m 7.642,4.019 c 4.097,1.595 10.706,3.044 12.29,4.785 -0.254,0.389 -1.794,1.715 -1.962,2.083 -1.506,-1.001 -4.104,-1.474 -5.62,-2.457 -0.931,-0.603 -0.961,-1.523 -1.62,-2.229 -0.42,-0.45 -1.283,-0.522 -1.799,-1.072 -0.263,-0.282 -0.849,-0.812 -1.289,-1.11 z m 0.015,5.648 c 0.212,-0.061 2.146,2.874 0.637,-0.181 -0.111,-1.177 4.392,3.638 6.587,5.457 -1.075,0.005 -1.53,0.961 -2.295,1.442 -1.643,-2.239 -4.043,-4.844 -4.929,-6.718 z m -15.603,-4.315 c 5.551,4.906 9.436,9.573 10.887,13.892 -2.572,-4.369 -6.431,-9.054 -10.887,-13.892 z m -8.239,-10.019 c 1.544,0.84 2.518,0.904 2.924,0.193 3.85,1.079 9.26,5.526 15.229,10.409 0.664,0.221 1.624,0.129 2.437,0.193 0.38,0.262 0.612,1.78 0.548,2.199 -1.383,-0.138 -3.193,-2.072 -5.089,-3.183 -1.338,-0.786 -2.791,-1.384 -3.986,-2.183 -1.248,-0.836 -2.005,-2.076 -2.925,-2.672 -1.345,-0.87 -2.573,-0.948 -2.986,-0.496 -0.17,0.066 0.371,1.042 0.834,1.853 0.423,0.743 0.218,1.691 0.035,1.873 -3.067,-2.096 -5.254,-4.884 -7.021,-8.186 z m 44.859,-20.094 c 0.115,-0.519 -0.602,-0.427 -2.152,0.277 0.717,-0.092 1.76,0.031 2.152,-0.277 z m -1.108,0.347 c -1.001,0.668 -2.407,2.673 -3,2.006 0.172,-0.381 1.796,-1.295 3,-2.006 z m -7.901,-3.315 c 1.397,0.343 2.796,0.534 4.194,0.502 l 1.149,1.939 c -0.018,0.091 -0.445,0.242 -0.914,0.574 -0.414,0.292 -0.821,1.04 -1.183,1.005 -0.287,-0.216 -0.63,-0.522 -0.995,-0.754 -0.608,-0.388 -1.22,-0.699 -1.305,-0.969 l -0.946,-2.297 z m 7.086,11.841 c -0.138,0.414 -0.55,0.584 -0.649,0.993 -0.128,0.527 0.06,1.298 -0.086,1.897 -0.296,1.21 -0.672,2.611 -0.648,3.673 0.035,1.46 0.845,2.611 0.731,3.163 l -0.739,2.766 c -0.579,0.353 -2.982,-2.843 -2.779,-3.365 0.412,-0.904 1.779,-1.236 2.14,-2.783 0.482,-2.062 0.204,-4.97 0.488,-6.353 0.221,-1.075 0.953,-1.083 1.542,0.009 z m -1.434,-0.968 c -0.278,-0.062 -0.532,-0.04 -0.719,0.147 -0.291,0.292 -0.448,0.871 -0.491,1.286 l 0.584,0.159 c 0.094,-0.469 0.284,-1.387 0.626,-1.592 z m -2.605,-5.578 c -0.233,1.906 1.066,4.198 0.834,6.104 -0.14,1.142 -0.825,2.935 -1.318,4.519 -0.634,2.036 -1.091,3.701 -1.167,2.93 -0.004,-0.872 -0.227,-0.797 -0.114,-1.768 0.079,-0.664 0.618,-2.373 0.65,-3.008 0.02,-0.361 -0.179,-0.639 -0.156,-0.984 0.018,-0.263 0.323,-0.37 0.331,-0.628 0.022,-0.688 -0.445,-1.183 -0.362,-1.872 0.215,-1.763 1.195,-3.141 1.302,-5.293 z m -28.196,16.409 13.28,0.646 -1.016,-0.948 c -0.04,-0.258 0.893,-0.402 2.802,-0.431 l 2.518,3.62 c -1.47,0.354 -3.129,-0.171 -4.819,-0.524 -0.77,-0.16 -1.571,0.247 -2.359,0.191 -0.878,-0.063 -1.474,-0.454 -2.356,-0.542 -1.685,-0.167 -3.663,-0.027 -5.37,0.013 -0.467,-0.933 -1.455,-1.551 -2.68,-2.025 z m 21.091,0.855 c 0.584,-0.536 1.296,-0.984 2.138,-1.114 -0.334,0.358 -0.576,0.731 -0.591,1.156 l -1.547,-0.042 z m -2.451,0.438 c 3.019,-0.194 6.159,0.05 6.578,1.12 -0.744,0.072 -4.697,-0.761 -6.578,-1.12 z m 6.805,-6.066 0.906,3.186 c -0.252,0.444 -2.813,0.808 -4.256,1.25 -0.235,-0.243 0.648,-0.844 0.413,-1.087 -0.235,-0.244 -1.55,-0.094 -1.785,-0.338 -0.182,-0.189 0.827,-0.774 0.645,-0.963 -0.183,-0.19 -1.557,0.015 -1.74,-0.174 1.985,-0.43 3.934,-1.014 5.817,-1.874 z m 0.078,-2.999 c 0.697,1.181 0.627,2.067 -0.208,2.658 l -4.487,1.716 c 1.67,-1.347 3.305,-2.731 4.695,-4.374 z m -13.936,-2.683 c -1.106,1.527 2.123,1.122 6.565,0.177 -1.076,-0.502 -3.709,-0.383 -6.565,-0.177 z m -0.53,5.414 1.706,1.726 c 0.832,0.015 1.665,-0.197 2.498,-0.631 -1.881,-1.433 -3.382,-2.019 -4.204,-1.095 z m -6.864,0.463 0.635,1.726 7.657,-0.294 c -1.125,-1.053 -2.09,-2.273 -3.135,-3.411 -1.348,0.296 -0.515,2.148 -1.308,2.147 -1.283,0.422 -2.566,0.31 -3.849,-0.168 z m -2.3,-0.673 c 1.11,-0.211 1.745,0.083 1.904,0.884 -0.529,-0.464 -1.164,-0.758 -1.904,-0.884 z m 0.159,-6.736 c 0.419,1.086 0.793,1.76 1.411,2.317 0.771,0.698 1.727,1.084 2.303,1.532 0.959,0.747 1.285,1.366 1.039,1.686 -0.386,0.501 -2.153,0.222 -5.825,-1.157 -0.291,-0.35 0.054,-1.291 0.08,-1.936 0.166,-0.534 0.846,0.196 1.012,-0.211 0.165,-0.407 -0.186,-1.824 -0.02,-2.231 z m 23.634,-3.857 c 1.398,0.189 0.676,5.43 -1.361,4.652 0.799,-1.469 1.359,-3.09 1.361,-4.652 z m -0.531,-1.34 c -0.075,-0.172 -0.591,1.322 -1.417,2.167 -0.826,0.846 -1.965,1.044 -2.488,1.665 -0.461,0.548 -0.069,1.528 -0.339,2.049 -0.271,0.522 -1.206,0.586 -1.668,1.133 -0.054,0.195 1.293,0.281 2.016,-0.1 1.206,-0.633 2.342,-2.075 2.335,-1.45 -0.188,1.521 -1.008,2.931 -2.259,4.265 -2.128,0.322 -3.363,1.203 -3.986,2.467 -0.188,0.388 4.208,-1.903 4.617,-2.326 1.864,-3.503 3.46,-6.934 3.189,-9.87 z m -7.645,3.587 c -0.44,0.506 -0.596,0.962 -0.464,1.367 l -3.399,-0.189 c 1.479,-0.039 2.767,-0.432 3.863,-1.178 z m -11.946,0.873 6.045,0.987 c -1.276,0.544 -1.836,1.392 -1.681,2.544 l -4.364,-3.531 z m 8.85,-8.124 c 2.028,0.109 3.382,1.026 3.257,3.718 0.15,1.102 1.048,0.962 1.431,-0.418 0.122,-0.248 0.629,0.268 0.387,-0.91 -0.218,-1.06 -1.335,-0.82 -1.127,-1.971 l 4.293,1.676 c 0.834,0.75 0.141,1.488 -1.485,2.237 -1.526,0.703 -3.772,1.649 -6.451,2.138 -2.124,0.388 -4.48,0.433 -6.766,0.645 -3.133,0.292 -6.139,0.735 -8.246,1.317 -1.175,0.475 -1.8,0.007 -0.295,-0.733 1.328,-0.39 2.788,-1.528 3.548,-2.567 0.599,-0.821 0.226,-1.985 0.547,-2.094 0.48,-0.091 0.554,2.475 1.773,2.963 1.472,0.589 3.802,0.44 5.744,0.119 2.1,-0.345 5.185,-1.444 5.449,-2.94 0.082,-0.463 -0.127,-1.152 -0.507,-1.584 -0.701,-0.795 -1.812,-1.252 -1.552,-1.596 z m -16.819,5.373 c -1.244,1.747 -0.661,1.788 1.515,-0.205 -0.816,0.398 -1.321,0.467 -1.515,0.205 z m 5.391,-2.175 c -1.75,0.423 -3.248,1.248 -4.376,2.661 0.098,0.185 3.811,-2.062 4.376,-2.661 z m 10.12,-4.547 -1.596,-0.145 c -0.702,1.086 -2.806,2.089 -5.698,3.047 0.335,0.984 -0.06,3.226 1.003,2.951 0.557,-0.518 -0.748,-1.959 0.092,-2.482 1.196,-0.743 3.355,-0.604 4.731,-1.094 1.293,-0.46 1.905,-1.6 1.468,-2.277 z m -23.918,-17.621 c -0.719,-0.825 -0.96,1.31 -0.268,1.676 5.251,5.739 3.72,6.06 -0.893,3.919 0.084,0.552 2.332,1.995 2.965,2.851 0.432,0.586 -0.683,0.624 -0.626,1 0.039,0.251 0.584,0.644 0.514,0.886 -0.144,0.496 -0.816,0.44 -0.849,0.76 -0.055,0.509 0.748,0.318 0.727,0.941 -0.016,0.469 -0.681,0.858 -0.639,1.378 0.031,0.382 0.405,0.761 0.429,1.139 0.035,0.548 -0.539,1.03 -0.504,1.445 0.027,0.337 0.572,0.704 0.602,1.036 0.032,0.37 -0.543,0.706 -0.511,1.072 0.021,0.247 0.379,0.332 0.402,0.578 0.022,0.236 -0.502,0.407 -0.48,0.643 0.027,0.271 0.571,0.445 0.6,0.716 0.027,0.258 -0.461,0.356 -0.433,0.614 0.035,0.328 0.439,0.528 0.478,0.857 0.033,0.271 -0.208,0.574 -0.174,0.846 0.049,0.404 0.284,0.875 0.339,1.283 0.046,0.337 -0.274,0.612 -0.227,0.953 0.042,0.312 0.155,0.57 0.074,0.877 -0.086,0.328 -0.38,0.685 -0.412,1.128 -0.039,0.525 0.288,0.883 0.51,1.37 0.433,0.947 0.283,2.865 0.535,3.956 0.447,1.944 1.169,3.159 1.459,5.069 -1.397,-9.336 -1.466,-19.055 0.831,-29.457 -0.053,-0.33 -0.749,-1.278 -1.583,-2.639 -0.945,-1.541 -2.078,-3.563 -2.866,-4.897 z m -1.436,-9.047 c 1.477,5.291 2.605,8.71 2.486,5.443 -0.017,-0.616 -1.658,-3.63 -2.486,-5.443 z m 6.912,6.736 c -0.012,1.09 -0.078,2.14 -0.115,3.107 -0.115,2.939 -0.223,5.535 -0.879,5.588 -0.509,0.042 -1.42,-1.745 -2.48,-4.225 0.495,0.461 1.201,1.464 1.603,1.288 0.649,-0.286 0.92,-1.776 1.345,-3.655 0.153,-0.679 0.385,-1.296 0.526,-2.103 z m -2.128,-2.997 c -0.55,0.741 0.521,1.327 1.824,1.891 -0.81,-0.916 -1.821,-2.116 -1.824,-1.891 z m 5.95,1.245 c -2.206,1.832 -3.136,4.206 -3.605,6.776 1.202,-2.259 2.23,-4.61 3.605,-6.776 z m 2.215,-1.337 c -1.716,0.695 -2.816,3.355 -4.039,5.624 0.603,-0.84 1.239,-1.823 1.941,-2.705 0.497,-0.626 1.071,-1.155 1.499,-1.751 0.157,-0.219 0.618,0.079 1.024,-0.474 0.239,-0.326 0.033,-0.81 -0.425,-0.694 z m -22.459,-1.748 c -0.532,-0.462 -2.509,-2.629 -2.902,-1.162 -0.683,2.729 -2.068,6.709 -3.817,8.984 -1.982,2.577 -5.013,3.517 -5.012,3.738 l 3.539,-1.172 c 0.338,-0.13 0.49,0.026 0.228,0.284 -2.346,0.901 -4.499,1.947 -5.289,3.998 0.32,0.278 1.212,-1.635 1.799,-1.361 0.399,0.187 0.219,0.678 0.736,0.365 0.975,-0.951 2.909,-1.643 3.602,-2.82 0.862,-1.467 0.883,-2.857 1.928,-4.155 1.857,-2.31 3.504,-4.464 5.188,-6.699 z m 0.104,0.857 -0.837,0.97 c 0.951,0.525 1.851,0.781 2.701,0.767 l -1.864,-1.737 z m 0.846,-4.494 c 2.3,0.873 4.318,2.131 5.922,3.954 0.013,0.381 -0.943,1.001 -1.415,1.501 l -4.507,-5.455 z m 3.949,-1.501 c 1.365,0.592 1.738,1.449 1.117,2.569 0.434,0.968 0.744,1.772 0.782,2.213 l -2.947,-3.318 1.048,-1.464 z m -9.089,-3.519 0,0.949 1.117,-0.83 c -0.372,-0.251 -0.745,-0.29 -1.117,-0.119 z m 0.112,-2.253 c -1.598,-1.148 -2.565,1.817 -0.895,3.636 0.169,-0.681 0.242,-1.707 0.45,-2.458 0.163,-0.586 0.494,-0.959 0.445,-1.178 z m 6.775,2.517 1.316,1.805 -2.122,-1.805 c 0.268,0.04 0.724,0.277 0.806,0 z m 0.695,0.277 c 3.113,0.591 4.831,1.995 4.865,4.378 -1.934,-1.334 -4.124,-2.464 -4.865,-4.378 z m -2.752,-6.472 c 0.376,1.282 1.299,2.192 2.753,2.765 2.033,0.8 4.551,0.581 6.496,0.562 -0.283,-0.29 -1.881,-0.846 -3.323,-1.185 -1.089,-0.255 -2.638,-0.219 -3.701,-0.565 -1.037,-0.338 -1.56,-0.805 -2.225,-1.577 z m -4.252,-0.699 c -0.265,-0.398 0.863,-0.992 2.669,-1.305 -1.029,0.399 -1.959,0.823 -2.669,1.305 z m 3.461,-1.18 c 0.19,1.14 -2.044,1.479 -3.45,1.811 0.166,-0.201 0.339,-0.672 0.888,-0.941 1.027,-0.502 2.142,-1.217 2.562,-0.87 z m -1.897,-11.038 c -1.395,0.335 -0.434,2.724 1.548,6.046 -0.516,-2.015 -0.821,-5.3 -1.548,-6.046 z m 0.844,0 c 1.114,1.281 1.325,3.247 1.126,5.524 l -1.126,-5.524 z m 27.452,28.484 c 0.951,0.134 2.873,1.229 3.995,0.889 1.155,-0.35 1.879,-1.832 3.084,-2.02 2.127,6.535 0.92,13.172 -1.219,20.355 1.447,0.329 2.41,1.554 3.045,3.392 -1.096,-0.201 -2.192,-3.552 -3.896,-3.026 -1.496,0.461 -3.241,2.451 -5.075,4.187 -1.425,1.351 -2.957,2.519 -4.12,2.878 0.239,-1.461 2.815,-1.452 4.164,-3.549 0.347,-0.54 0.24,-0.989 0.512,-1.711 0.461,-1.218 1.584,-2.816 2.114,-4.114 0.412,-1.01 0.428,-1.71 0.639,-2.421 0.265,-0.894 -0.998,-0.484 -0.556,-1.244 0.535,-0.919 1.022,-1.815 1.421,-2.67 0.264,-0.563 -1.38,-0.187 -1.149,-0.736 0.236,-0.56 0.789,-1.112 0.973,-1.655 0.262,-0.771 -0.689,-0.971 -0.994,-1.543 -0.237,-0.445 0.157,-1.258 0.265,-1.826 0.096,-0.511 -1.24,0.126 -1.038,-0.597 0.08,-0.284 0.681,-0.659 0.706,-0.952 0.045,-0.503 -0.314,-0.422 -0.256,-0.921 0.015,-0.127 0.042,-0.253 0.062,-0.38 0.122,-0.778 -2.529,-0.265 -2.677,-2.336 z m -17.322,-21.909 c -1.131,-0.408 -7.154,2.266 -5.523,2.63 1.669,-0.877 5.132,-2.229 5.523,-2.63 z m -0.568,1.584 c -2.048,0.18 -4.774,0.765 -4.85,1.446 -0.086,0.768 2.844,-0.56 2.923,-0.583 1.978,-0.556 4.254,-0.967 1.927,-0.863 z m 2.918,-3.123 c -5.621,-0.204 -8.599,-0.003 -7.712,0.656 0.401,0.253 3.861,0.092 5.792,0.242 l 1.92,-0.898 z m -2.003,3.672 c -1.555,0.213 -2.499,0.428 -3.124,0.636 -0.626,0.209 -0.933,0.415 -0.939,0.606 -0.005,0.195 1.01,0.34 4.304,-0.439 l -0.241,-0.803 z m 1.553,0.82 c 1.73,-0.342 3.461,-0.441 5.192,-0.297 -1.731,0.441 -3.462,0.539 -5.192,0.297 z m 6.479,1.064 1.865,1.252 -0.038,2.342 c -1.142,0.566 -2.334,0.862 -3.577,0.889 1.078,0.309 2.435,0.229 3.615,-0.323 l -0.038,3.069 c -0.603,-0.55 -1.357,-0.965 -2.313,-1.29 -0.701,-0.238 -1.53,-0.466 -2.331,-0.733 -0.662,-0.221 -1.304,-0.468 -1.835,-0.767 -0.707,-0.398 -1.121,-0.758 -1.849,-1.079 -0.282,-0.125 -0.678,-0.168 -0.958,-0.29 l 0.723,-0.324 c 3.958,2.164 6.432,1.659 6.736,-2.746 z m 4.114,2.933 c 1.315,0.389 2.533,0.271 3.657,-0.353 0.547,0.296 1.273,5.185 0.997,5.557 l -4.654,-5.204 z m 2.513,3.802 c 1.588,4.614 2.427,5.88 2.172,2.253 l -2.172,-2.253 z m 5.394,6.271 c 0.134,0.693 0.43,2.85 -0.311,3.495 -0.742,0.646 -3.145,0.394 -4.139,0.378 1.209,-0.232 2.452,-0.635 3.215,-1.476 0.765,-0.84 1.051,-2.118 1.235,-2.397 z m 3.071,-9.448 c 1.428,2.937 1.941,6.621 1.825,10.818 -1.854,2.518 -3.174,3.778 -3.961,3.778 2.402,-4.097 3.894,-8.607 2.136,-14.596 z m 4.568,0.643 c 0.091,-0.221 0.881,0.012 1.081,0.36 0.267,3.521 -1.034,6.092 -2.773,8.398 -0.289,-0.087 -0.215,-2.236 -0.443,-3.232 -0.157,-0.681 -0.579,-1.17 -0.571,-1.505 0.098,-0.461 0.492,-0.972 0.579,-1.532 0.111,-0.72 -0.08,-1.46 0.097,-1.627 l 1.488,-0.216 c 1.2,3.145 0.736,0.139 0.542,-0.646 z m 0.463,6.309 c -0.953,1.823 -2.076,3.6 -3.504,5.298 l 1.104,4.432 c 2.759,1.156 5.399,1.241 7.921,0.255 -0.218,-0.001 -3.779,-2.912 -3.361,-5.349 -0.19,-0.112 -0.496,0.224 -0.627,0.019 -0.078,-0.123 0.002,-0.765 -0.064,-0.903 -0.115,-0.237 -0.394,-0.014 -0.498,-0.241 -0.104,-0.227 -0.035,-0.905 -0.163,-1.053 -0.156,-0.181 -0.448,0.299 -0.667,0.294 -0.219,-0.005 -0.368,-0.496 -0.416,-0.733 -0.03,-0.141 -0.448,0.42 -0.453,0.266 -0.016,-0.462 0.484,-1.692 0.728,-2.285 z m 6.193,1.171 c -3.152,3.091 -0.064,2.259 1.056,0.561 0.099,-0.079 -0.096,-0.148 -0.372,-0.304 -0.018,-0.009 -0.11,0.114 -0.183,-0.029 -0.122,-0.242 -0.394,-0.339 -0.501,-0.228 z m 13.745,-5.103 c 0.471,4.5 -9.247,9.751 -13.959,13.501 -0.091,-0.458 2.765,-2.598 5.296,-4.798 1.281,-1.112 2.447,-2.37 3.327,-3.279 0.917,-0.947 0.935,-1.589 1.673,-2.397 1.15,-1.26 2.906,-2.527 3.663,-3.027 z m -3.523,-9.904 c -1.011,0.353 -2.725,2.743 -4.401,4.291 -1.29,1.19 -2.731,1.59 -3.235,1.283 l 0.67,0.672 c 0.516,0.948 0.48,1.627 0.087,2.13 -0.683,0.875 -2.727,0.922 -4.549,1.24 -1.609,0.281 -3.466,1.658 -3.993,1.322 l 0.298,-1.451 c 0.942,-1.183 4.506,-1.095 6.759,-1.643 0.209,-0.114 -0.026,-0.588 -0.081,-1.026 -0.064,-0.497 -0.079,-0.986 -0.199,-1.021 -0.611,-0.084 -1.073,-0.347 -1.154,-0.567 -0.081,-0.222 0.334,-0.523 0.679,-0.683 0.614,-0.285 1.773,-0.23 2.654,-0.413 0.565,-0.117 1.016,-0.439 1.136,-0.66 0.155,-0.105 -1.116,-0.208 -1.674,-0.312 1.004,0.093 1.695,0.177 2.481,-0.192 1,-0.47 1.54,-2.008 2.279,-2.724 1.08,-1.046 2.165,-1.141 2.243,-0.246 z m 2.83,-1.226 c -0.035,0.748 -0.993,1.426 -2.274,1.73 0.749,-0.536 1.811,-1.556 2.274,-1.73 z m 5.402,-4.309 c 0.248,0.765 0.596,1.423 1.042,1.977 -1.468,2.429 -2.554,5.016 -3.426,8.183 -0.179,-0.151 -0.777,-1.823 -0.859,-2.846 -0.102,-1.274 0.165,-2.423 0.004,-3.307 -0.142,-0.778 -0.499,-1.291 -1.008,-1.477 -0.035,-0.189 0.77,-0.282 1.709,-0.775 0.778,-0.407 2.348,-2.004 2.538,-1.755 z m -6.652,-19.003 c 1.802,2.932 4.411,6.124 5.353,9.329 0.686,2.337 0.418,4.677 -0.347,6.673 -0.275,-0.04 -0.549,-1.819 -0.822,-2.729 l 0.292,-0.396 c 0.25,-0.534 -3.532,0.008 -4.103,-1.043 -0.661,-1.214 1.278,-3.201 1.078,-3.539 -0.395,-0.666 -0.428,-1.206 0.08,-1.356 1.054,-0.483 -0.723,-5.048 -1.531,-6.939 z m 5.838,2.582 c -0.529,-1.211 -0.683,-2.984 -1.164,-4.187 -0.704,-1.758 -1.689,-2.968 -2.393,-4.653 0.244,-1.577 5.08,0.286 5.194,2.235 -0.093,1.192 -0.28,3.625 -0.421,4.023 -1.341,-0.994 -1.747,-0.133 -1.216,2.582 z m -9.961,-14.012 c 0.7,-1.039 1.454,-1.306 1.944,-0.211 -0.701,-0.029 -1.349,0.013 -1.944,0.211 z m -0.171,0.38 c 1.176,-0.323 2.029,-0.57 2.618,-0.069 0.828,0.704 0.59,2.722 0.672,4.871 0.055,1.471 0.237,3.234 0.616,5.031 -0.733,-1.83 -0.943,-4.224 -1.604,-5.073 -0.301,-0.385 -0.676,-0.393 -1.056,-0.175 l -1.246,-4.585 z m -6.283,1.946 c -2.103,0.329 0.164,1.729 3.459,3.382 0.519,-0.426 -2.306,-2.255 -3.459,-3.382 z m 4.78,4.907 c 3.063,1.116 0.09,11.788 -4.858,15.838 1.264,-2.268 1.973,-6.454 2.915,-9.816 0.942,-3.361 1.768,-6.062 1.943,-6.022 z m -3.812,15.685 -3.47,3.53 c 0.573,0.126 2.397,-1.19 2.469,-0.531 -3.176,3.286 -0.738,3.017 2.503,2.239 -2.694,0.114 -3.1,-0.633 -1.216,-2.239 0.25,-0.224 -0.901,0.07 -0.968,-0.336 -0.113,-0.679 1.151,-1.855 0.682,-2.663 z m -5.401,7.782 c 1.118,0.018 2.291,0.049 3.444,-0.119 3.462,-0.503 6.751,-1.874 7.859,-3.374 l -0.536,1.708 c -0.145,-0.626 -3.784,1.721 -6.873,2.041 -1.98,0.204 -4.279,-0.263 -3.894,-0.256 z m 0.526,0.421 c 2.799,0.507 5.68,0.053 8.669,-1.668 -1.564,0.868 -3.087,1.78 -4.461,2.852 -0.509,-0.509 -3.305,-0.6 -4.208,-1.184 z m -10.069,6.929 c -0.31,0.07 -0.088,0.623 0.266,0.917 1.872,0.34 3.674,0.881 5.281,1.974 -0.802,-2.868 -2.884,-3.408 -5.547,-2.891 z m 4.544,-0.204 -1.42,-0.646 -4.309,-10.544 c 1.602,0.998 4.279,2.064 6.149,3.456 1.199,0.892 1.037,2.002 2.732,2.855 2.1,1.057 4.267,1.737 4.401,1.973 0.096,0.301 -1.768,0.871 -1.95,1.716 -0.091,0.421 0.371,0.993 1.066,1.41 0.39,0.235 0.878,0.356 1.323,0.533 -0.147,0.222 -1.164,0.432 -1.712,0.206 -1.285,-0.53 -2.171,-1.687 -1.812,-2.697 0.188,-0.53 0.861,-0.896 1.691,-1.377 -0.892,-0.338 -2.628,-0.393 -3.769,-0.931 -1.004,-0.473 -1.753,-1.419 -2.501,-1.847 -0.931,-0.532 -1.763,-0.476 -1.917,-0.187 0.676,2.027 2.537,5.505 2.028,6.08 z m -12.097,-19.2 c 3.78,3.498 5.829,7.839 6.573,12.813 -0.209,0.323 -1.089,-0.495 -2.003,-1.883 -0.479,-0.726 -0.826,-1.784 -1.394,-2.539 -0.373,-0.494 -1.395,-0.789 -1.793,-1.167 -0.663,-0.632 -0.688,-1.25 -1.131,-1.606 -0.441,-0.355 -0.825,-0.142 -0.968,0.115 -0.217,-1.854 0.119,-6.021 0.716,-5.733 z m -1.05,1.166 c -0.733,0.959 -0.677,2.513 -1.102,3.595 -0.622,1.581 -1.419,2.794 -1.34,4.185 0.128,2.272 1.616,4.165 1.782,3.768 0.259,-3.725 0.402,-7.822 0.66,-11.548 z m -3.653,2.64 c -0.732,2.035 -0.434,4.097 0.778,5.403 -0.26,-1.801 -0.519,-4.427 -0.778,-5.403 z m -2.331,2.31 c 1.466,3.178 3.364,6.293 5.557,9.362 0.233,0.014 0.207,-1.141 -0.078,-1.484 -0.894,-1.28 -1.619,-2.558 -2.098,-3.837 -1.246,-0.968 -2.343,-2.413 -3.381,-4.041 z m -0.97,-0.893 c 1.818,3.883 3.891,7.611 6.419,11.064 0.785,1.864 0.097,1.842 -2.061,-0.063 -0.912,-0.074 -2.511,-0.915 -3.651,-1.312 -0.287,-0.259 1.595,-0.718 1.383,-1.554 -0.619,-2.416 -1.741,-5.735 -2.09,-8.135 z m -3.476,6.126 -1.942,2.876 1.178,0 0.764,-2.876 z m 32.145,3.685 c 1.71,-0.905 3.322,-1.03 4.719,0.566 0.092,0.805 -0.797,2.186 -1.98,2.794 -0.92,0.473 -2.017,0.315 -2.968,0.114 0.039,-0.579 1.623,-0.595 1.646,-1.737 0.019,-0.954 -1.514,-0.97 -1.417,-1.737 z m -27.118,45.742 c -0.649,0.318 -1.165,1.414 -1.329,2.215 -1.046,5.075 -0.362,6.493 1.579,2.228 -0.067,-0.291 -0.566,0.151 -0.66,-0.063 -0.507,-1.158 1.032,-4.558 0.41,-4.38 z m 1.982,-11.048 c -0.37,-0.012 -0.776,-0.038 -1.071,0.377 -1.418,2.004 -1.866,8.254 -1.343,8.623 0.259,0.1 1.529,-2.134 2.33,-4.28 0.42,-1.124 0.869,-2.139 0.636,-2.964 -0.11,-0.389 -0.789,0.199 -0.749,0.047 0.151,-0.562 0.63,-1.395 0.197,-1.803 z m 2.135,-5.239 c -0.782,2.485 -2.194,5.098 -2.701,4.096 -0.039,-0.379 0.556,-1.828 1.265,-3.026 0.855,-1.446 1.864,-2.428 1.436,-1.07 z m 31.742,50.317 c 0.422,-2.052 0.677,-5.251 -0.731,-5.495 -0.537,-0.066 -0.531,0.611 -0.835,0.998 -0.485,-0.297 -0.772,-0.342 -0.892,-0.176 -0.153,0.213 -0.694,1.186 -0.364,2.013 0.328,0.827 1.734,1.352 2.213,2.789 0.135,0.228 0.426,0.215 0.609,-0.129 z M 158.501,129.53 c -0.003,0.275 0.053,0.583 0.122,0.865 0.054,0.219 0.098,0.422 0.247,0.58 0.338,0.361 1.143,0.543 1.891,0.206 0.03,-0.144 -0.198,-0.438 -0.634,-0.597 -0.278,-0.1 -0.725,-0.045 -0.976,-0.192 -0.385,-0.227 -0.368,-0.655 -0.65,-0.862 z m -6.625,-2.49 c 0.303,0.251 0.586,0.697 0.91,0.754 l 1.527,-0.121 c 0.407,-0.262 -2.599,-1.044 -2.437,-0.633 z m 11.257,-0.694 c 0.26,-0.071 0.871,0.412 1.055,0.836 0.184,0.425 -0.058,0.792 -0.174,0.864 -0.196,0.121 -0.82,0.136 -1.605,-0.214 -0.411,-0.184 -1.511,-0.775 -1.336,-0.869 l 2.06,-0.617 z m -8.287,-2.145 c 5.243,-0.736 9.636,-0.746 9.93,2.737 -0.284,-0.074 -1.64,-1.495 -2.837,-1.678 -0.977,-0.149 -2.095,-0.105 -3.136,-0.152 -0.875,-0.04 -1.742,0.072 -2.169,-0.204 -0.186,-0.119 1.927,-0.246 1.709,-0.267 -1.136,-0.116 -2.411,-0.137 -3.497,-0.436 z m 13.333,3.945 c 0.351,0.054 2.524,-1.343 2.651,-1.122 0.183,0.32 -1.335,2.006 -2.026,2.158 -0.084,-0.346 -0.293,-0.691 -0.625,-1.036 z m -0.96,1.006 c -1.139,-0.107 -0.683,1.162 -0.955,1.78 1.293,-0.163 2.709,-0.125 3.552,0.57 0.54,0.445 0.53,1.611 1.016,1.945 0.815,-0.303 1.412,-0.839 1.789,-1.607 -3.051,0.481 -3.761,-2.195 -5.402,-2.688 z m 5.165,8.772 c 0.043,-0.26 -0.306,-0.602 0.024,-0.818 1.034,-0.678 3.823,-0.908 3.768,-0.539 -0.554,2.261 -3.581,3.883 -5.118,2.626 -0.13,-0.159 1.5,-0.608 1.984,-0.818 0.392,-0.169 -0.455,-0.338 -0.658,-0.451 z m -14.416,-1.639 c 1.116,1.578 3.535,1.351 7.034,-0.371 0.713,-0.437 -1.083,-0.42 -1.112,-0.857 0.51,-0.987 1.657,-0.328 3.441,1.98 0.322,0.182 0.526,-0.017 0.43,-0.216 -0.948,-1.457 -1.856,-2.921 -2.991,-3.648 -1.001,-0.64 -2.299,-0.659 -2.255,-0.27 0.274,0.714 1.832,1.079 1.36,1.856 -0.01,0.216 -0.56,0.488 -1.439,0.652 -1.8,0.337 -4.791,0.542 -4.468,0.874 z m -6.745,-7.389 c 1.201,2.301 2.64,4.085 3.886,4.926 1.169,0.791 2.22,0.704 2.148,-0.185 -0.288,-0.557 -2.317,-1.041 -3.316,-1.842 -1,-0.801 -1.9,-1.779 -2.718,-2.899 z m -3.822,1.093 c 0.752,0.457 1.145,1.255 1.043,2.346 0.298,0.501 0.68,0.641 1.149,0.418 0.772,0.831 -0.214,2.019 -0.433,2.163 -0.219,0.143 -0.602,-0.318 -0.667,-1.286 -0.362,2.118 -1.474,3.851 -3.165,5.312 0.441,0.378 1.523,-0.678 3.215,-3.225 0.419,-0.571 0.671,-0.475 0.754,0.291 0.633,2.241 1.695,4.128 3.082,5.747 0.341,0.495 0.303,0.856 -0.111,1.084 -1.647,1.412 -2.718,1.844 -3.526,1.83 1.038,-1.258 1.392,-2.406 0.247,-3.308 -0.197,-0.336 0.315,-1.099 0.094,-1.246 -0.292,-0.056 -1.036,0.532 -1.175,0.396 l -0.016,-1.208 c -0.243,-0.27 -0.613,0.695 -0.881,0.641 -0.117,-0.425 -0.057,-1.439 -0.351,-1.273 -0.852,0.701 -2.809,1.587 -2.634,1.94 l 0.977,1.578 c 0.018,0.317 -0.882,0.901 -1.148,1.353 -0.322,-1.074 -0.845,-1.934 -1.266,-2.901 0.31,-0.082 0.579,-0.231 0.757,-0.526 -2.862,0.784 -4.784,0.355 -5.257,-1.849 -0.035,-0.542 0.659,-0.826 1.384,-0.754 0.077,0.13 -0.256,0.08 -0.578,0.163 -0.388,0.099 -0.63,0.432 -0.547,0.568 0.768,1.283 4.531,2.532 7.283,-1.494 0.615,-0.899 1.307,-2.433 1.552,-4.11 0.133,-0.91 0.184,-1.86 0.218,-2.65 z m -0.531,-2.501 c -0.014,-0.202 0.605,0.471 1.44,0.795 0.674,0.261 1.669,0.369 2.105,0.569 0.56,0.257 0.355,0.567 -0.953,0.521 -0.95,0.056 1.032,0.245 1.964,1.082 0.615,0.552 1.062,1.384 1.692,2.122 0.809,0.949 1.796,1.813 2.489,2.451 0.088,0.354 -1.207,0.966 -1.865,1.004 -0.784,0.045 -1.688,-0.157 -1.735,-0.036 0.426,0.831 1.574,1.17 3.216,1.172 -0.238,0.643 -3.048,3.105 -3.917,2.543 -0.754,-0.487 -1.57,-3.411 -1.441,-4.933 0.05,-0.596 0.549,-0.889 0.797,-0.87 -1.65,-2.14 -3.093,-4.28 -3.792,-6.42 z m 0.669,-0.251 c -0.409,-0.186 -0.54,-0.377 -0.665,-0.486 -0.538,-0.471 3.17,-0.496 2.796,1.011 -0.229,0.634 -1.923,0.244 -2.131,-0.525 z m -0.363,-1.13 c -0.352,-0.353 1.29,-0.507 1.632,0 0.034,0.215 -1.521,0.122 -1.632,0 z m -4.092,-1.855 c 0.618,1.231 0.894,1.976 1.285,2.311 0.833,0.715 3.329,0.3 0.678,-0.447 2,-0.092 0.956,-0.347 -0.243,-0.833 -0.72,-0.291 -1.474,-0.798 -1.72,-1.031 z m -2.677,-1.295 c 0.328,1.156 1.192,1.807 2.473,1.28 -0.009,-0.193 -0.652,-0.346 -1.241,-0.645 -0.589,-0.299 -1.123,-0.709 -1.232,-0.635 z m -0.85,-0.11 c -1.112,-0.372 -1.982,0.695 -2.245,2.235 0.312,-0.156 2.211,-1.911 2.245,-2.235 z m -1.169,13.077 c -0.072,-0.145 -0.087,-0.357 0.016,-0.497 0.063,-0.086 0.203,-0.126 0.298,-0.165 0.122,-0.05 0.258,-0.13 0.403,0.006 0.086,0.081 0.177,0.278 0.268,0.498 0.006,0.217 -0.862,0.296 -0.985,0.158 z m -0.362,-1.532 c -1.351,-0.606 -0.437,1.234 -0.501,2.002 0.228,0.214 0.323,-0.476 0.427,-1.081 0.082,-0.47 0.168,-0.759 0.074,-0.921 z m -0.508,-2.537 c -0.236,0.38 -0.407,1.012 -0.512,1.532 -0.073,-0.45 -0.105,-0.901 -0.049,-1.351 l 0.561,-0.181 z m 1.068,1.308 c 0.022,0.384 0.022,0.54 -0.422,0.353 -0.066,-0.268 0.2,-0.527 0.422,-0.353 z m 1.596,-3.804 c -0.202,1.316 -0.406,2.328 -0.072,3.72 0.084,0.497 -0.034,0.768 -0.188,0.574 -0.174,-0.216 -0.688,-0.602 -1.028,-0.65 l 1.288,-3.644 z"
           id="path30"
           inkscape:connector-curvature="0" />
      </g>
    </g>
  </g>
</svg>
