<?xml version="1.0" encoding="utf-8"?>
<!-- Generator: Adobe Illustrator 23.1.0, SVG Export Plug-In . SVG Version: 6.00 Build 0)  -->
<svg version="1.1"
	 id="svg18772" xmlns:cc="http://web.resource.org/cc/" xmlns:dc="http://purl.org/dc/elements/1.1/" xmlns:inkscape="http://www.inkscape.org/namespaces/inkscape" xmlns:rdf="http://www.w3.org/1999/02/22-rdf-syntax-ns#" xmlns:sodipodi="http://sodipodi.sourceforge.net/DTD/sodipodi-0.dtd" xmlns:svg="http://www.w3.org/2000/svg"
	 xmlns="http://www.w3.org/2000/svg" xmlns:xlink="http://www.w3.org/1999/xlink" x="0px" y="0px" viewBox="0 0 713.8 930.1"
	 style="enable-background:new 0 0 713.8 930.1;" xml:space="preserve">
<style type="text/css">
	.st0{fill:#005197;}
	.st1{fill:#FDDC00;}
</style>
<sodipodi:namedview  bordercolor="#666666" borderopacity="1.0" id="base" inkscape:current-layer="layer1" inkscape:cx="791.93856" inkscape:cy="461.72123" inkscape:document-units="px" inkscape:guide-bbox="true" inkscape:pageopacity="0.0" inkscape:pageshadow="2" inkscape:window-height="682" inkscape:window-width="1024" inkscape:window-x="-4" inkscape:window-y="-4" inkscape:zoom="0.51777018" pagecolor="#ffffff" showguides="true">
	</sodipodi:namedview>
<path id="path18845" sodipodi:nodetypes="ccccscccscc" class="st0" d="M2.5,813.7V2.5h708.8v813.4c0,0-5.8,53.7-61.8,53.7
	s-243.4,0-243.4,0c-16.4-10.9-59.1,22.4-52.1,57.9l0,0c0,0-9.7-57.9-48.3-57.9s-249.1,0-249.1,0S2.5,852.3,2.5,813.7z"/>
<path id="path2808" sodipodi:nodetypes="ccccscccscc" class="st1" d="M2.5,813.7V549.1h708.8v266.8c0,0-5.8,53.7-61.8,53.7
	s-243.4,0-243.4,0c-18.2-11.3-56.1,24.6-52.1,57.9l0,0c0,0-9.7-57.9-48.3-57.9s-249.1,0-249.1,0S2.5,858.6,2.5,813.7z"/>
<path id="path18847" class="st0" d="M319.1,652.8l-18.8,15.7c-110.4-1.3-131.8,27.6-131.8,27.6c16.7,26.5,108.2,36.6,108.2,36.6
	c1-30.5-16.3-45.3-16.3-45.3s-1.9-1.3-0.5-3.8s5.9-0.1,5.9-0.1c10.7,8.8,15.1,16.4,17.6,38.3c3.2,28.6,13.2,26.3,13.2,26.3
	c-3.1-3.8-0.1-11.7-0.1-11.7C386.2,739,454,723,464.1,718c10-5,13.2-0.6,17.6,2.5c4.4,3.1,22,1.9,26.3-6.3
	c4.4-8.2,22.6-9.4,22.6-9.4c22-1.3,45.2,8.8,45.2,8.8c-1.3-13.2-23.2-26.3-23.2-26.3c10-8.2,5.4-26,5.4-26s-16.1,19.1-46.2,27.2
	c-30.3,8.2-89.1-3.8-89.1-3.8l-1.3-11.9C353,676.6,319.1,652.8,319.1,652.8z M237.1,676.8c6,0,10.8,4.9,10.8,10.8
	c0,6-4.9,10.8-10.8,10.8s-10.8-4.8-10.8-10.8C226.3,681.6,231.1,676.8,237.1,676.8z"/>
<path id="path19737" class="st1" d="M277.7,378.9v69.8h-23.1l-9.2-9.2h-88.8c0,0,6.6,45.5,36.8,45.5h336.6l22.2-15.6v-15.1h-83.9
	v-65.1h-12.7v65.1H420v-14.2l-8.9-8.9h-25.5v-33h-19.3l-7.6,13.1h-34.9v37.4h-33.5v-69.8H277.7z"/>
<g id="path21515">
	
		<rect x="154.4" y="121.7" transform="matrix(0.9524 -0.3048 0.3048 0.9524 -60.0972 59.1465)" class="st1" width="10" height="200.7"/>
</g>
<g id="path22402">
	
		<rect x="182.6" y="120.4" transform="matrix(0.9599 -0.2804 0.2804 0.9599 -54.0378 61.4103)" class="st1" width="10" height="198.4"/>
</g>
<g id="path1883">
	
		<rect x="204.3" y="100.5" transform="matrix(0.9738 -0.2275 0.2275 0.9738 -40.0084 52.851)" class="st1" width="10" height="199"/>
</g>
<g id="path1885">
	
		<rect x="226.5" y="70.5" transform="matrix(0.9814 -0.1919 0.1919 0.9814 -29.9681 47.7427)" class="st1" width="10" height="216.2"/>
</g>
<g id="path1887">
	
		<rect x="249.6" y="60.9" transform="matrix(0.9847 -0.1743 0.1743 0.9847 -25.5822 46.9547)" class="st1" width="10" height="216.4"/>
</g>
<g id="path1889">
	
		<rect x="270.3" y="72.8" transform="matrix(0.9884 -0.1521 0.1521 0.9884 -22.9477 43.862)" class="st1" width="10" height="198.4"/>
</g>
<g id="path1891">
	
		<rect x="297.4" y="127.2" transform="matrix(0.9935 -0.1138 0.1138 0.9935 -21.2276 35.7405)" class="st1" width="10" height="153.3"/>
</g>
<g id="path1893">
	
		<rect x="320.3" y="128.9" transform="matrix(0.998 -6.382432e-02 6.382432e-02 0.998 -12.7496 21.1889)" class="st1" width="10" height="162.5"/>
</g>
<g id="path1895">
	<path class="st1" d="M358.5,284.2l-9.8-2c0,0.1-0.1,0.3-0.1,0.6c0.2-4.8-5-105.8-8.5-172.4l10-0.5
		C359.1,281.2,358.6,283.4,358.5,284.2z"/>
</g>
<g id="path1897">
	
		<rect x="371.9" y="94.7" transform="matrix(1 -2.818534e-03 2.818534e-03 1 -0.5011 1.063)" class="st1" width="10" height="167.3"/>
</g>
<g id="path1899">
	
		<rect x="401.1" y="94.2" transform="matrix(1 -2.960299e-03 2.960299e-03 1 -0.5129 1.203)" class="st1" width="10" height="159.3"/>
</g>
<g id="path1901">
	
		<rect x="367.4" y="164.4" transform="matrix(3.535018e-02 -0.9994 0.9994 3.535018e-02 249.551 597.285)" class="st1" width="133.5" height="10"/>
</g>
<g id="path1903">
	
		<rect x="393" y="170" transform="matrix(7.724161e-02 -0.997 0.997 7.724161e-02 247.2209 617.1784)" class="st1" width="128.1" height="10"/>
</g>
<g id="path1905">
	
		<rect x="416.7" y="177.3" transform="matrix(9.795646e-02 -0.9952 0.9952 9.795646e-02 248.6606 639.0153)" class="st1" width="120.3" height="10"/>
</g>
<g id="path1907">
	
		<rect x="436.7" y="167.2" transform="matrix(9.462936e-02 -0.9955 0.9955 9.462936e-02 280.3375 652.6563)" class="st1" width="124.5" height="10"/>
</g>
<g id="path1909">
	
		<rect x="463.4" y="153.1" transform="matrix(0.1216 -0.9926 0.9926 0.1216 302.9626 658.4604)" class="st1" width="120.2" height="10"/>
</g>
<g id="path1911">
	
		<rect x="484.8" y="144.1" transform="matrix(0.1529 -0.9882 0.9882 0.1529 316.8578 667.8703)" class="st1" width="126.4" height="10"/>
</g>
<g id="path1913">
	
		<rect x="507.2" y="167.7" transform="matrix(0.1611 -0.9869 0.9869 0.1611 304.1188 703.1491)" class="st1" width="117" height="10"/>
</g>
<g id="path1915">
	
		<rect x="528.5" y="181.1" transform="matrix(0.1752 -0.9845 0.9845 0.1752 299.2976 729.4762)" class="st1" width="113" height="10"/>
</g>
<g id="path1917">
	
		<rect x="550.5" y="171" transform="matrix(0.2076 -0.9782 0.9782 0.2076 310.8313 735.6834)" class="st1" width="118.1" height="10"/>
</g>
<g id="path5465">
	<path d="M349.5,928c-0.1-0.6-9-55.8-43.8-55.8H56.4l-0.2,0c-0.6-0.1-14.2-1.9-28-10C9.8,851.4,0,834.6,0,813.7V0h713.8l0,816.2
		c-0.1,0.6-1.6,14.2-10.3,27.9c-8,12.8-23.9,28-54,28H406.2c-37.6,0-47.6,21.3-51.7,55.7L349.5,928z M56.8,867.2h249
		c27.9,0,40.6,29.3,45.7,47c4.6-24.6,15.8-47,54.7-47h243.4c22.3,0,39.1-8.6,49.8-25.7c7.6-12.1,9.3-24.4,9.5-25.7V5H5v808.7
		C5,858.6,53.7,866.7,56.8,867.2z"/>
</g>
</svg>
