<?xml version="1.0" encoding="UTF-8"?>
<!DOCTYPE svg PUBLIC "-//W3C//DTD SVG 1.1//EN" "http://www.w3.org/Graphics/SVG/1.1/DTD/svg11.dtd">
<!-- Creator: CorelDRAW -->
<svg xmlns="http://www.w3.org/2000/svg" xml:space="preserve" width="150.659mm" height="182.692mm" style="shape-rendering:geometricPrecision; text-rendering:geometricPrecision; image-rendering:optimizeQuality; fill-rule:evenodd; clip-rule:evenodd"
viewBox="0 0 152.754 185.232"
 xmlns:xlink="http://www.w3.org/1999/xlink">
 <defs>
  <style type="text/css">
   <![CDATA[
    .str0 {stroke:#1F1A17;stroke-width:0.0772596}
    .fil6 {fill:#AAA9A9}
    .fil1 {fill:#FFF500}
    .fil5 {fill:white}
    .fil2 {fill:#CF9A00}
    .fil3 {fill:#009645}
    .fil0 {fill:#0A94D6}
    .fil4 {fill:#F54257}
   ]]>
  </style>
 </defs>
 <g id="Слой_x0020_1">
  <metadata id="CorelCorpID_0Corel-Layer"/>
  <path class="fil0 str0" d="M0.0385284 0.0385284l152.66 0c0,12.2673 -0.471162,103.308 0.000608343,148.103 0.126333,11.9998 -0.436385,13.4746 -2.98402,17.6562 -2.0341,3.33899 -7.07361,5.74418 -18.7291,5.84577 -10.7762,0.0938876 -23.6016,0.11518 -40.0885,0.125623 -10.3598,0.00648899 -12.1033,8.89722 -14.3132,13.3891 -1.90127,-2.56244 -3.99398,-12.4336 -10.8448,-12.9634 -8.61363,-0.665933 -30.4703,0.31573 -48.8608,-0.672726 -10.0144,-0.538181 -16.5307,-5.30779 -16.5307,-13.4673l-0.309444 -158.017z"/>
  <path class="fil1" d="M32.7249 83.584c1.96505,-0.225594 1.96444,-0.164962 3.857,-0.658024 5.61115,-1.46225 11.9641,2.25989 11.325,7.36622 -0.735791,5.88075 -3.84767,7.52956 -3.87687,11.5532 -0.0341686,4.71476 9.6903,4.90314 8.98046,3.00704 -1.13557,-3.03371 0.911399,-4.6666 2.35246,-2.909 -2.20291,-1.20847 -1.79786,1.02384 -1.02415,2.78165 1.91557,4.35188 -6.21534,4.64723 -9.54298,1.21131 -2.75752,-2.84705 -1.89408,-4.69124 0.0136877,-9.58069 2.33665,-5.98873 3.46796,-9.6684 -1.85605,-12.3624 -2.33918,-1.18373 -5.89505,-0.836776 -7.74188,-0.198218 -2.0199,0.698276 -2.4867,-0.211095 -2.4867,-0.211095z"/>
  <polygon class="fil2" points="63.8495,9.66759 65.924,9.23566 66.8754,126.475 63.7629,126.821 "/>
  <circle class="fil2" cx="65.0596" cy="8.80413" r="2.24781"/>
  <polygon class="fil1" points="29.7815,82.7068 33.8878,83.0215 36.6947,84.9864 38.2386,88.2145 37.6772,102.39 45.1159,111.794 53.2939,115.393 64.2039,117.969 96.6255,121.057 127.082,119.934 134.1,118.11 130.608,126.257 126.57,132.025 122.591,135.373 88.906,136.356 48.3441,133.689 28.9754,125.969 22.6595,109.829 25.6069,98.3199 30.2386,92.4252 27.8526,92.0041 27.4329,90.7956 27.5608,90.2121 27.3603,89.8963 27.5051,89.3685 26.8701,88.7759 27.9398,85.1903 "/>
  <path class="fil2" d="M28.6007 83.8355c-0.516585,0.56363 -1.13933,1.28705 -1.26434,2.32255 -0.0352839,0.292816 0.141643,0.545278 0.0598204,0.817208 -0.306605,1.01968 -0.565353,1.31564 -1.12087,1.87542l1.0064 0.498943c0,0 -0.0800985,0.213123 -0.420771,0.478462 0.187978,0.277506 0.372914,0.295452 0.580359,0.409009 -0.156851,0.157459 -0.473798,0.474001 -0.295351,0.726564 0.17429,0.246785 0.363992,0.068033 0.449261,0.24425 0.124609,0.25814 -0.217787,0.685907 -0.043091,0.802405 1.02191,0.68175 2.3992,0.683676 2.77648,0.358618l0.977709 -0.84215c-1.65479,0.562008 -2.70672,0.694119 -3.22219,0.131605 -0.20126,-0.219815 0.245264,-0.388326 0.0303158,-0.771176 -0.154925,-0.275985 -0.332966,-0.0321408 -0.477448,-0.223262 -0.146205,-0.19325 0.116396,-0.370481 0.339658,-0.44916 -0.286732,-0.0845597 -0.278114,-0.158169 -0.540918,-0.373827 0.298696,-0.256417 0.300927,-0.394206 0.363891,-0.611486 -0.230663,-0.131909 -0.400898,-0.240802 -0.826535,-0.433749 0.482112,-0.57894 0.569612,-0.814369 0.912312,-1.65327 0.0639774,-0.156446 0.00719873,-0.323132 -0.046741,-0.571741 0.41854,-0.207749 1.57338,-0.105243 2.11298,0.173378 -0.48414,-0.413876 -1.09157,-0.68976 -2.1657,-0.529765 0.275579,-0.570626 0.839412,-1.72141 1.24913,-2.17817l-0.434357 -0.200652z"/>
  <path class="fil1" d="M114.965 48.7145c-5.17234,-3.61984 -14.1393,-2.77029 -18.0378,1.30865 -17.8712,18.6999 8.74858,59.7284 31.8237,63.711 -10.8226,1.98644 -52.0642,-1.28594 -72.033,-24.4787 -5.71903,-6.6424 -9.27693,-15.1957 -11.7769,-23.9079 -2.43307,-8.47838 -6.63418,-15.2029 -12.5786,-16.492 -4.33779,-0.940498 -9.46379,-0.10717 -13.7368,2.94164 -1.21709,-9.30248 3.6241,-21.4044 16.9077,-22.0601 0.877332,-7.57843 11.0268,-12.7816 17.9756,-9.43094 2.95665,-7.89873 17.7795,-10.7571 24.1563,-1.42596 5.33071,-3.15578 17.1858,-0.543149 19.5643,10.4756 11.8216,-0.370075 18.1238,11.3745 17.7354,19.3588z"/>
  <path class="fil3" d="M50.3736 70.1191c-3.38523,-13.8237 -7.25398,-25.2242 -20.2407,-25.5139 -2.54865,-0.0568801 -4.92748,-0.164151 -7.88859,1.86082 1.35579,-7.6853 8.98908,-14.2584 16.1704,-12.9809 -0.00719873,-6.63429 6.71915,-13.4214 17.216,-8.7575 1.21212,-9.39312 17.1132,-11.0533 20.5866,-1.64273 4.44668,-4.07651 17.5843,-1.65692 18.1944,9.55038 9.83072,-1.0281 15.0034,5.49993 16.9782,11.2719 -6.7159,-3.65107 -13.9713,0.210385 -17.2226,3.39182 -1.03276,1.01056 -7.89741,7.83343 -7.05465,19.8526 -4.39761,-3.54005 -20.8173,-4.32897 -36.7392,2.9676z"/>
  <path class="fil4" d="M52.3124 73.6366c15.6001,-8.39949 34.3822,-4.6518 34.7232,-3.01941 1.55868,7.46275 4.50661,15.1139 8.35569,20.9952 7.60926,11.626 17.8906,18.6685 21.9661,19.9889 -9.86905,-0.820858 -33.5886,-5.97079 -47.2777,-15.2496 -8.77474,-5.94777 -14.9345,-13.6208 -17.7673,-22.7151z"/>
  <circle class="fil1" cx="54.3508" cy="45.5908" r="2.76779"/>
  <circle class="fil1" cx="67.1558" cy="39.3196" r="2.76779"/>
  <circle class="fil1" cx="80.242" cy="43.7979" r="2.76779"/>
  <path class="fil2" d="M27.9111 86.9316c0,0 0.294945,0.053737 0.543757,0.119438 -0.101897,0.155736 -0.138297,0.407083 0.074522,0.583604 0,0 0.220322,0.0144988 0.411645,-0.027781 0.203795,-0.0448146 0.37768,-0.141643 0.491541,-0.192845 -0.142961,-0.106764 -0.398363,-0.261486 -0.65843,-0.332155 -0.405562,-0.110211 -0.863036,-0.150261 -0.863036,-0.150261z"/>
  <path class="fil2" d="M30.7088 83.4177c1.60745,0.251651 2.7999,0.562717 3.6967,1.10252 -0.185849,0.0300116 -0.372103,0.0618482 -0.557648,0.0952057 -0.859893,-0.460516 -1.99131,-0.785067 -3.3538,-0.956924 1.11053,0.27345 2.07536,0.629331 2.84887,1.05264 -0.167092,0.0333575 -0.332257,0.0681344 -0.493873,0.104432 -0.677187,-0.359632 -1.47908,-0.638862 -2.38379,-0.87064 0.752622,0.321104 1.38347,0.648392 1.90959,0.983589 -0.158271,0.040252 -0.311472,0.0820249 -0.458387,0.125319 -0.696451,-0.431417 -1.48841,-0.793178 -2.282,-1.04899 0.65772,0.242932 1.38915,0.634705 2.04809,1.12067 -0.16841,0.0540411 -0.32668,0.109907 -0.471669,0.168308 -0.335501,-0.203998 -0.722914,-0.41124 -1.16934,-0.637746 -0.502187,-0.25449 -0.703042,-0.424522 -1.70955,-0.519424l-0.544873 0.879765c-0.029606,0.0559676 0.559777,-0.270713 1.29881,-0.0574884 0.667048,0.192439 1.33734,0.623653 1.86924,1.18444 0.000608343,0.0696553 0.0115585,0.10646 0.0737109,0.0794902 0.858778,0.948103 1.31899,2.23708 0.734067,3.36819 -0.821466,1.58788 -1.70123,2.26385 -2.89135,3.64833 -3.97228,4.62179 -6.79509,9.76695 -7.11731,15.0432 -0.459806,7.52926 1.73915,13.8881 7.7584,19.8382 2.18456,2.15962 5.8548,5.02076 9.61283,6.97455 2.10831,1.09613 4.24471,2.09351 6.16201,2.06766 2.15759,-0.0290991 2.13072,-0.819844 4.15194,-0.877433 2.02112,-0.0574884 2.91812,1.63066 4.98192,1.56679 2.0638,-0.063876 2.57248,-1.50889 4.60171,-1.4218 2.02933,0.0870944 2.20707,1.49318 4.52293,1.44988 2.31596,-0.0431924 1.5024,0.868917 3.5947,0.865672 2.09229,-0.00314311 3.75915,-0.899131 5.67685,-0.899131 1.9178,0 2.89247,-1.19215 4.64642,-1.28066 1.75406,-0.0885139 2.74464,1.37374 4.54057,1.46459 1.79603,0.0907445 3.40774,0.831402 5.26825,0.842657 1.86052,0.0113557 2.40873,-0.85746 4.04913,-0.849247 1.6403,0.00831402 3.16876,-1.2616 5.272,-1.2544 2.10324,0.00719873 1.67933,1.2252 3.99955,1.21831 2.32012,-0.00679316 2.45781,0.353346 4.74457,0.302245 2.28686,-0.0512022 2.50181,-0.233705 4.72247,-0.263108 2.02578,-0.0266657 2.39251,-1.46601 4.36233,-1.44735 0.830895,0.00770568 2.6105,1.36421 4.56602,1.356 2.01879,-0.00841541 2.80679,-1.93717 6.94931,-1.42535 6.44823,-3.50913 8.39301,-13.2243 10.0029,-16.9495l1.18799 -0.404852c0.000811124,0 -1.30956,-2.18223 -0.594757,-4.92413 0.539702,-2.0705 1.95521,-2.53507 2.97105,-1.94599 -0.502796,-0.130997 -1.8081,0.598914 -1.39797,1.94842 0.410125,1.34951 3.11938,1.37313 3.47333,-0.602969 0.60155,-3.35856 -3.37417,-4.52911 -5.44092,-3.30807 -2.72416,1.60937 -2.83011,4.5503 -3.47019,6.51272 -2.25766,1.13233 -17.4499,3.17839 -28.4988,3.3979 -1.98147,-0.0919612 -12.8524,0.0238268 -24.0797,-1.11175 -16.6024,-1.67933 -34.9625,-3.61194 -40.4117,-16.878 -2.46754,-6.00688 1.18779,-12.4362 -2.23982,-17.3127 -0.0268685,-0.0383256 -0.0548523,-0.076854 -0.0821263,-0.114368 1.93321,-0.144887 4.65038,-0.0616454 5.3885,1.40963 0.808082,1.61028 -1.24964,5.20762 -1.47107,6.15248 -0.575391,2.45527 1.36472,4.18682 3.7695,4.95891 2.46612,0.791759 4.68526,0.607633 5.06912,-1.00823 0.279838,-1.17846 -0.106866,-1.43468 0.00740151,-2.46389 0.130997,-1.18069 3.26863,-1.1737 4.75917,-1.03935 -1.29962,-0.629432 -6.37898,-0.643424 -5.90488,1.52775 0.143366,0.656706 0.0598204,1.63178 -1.12838,2.0197 -3.1644,1.03317 -5.73303,-0.774117 -5.68912,-3.95393 0.0344728,-2.51104 2.78925,-3.71383 1.33714,-6.41903 -0.874088,-1.62823 -4.58579,-1.95826 -6.06386,-1.84703 -0.166585,0.0125724 -0.361559,0.0289977 -0.578027,0.0499855 -1.55584,-1.6768 -3.62015,-2.08307 -6.05352,-1.77981 0.0567787,-0.00679316 0.121364,0.0268685 -0.0454229,0.83708 1.2611,-0.398667 3.66385,0.402318 4.58599,1.11438l0.00547509 0.0042584c-0.157054,0.0214948 -0.316643,0.044409 -0.478158,0.0683372 -1.06845,-0.728288 -2.40904,-1.00387 -4.15843,-1.03094zm1.27904 2.42262c0.133531,-0.0482619 0.264933,-0.0930765 0.393395,-0.135356 0.489919,0.4594 0.89031,0.969902 1.11377,1.49815 0.458285,1.08326 0.288152,2.22765 -0.332662,3.35197 -1.0863,1.96708 -2.49613,3.71586 -3.64621,5.50946 -1.71269,2.67042 -2.99203,5.36315 -3.58699,8.09056 -0.654679,3.00055 -0.449363,6.78363 0.585429,9.83731 1.03489,3.05358 2.76411,5.6513 4.8852,7.64008 9.63595,9.03582 23.1968,9.1803 31.6699,10.0928 2.33989,0.251955 22.3731,1.50433 38.9051,1.82057 10.7571,0.205823 16.6338,-0.650826 19.0045,-0.851478 1.42322,-0.554403 2.08428,-0.851984 3.40662,-1.83233 -1.45232,0.237558 -3.57523,0.49732 -5.51595,0.65042 -4.56835,0.360342 -11.0644,0.725145 -17.854,0.624464 -15.594,-0.230968 -33.1736,-1.70072 -36.6835,-2.00976 -5.54545,-0.488398 -11.1364,-0.965643 -16.4502,-2.38187 -9.33066,-2.48691 -16.5447,-7.81376 -18.8327,-12.9011 -2.30957,-5.13502 -2.06279,-7.81467 -1.42565,-11.4592 0.265947,-1.52106 0.87429,-3.74141 1.89986,-5.5126 2.23353,-3.8575 1.46489,-2.3189 3.03208,-4.82994 1.39909,-2.24174 2.10406,-4.12893 1.52319,-5.72339 -0.220119,-0.60449 -0.719873,-1.19205 -1.37739,-1.71532 0.14874,-0.0451188 0.294032,-0.0869931 0.436081,-0.125116 1.22186,1.00762 1.60846,2.08418 1.55077,3.25099 -0.160603,3.24085 -2.04616,5.32878 -3.32672,7.47623 -2.67154,4.48035 -3.35298,7.43375 -2.72152,12.5922 0.347364,2.8364 1.60745,5.13056 3.21895,7.38498 1.6116,2.25452 3.7116,4.60698 6.82642,6.19851 3.14899,1.60927 6.60579,3.15517 10.0415,3.97826 5.57749,1.33612 11.0915,1.87887 15.8074,2.37304 1.07089,0.112239 19.4811,1.49734 35.8096,1.90057 4.65342,0.114977 9.00459,0.156648 12.7346,-0.00679316 6.35384,-0.27852 11.0686,-0.908256 12.2515,-1.00904l1.40162 -1.62417c-5.00261,0.510603 -13.6007,1.5382 -26.9377,1.31453 -10.3381,-0.173378 -22.3656,-0.73133 -33.9006,-1.98289 -6.1252,-0.664513 -11.5985,-1.27113 -17.002,-2.8434 -1.93899,-0.564137 -3.97116,-1.26596 -5.98701,-2.13255 -2.43266,-1.04574 -4.84251,-2.36351 -7.0365,-4.37652 -1.82351,-1.67294 -3.74364,-4.63943 -5.07845,-7.46802 -1.77068,-3.75267 -1.05831,-9.14583 0.961486,-12.7596 1.05162,-1.88181 3.32683,-5.73759 3.48723,-8.56517 0.101391,-1.78751 -0.476231,-2.98798 -1.56273,-3.83439 0.168207,-0.0383256 0.331446,-0.0720887 0.490223,-0.10281 0.106257,0.0817208 0.206532,0.165469 0.299812,0.25084 1.46012,1.3345 1.58747,3.1062 1.07271,5.0746 -0.465687,1.78123 -0.774218,2.62064 -1.39939,4.00351 -0.305287,0.675565 -0.671814,1.57804 -1.19418,2.59803 -3.4854,6.80574 -1.19164,13.9844 3.96011,19.0959 3.63252,3.60433 7.4814,5.28001 12.7426,6.78485 4.95718,1.41795 10.2199,2.15384 14.6521,2.64508 3.0847,0.341686 20.035,1.89448 35.2747,2.21396 14.3162,0.300116 27.2887,-1.31088 27.8417,-1.27509l1.14176 -1.81986c-0.786182,0.0250435 -15.4387,2.33137 -29.4785,1.64547 -11.2357,-0.54903 -22.8258,-0.925695 -34.3157,-2.42678 -7.66948,-1.00204 -15.1875,-2.13924 -21.9612,-5.98559 -2.06056,-1.17005 -3.72245,-2.46298 -5.35504,-4.20314 -0.97923,-1.04402 -2.12291,-2.16256 -2.84765,-3.75571 -1.79137,-3.93649 -2.23779,-7.68723 -1.22622,-11.6493 0.360342,-1.41095 1.47249,-3.44413 2.17047,-5.42936 0.886052,-2.52097 1.51782,-5.87517 -0.885646,-7.85503 0.168004,-0.0274768 0.330939,-0.0516078 0.489412,-0.0742179 2.14948,1.99516 1.81043,5.20468 1.08751,7.50939 -1.0498,3.3467 -2.23779,6.54608 -2.3043,9.58698 -0.0969293,4.44466 2.2166,7.93665 4.8853,10.5069 5.3961,5.19687 11.6805,7.51182 18.7614,8.78082 5.00403,0.896799 10.2036,1.51102 15.2774,1.89712 6.18604,0.470756 24.3749,2.30329 40.3879,1.56638 7.39705,-0.340267 15.4269,-1.38043 15.8124,-1.42464 0.546191,-0.582387 0.906533,-1.19063 1.35965,-1.96241 -7.18707,1.22601 -14.9462,1.90969 -22.2454,1.99182 -16.9554,0.190918 -39.1675,-1.86305 -48.3184,-3.56154 -8.26201,-1.53373 -12.7488,-2.69567 -18.9998,-8.10201 -3.5217,-3.04608 -5.58226,-7.08872 -5.61409,-10.5967 -0.0433951,-4.79679 2.73633,-10.405 1.96241,-13.4333 -0.23918,-0.93624 -0.841643,-2.02355 -1.63857,-2.81551 0.152694,-0.0204809 0.30113,-0.0400493 0.446118,-0.0603274 1.57581,1.58473 2.08753,3.69264 1.7574,5.92435 -0.782532,5.29046 -1.70306,7.25054 -1.24528,11.1811 0.419047,3.59693 3.53092,7.64484 6.7886,10.0622 4.4552,3.30614 9.29285,4.73575 12.201,5.45755 7.11123,1.76531 15.9425,2.54318 23.3438,3.07913 8.25065,0.597393 16.7765,1.52836 24.7357,1.52441 11.4644,-0.00577926 25.2961,-1.51944 29.0287,-2.32549 -1.80009,5.05574 -4.65099,10.468 -8.27367,13.0133 -3.9302,2.76157 -14.2356,2.02102 -17.6343,2.06249 -9.13569,0.203998 -22.0094,-0.209473 -36.7813,-1.18515 -15.544,-1.02658 -27.8718,-2.31758 -36.3947,-8.15555 -4.39264,-3.00886 -7.28592,-6.79124 -8.81256,-12.5114 -0.465991,-1.74686 -0.847118,-3.99509 -0.000304172,-8.64912 0.643019,-3.53285 3.11735,-6.94495 5.27322,-10.1961 1.57307,-2.37234 3.95291,-4.74325 2.89034,-7.22367 -0.199841,-0.466295 -0.48779,-0.837688 -0.896191,-1.1814z"/>
  <path class="fil5 str0" d="M65.4628 139.98l0.00131808 0.000405562 0.00162225 -0.000506953 -0.00294032 0.000101391zm-65.3119 -2.41482c3.39962,0.0432937 6.39257,-2.81795 10.6083,-2.85607 4.21572,-0.0381228 7.16395,2.9458 10.8478,2.99254 3.74709,0.0474508 6.83352,-3.04435 10.9606,-3.0478 4.1271,-0.00344728 7.44835,2.91214 10.848,2.95543 3.39962,0.0432937 6.60488,-2.92948 10.9041,-2.96871 4.29926,-0.0392381 7.1311,2.94418 10.9043,2.99203 3.74719,0.0474508 6.83352,-3.04435 10.9606,-3.0478 4.1271,-0.00344728 7.44835,2.91214 10.848,2.95543 3.39962,0.0432937 6.90044,-2.99741 10.9607,-2.96912 4.06028,0.028288 7.226,3.10255 10.848,3.14828 3.74709,0.0473494 6.83352,-3.04435 10.9606,-3.0478 4.1271,-0.00344728 7.44835,2.91234 10.848,2.95543 3.59277,0.0456257 6.79164,-2.9895 11.007,-3.00258 4.21531,-0.0130794 7.49377,2.80254 10.8934,2.84583l0.00659038 0.928636 0.00577926 0.000101391 0.00486674 0.68834 0.130895 0.0333575c-0.062051,11.087 -0.000101391,2.67407 -0.000101391,8.9538 -0.000101391,12.0003 -0.568091,13.486 -3.11553,17.6676 -2.0341,3.33889 -7.07361,5.74418 -18.7291,5.84577 -10.7762,0.0938876 -23.6016,0.11518 -40.0885,0.125623 -10.3598,0.00648899 -12.1033,8.89722 -14.3132,13.3891 -1.90127,-2.56244 -3.99398,-12.4336 -10.8448,-12.9634 -8.61363,-0.665933 -30.4703,0.31573 -48.8608,-0.672726 -10.0144,-0.538181 -16.5307,-5.30779 -16.5307,-13.4673l-0.0488702 -17.9752 -0.000608343 0 -0.00182503 -0.928838 -0.0105446 0.000101391 -0.00294032 -1.53008z"/>
  <path class="fil6" d="M0.163239 137.682c3.39962,0.0432937 6.39257,-2.81795 10.6083,-2.85607 4.21572,-0.0381228 7.16395,2.9458 10.8478,2.99254 3.74709,0.0474508 6.83352,-3.04435 10.9606,-3.0478 4.1271,-0.00344728 7.44835,2.91214 10.848,2.95543 3.39962,0.0432937 6.60488,-2.92948 10.9041,-2.96871 4.29926,-0.0392381 7.1311,2.94418 10.9043,2.99203 3.74719,0.0474508 6.83352,-3.04435 10.9606,-3.0478 4.1271,-0.00344728 7.44835,2.91214 10.848,2.95543 3.39962,0.0432937 6.90044,-2.99741 10.9607,-2.96912 4.06028,0.028288 7.226,3.10255 10.848,3.14828 3.74709,0.0473494 6.83352,-3.04435 10.9606,-3.0478 4.1271,-0.00344728 7.44835,2.91234 10.848,2.95543 3.59277,0.0456257 6.79164,-2.9895 11.007,-3.00258 4.21531,-0.0130794 7.49377,2.80254 10.8934,2.84583l0.0108488 1.5314c-3.81188,0 -6.79894,-2.8143 -10.9507,-2.83508 -4.15174,-0.0207851 -7.04005,2.88294 -10.9605,2.88294 -3.81188,0 -6.41609,-2.86864 -10.848,-2.88933 -3.83175,-0.0178447 -7.06398,2.98169 -10.9606,2.98169 -3.81188,0 -6.82176,-3.09738 -10.848,-3.11806 -4.02622,-0.0206837 -7.11325,2.93891 -10.9607,2.93891 -3.81178,0 -6.41609,-2.86864 -10.848,-2.88933 -3.83175,-0.0178447 -7.06398,2.98169 -10.9606,2.98169 -3.81188,0 -6.81942,-2.87919 -10.8478,-2.90028 -4.02835,-0.0210892 -7.37271,2.87696 -10.9607,2.87696 -3.81188,0 -6.41609,-2.86864 -10.848,-2.88933 -3.83175,-0.0178447 -7.06398,2.98169 -10.9606,2.98169 -3.81188,0 -6.86688,-2.81369 -10.8478,-2.83447 -3.9809,-0.0207851 -7.11265,2.80558 -10.6053,2.80558l-0.00294032 -1.53008z"/>
  <path class="fil6" d="M83.003 142.805c0,0 7.30143,-3.04689 12.1773,-2.69577 5.31905,0.383053 9.74363,3.55212 15.9392,2.98534 -2.12961,1.73844 -3.42882,3.50051 -8.17025,2.79807 -4.74143,-0.702433 -6.73507,-3.65219 -12.0911,-3.9156 -5.35606,-0.263413 -7.85513,0.827955 -7.85513,0.827955z"/>
  <path class="fil2" d="M97.3511 116.788l1.28046 -0.595568c0,0 0.64018,9.89287 2.18821,12.9226 1.54793,3.02975 10.6244,13.2264 14.3001,17.8596l-6.67657 -0.573668c-2.56346,-4.43817 -6.51373,-10.417 -8.41166,-15.538 -1.21689,-3.28302 -2.35196,-10.3862 -2.68056,-14.075z"/>
  <path class="fil2" d="M27.7577 85.026c0.824508,0.0293019 2.24347,0.205214 3.34051,1.31889l0.0354867 -3.96366c-0.792671,0.130895 -1.33491,0.115484 -2.15242,0.272436 -0.479476,0.619293 -0.968786,1.69099 -1.22358,2.37234z"/>
  <path class="fil2" d="M101.317 116.95l1.21729 -0.756475c0,0 2.3405,11.2112 4.21115,14.053 1.87065,2.84187 11.4469,11.4198 15.6082,15.6225l-6.24637 -0.306909c-3.03431,-4.13065 -7.51263,-8.60643 -9.95361,-13.4917 -1.5314,-3.06504 -2.94925,-7.53686 -4.83663,-15.1204z"/>
  <path class="fil2" d="M105.547 116.994l1.36766 -0.632981c0,0 3.94044,11.8619 6.17276,14.4295 2.23231,2.56751 12.9978,9.55048 17.6815,13.1618l-7.48536 0.336211c-3.55718,-3.6899 -7.46417,-7.09876 -10.5398,-11.6116 -1.97205,-2.89328 -5.98904,-12.1819 -7.1967,-15.6829z"/>
  <path class="fil2" d="M93.0222 116.391l1.50403 -0.413673c0.000101391,0 -0.482315,8.93139 0.612196,12.1528 1.09461,3.22148 8.70002,14.6285 11.6686,19.7438l-6.14457 -0.964021c-1.8961,-4.7617 -5.41709,-11.8226 -6.55611,-17.1638 -0.730214,-3.42436 -1.29131,-9.65745 -1.08417,-13.3551z"/>
  <path class="fil2" d="M88.3634 116.233l1.45181 -0.252564c0.000202781,0 -1.32132,8.29729 -0.573161,11.6164 0.748059,3.31902 6.93977,15.2884 9.35135,20.6885l-5.90448 -1.26282c-1.38246,-4.93539 -4.0757,-12.4963 -4.64399,-17.9279 -0.364296,-3.48216 -0.278216,-9.20666 0.318468,-12.8617z"/>
  <path class="fil2" d="M82.6738 115.64l1.57176 -0.135052c0.000202781,0.000101391 -1.97255,7.27578 -1.54975,10.6518 0.422798,3.3759 5.77713,16.476 7.65367,22.0846l-5.74854 -1.58433c-0.897407,-5.04621 -3.26842,-13.5895 -3.30736,-19.0506 -0.0250435,-3.50112 0.432025,-8.38641 1.38023,-11.9664z"/>
  <path class="fil2" d="M77.1099 115.169l1.48953 0.0423812c-0.816295,2.65319 -2.36889,7.09277 -2.15262,10.4882 0.216266,3.39547 4.49241,16.3596 6.02381,22.0721l-5.87751 -2.08885c-0.588268,-5.09143 -1.85788,-13.239 -1.56425,-18.6925 0.188282,-3.49645 0.916469,-8.30581 2.08104,-11.8214z"/>
  <path class="fil6" d="M5.96673 148.565c0,0 7.30154,-3.04689 12.1773,-2.69577 5.31905,0.382952 10.2266,2.93749 16.4221,2.37071 -2.12961,1.73844 -4.08736,3.3249 -8.96049,2.84198 -4.87313,-0.482923 -6.42775,-3.08146 -11.7838,-3.34487 -5.35606,-0.263413 -7.85513,0.827955 -7.85513,0.827955z"/>
  <path class="fil6" d="M8.07139 165.903c1.22267,-0.785878 8.53272,-3.5075 12.2064,-2.47373 4.42407,1.24497 9.48579,3.42112 12.8366,2.51377 -1.84095,1.35539 -2.93718,2.27632 -6.70648,2.21883 -3.76929,-0.0574884 -6.58734,-2.54318 -11.2697,-2.81916 -4.68232,-0.276086 -7.06692,0.560284 -7.06692,0.560284z"/>
  <path class="fil6" d="M39.7916 142.537c0,0 6.60691,-3.04689 11.0189,-2.69577 4.81301,0.383053 8.68501,2.84968 14.4229,2.98534 -2.1731,1.33582 -2.79534,2.35905 -7.17348,2.05174 -4.37814,-0.307315 -6.31389,-2.90585 -11.1605,-3.16926 -4.84657,-0.263413 -7.10788,0.827955 -7.10788,0.827955z"/>
  <path class="fil6" d="M59.3917 166.496c2.13691,-1.5677 7.9768,-3.34761 12.1604,-2.82748 4.79496,0.596075 8.72891,3.46431 15.6083,3.11705 -2.06664,1.45303 -4.28801,2.84198 -8.57835,2.13954 -4.29044,-0.702433 -6.09438,-3.12536 -10.9409,-3.38878 -4.89037,-0.263413 -8.24933,0.959661 -8.24933,0.959661z"/>
  <path class="fil6" d="M119.169 147.265c0,0 7.30143,-3.04689 12.1773,-2.69577 5.31905,0.383053 9.74363,3.55212 15.9392,2.98534 -2.12961,1.73844 -3.42882,3.50051 -8.17025,2.79807 -4.74143,-0.702433 -6.73507,-3.65219 -12.0911,-3.9156 -5.35606,-0.263413 -7.85513,0.827955 -7.85513,0.827955z"/>
  <path class="fil6" d="M52.6308 152.979c5.75128,-3.85101 14.7523,-4.89473 18.9213,-4.24755 4.97047,0.771582 10.6606,4.24755 16.0912,4.24755 -3.48479,1.23392 -7.61199,1.60116 -11.9024,0.898725 -4.29034,-0.702433 -7.76104,-2.7415 -12.6076,-3.00491 -4.89037,-0.263413 -10.5024,2.10619 -10.5024,2.10619z"/>
  <path class="fil6" d="M86.4158 158.315c3.3908,0.0993627 7.37961,-1.00285 11.1059,-2.333 3.9666,-1.41592 7.71693,-3.35491 12.4603,-3.00349 6.93258,0.513746 11.8662,5.86676 14.969,4.59248 -0.621118,1.03946 -2.23688,1.68623 -3.95251,1.43042 -4.85661,-0.724131 -9.62896,-3.63059 -14.6857,-3.4564 -4.60506,0.158575 -13.7056,3.62319 -19.897,2.76999z"/>
  <path class="fil6" d="M65.1509 158.431c-3.3908,0.0993627 -7.37981,-1.00295 -11.1059,-2.333 -3.9665,-1.41572 -7.70608,-3.01485 -12.4603,-3.11958 -5.2642,-0.115889 -10.9085,3.52433 -11.948,4.26955 1.92551,-0.428476 8.64435,-1.61505 12.9111,-1.28685 6.05362,0.465788 16.4117,3.32307 22.6031,2.46987z"/>
  <path class="fil6" d="M118.665 164.809c1.22267,-0.785878 8.53272,-3.5075 12.2064,-2.47373 4.42407,1.24497 9.48579,3.42112 12.8366,2.51377 -1.84095,1.35539 -2.93718,2.27632 -6.70648,2.21883 -3.76929,-0.0574884 -6.58734,-2.54318 -11.2697,-2.81916 -4.68232,-0.276086 -7.06692,0.560284 -7.06692,0.560284z"/>
 </g>
</svg>
