<?xml version="1.0" encoding="UTF-8"?>
<!DOCTYPE svg PUBLIC "-//W3C//DTD SVG 1.1//EN" "http://www.w3.org/Graphics/SVG/1.1/DTD/svg11.dtd">
<!-- Creator: CorelDRAW -->
<svg xmlns="http://www.w3.org/2000/svg" xml:space="preserve" width="97.1376mm" height="121.742mm" style="shape-rendering:geometricPrecision; text-rendering:geometricPrecision; image-rendering:optimizeQuality; fill-rule:evenodd; clip-rule:evenodd"
viewBox="0 0 97.1376 121.742"
 xmlns:xlink="http://www.w3.org/1999/xlink"
 sodipodi:version="0.32"
 sodipodi:docbase="C:\Documents and Settings\Josh Baumgartner\My Documents\My Pictures\Symbols"
 inkscape:output_extension="org.inkscape.output.svg.inkscape"
 enable-background="new 0 0 1142.133 900.74"
 xmlns:dc="http://purl.org/dc/elements/1.1/"
 xmlns:cc="http://creativecommons.org/ns#"
 xmlns:rdf="http://www.w3.org/1999/02/22-rdf-syntax-ns#"
 xmlns:svg="http://www.w3.org/2000/svg"
 xmlns:sodipodi="http://sodipodi.sourceforge.net/DTD/sodipodi-0.dtd"
 xmlns:inkscape="http://www.inkscape.org/namespaces/inkscape"
 version="1.1"
 inkscape:version="0.48+devel r9718"
 sodipodi:docname="Coat of Arms of Edward IV of England (1461-1483).svg"
 inkscape:export-filename="/Users/Soda/Desktop/UK of the GB and NI.png"
 inkscape:export-xdpi="143.23364"
 inkscape:export-ydpi="143.23364">
 <defs>
  <style type="text/css">
   <![CDATA[
    .str5 {stroke:#BF994C;stroke-width:0.0762}
    .str4 {stroke:#992E2C;stroke-width:0.1763;stroke-linecap:round;stroke-linejoin:round}
    .str3 {stroke:#992E2C;stroke-width:0.2822}
    .str0 {stroke:#838281;stroke-width:0.3527}
    .str1 {stroke:#013B1F;stroke-width:0.3527}
    .str2 {stroke:#AD873B;stroke-width:0.5292;stroke-linecap:round;stroke-linejoin:round}
    .fil2 {fill:none}
    .fil3 {fill:#AD873B}
    .fil8 {fill:#CCA75E}
    .fil6 {fill:white}
    .fil1 {fill:#005B37}
    .fil7 {fill:#682B29}
    .fil4 {fill:#7D211E}
    .fil5 {fill:#992E2C}
    .fil0 {fill:#EFEEEE}
   ]]>
  </style>
 </defs>
 <g id="Layer_x0020_1">
  <metadata id="CorelCorpID_0Corel-Layer"/>
  <path class="fil0 str0" d="M96.7826 0.4186l0 100.252c0,5.351 -4.3218,9.7018 -9.6365,9.7018l-27.3043 0c-5.938,0 -10.8009,4.6344 -11.2145,10.5063l-0.057 0c-0.4136,-5.8719 -5.2765,-10.5063 -11.2143,-10.5063l-27.3044 0c-5.3147,0 -9.6368,-4.3508 -9.6368,-9.7018l0 -100.252 96.3678 0z"/>
  <path class="fil1 str1" d="M48.5988 75.6076c14.3226,0 31.9887,5.6594 48.1838,5.6594l0 19.4036c0,5.351 -4.3218,9.7018 -9.6365,9.7018l-27.3043 0c-5.938,0 -10.8009,4.6344 -11.2145,10.5063l-0.057 0c-0.4136,-5.8719 -5.2765,-10.5063 -11.2146,-10.5063l-27.3041 0c-5.3147,0 -9.6365,-4.3508 -9.6365,-9.7018l0 -19.4036c15.8056,0 33.8611,-5.6594 48.1837,-5.6594z"/>
  <g id="_129430344">
   <path id="_132058496" class="fil2 str2" d="M9.7664 89.7543c0.0445,-0.0916 0.0697,-0.1945 0.0697,-0.303 0,-0.384 -0.3114,-0.6953 -0.6956,-0.6953 -0.3838,0 -0.6952,0.3113 -0.6952,0.6953"/>
   <polygon id="_130237632" class="fil3 str2" points="8.4453,89.4513 8.4453,91.1052 8.4453,91.9682 "/>
   <path id="_128738608" class="fil2 str2" d="M8.4453 89.4513c0,-0.384 -0.3111,-0.6953 -0.6953,-0.6953 -0.3839,0 -0.6951,0.3113 -0.6951,0.6953 0,0.1085 0.025,0.2114 0.0693,0.303"/>
   <path id="_112166592" class="fil2 str2" d="M18.6896 89.7543c0.0441,-0.0916 0.0695,-0.1945 0.0695,-0.303 0,-0.384 -0.3114,-0.6953 -0.6953,-0.6953 -0.3842,0 -0.6955,0.3113 -0.6955,0.6953"/>
   <polygon id="_131629408" class="fil3 str2" points="17.3683,89.4513 17.3683,91.1052 17.3683,91.9682 "/>
   <path id="_131644640" class="fil2 str2" d="M17.3683 89.4513c0,-0.384 -0.3111,-0.6953 -0.6953,-0.6953 -0.3839,0 -0.6952,0.3113 -0.6952,0.6953 0,0.1085 0.025,0.2114 0.0694,0.303"/>
   <path id="_113595912" class="fil2 str2" d="M27.6126 89.7543c0.0441,-0.0916 0.0693,-0.1945 0.0693,-0.303 0,-0.384 -0.3113,-0.6953 -0.6951,-0.6953 -0.3841,0 -0.6953,0.3113 -0.6953,0.6953"/>
   <polygon id="_128948448" class="fil3 str2" points="26.2915,89.4513 26.2915,91.1052 26.2915,91.9682 "/>
   <path id="_112783336" class="fil2 str2" d="M26.2915 89.4513c0,-0.384 -0.3114,-0.6953 -0.6955,-0.6953 -0.3839,0 -0.6953,0.3113 -0.6953,0.6953 0,0.1085 0.0249,0.2114 0.0695,0.303"/>
   <path id="_112125904" class="fil2 str2" d="M36.5355 89.7543c0.0442,-0.0916 0.0694,-0.1945 0.0694,-0.303 0,-0.384 -0.3113,-0.6953 -0.6953,-0.6953 -0.3842,0 -0.6951,0.3113 -0.6951,0.6953"/>
   <polygon id="_113596680" class="fil3 str2" points="35.2145,89.4513 35.2145,91.1052 35.2145,91.9682 "/>
   <path id="_120125608" class="fil2 str2" d="M35.2145 89.4513c0,-0.384 -0.3114,-0.6953 -0.6953,-0.6953 -0.3841,0 -0.6955,0.3113 -0.6955,0.6953 0,0.1085 0.0249,0.2114 0.0698,0.303"/>
   <path id="_113593848" class="fil2 str2" d="M45.4584 89.7543c0.0443,-0.0916 0.0695,-0.1945 0.0695,-0.303 0,-0.384 -0.3113,-0.6953 -0.6953,-0.6953 -0.3842,0 -0.6953,0.3113 -0.6953,0.6953"/>
   <polygon id="_112861136" class="fil3 str2" points="44.1373,89.4513 44.1373,91.1052 44.1373,91.9682 "/>
   <path id="_132057896" class="fil2 str2" d="M44.1373 89.4513c0,-0.384 -0.3112,-0.6953 -0.6951,-0.6953 -0.3841,0 -0.6953,0.3113 -0.6953,0.6953 0,0.1085 0.0247,0.2114 0.0695,0.303"/>
   <path id="_131566848" class="fil2 str2" d="M54.3813 89.7543c0.0442,-0.0916 0.0695,-0.1945 0.0695,-0.303 0,-0.384 -0.3113,-0.6953 -0.6953,-0.6953 -0.3843,0 -0.6952,0.3113 -0.6952,0.6953"/>
   <polygon id="_132142600" class="fil3 str2" points="53.0603,89.4513 53.0603,91.1052 53.0603,91.9682 "/>
   <path id="_131328088" class="fil2 str2" d="M53.0603 89.4513c0,-0.384 -0.3113,-0.6953 -0.6953,-0.6953 -0.3841,0 -0.6953,0.3113 -0.6953,0.6953 0,0.1085 0.0249,0.2114 0.0694,0.303"/>
   <path id="_130361808" class="fil2 str2" d="M63.3043 89.7543c0.0442,-0.0916 0.0694,-0.1945 0.0694,-0.303 0,-0.384 -0.3109,-0.6953 -0.6953,-0.6953 -0.3839,0 -0.6952,0.3113 -0.6952,0.6953"/>
   <polygon id="_112801616" class="fil3 str2" points="61.9832,89.4513 61.9832,91.1052 61.9832,91.9682 "/>
   <path id="_131012248" class="fil2 str2" d="M61.9832 89.4513c0,-0.384 -0.3113,-0.6953 -0.6953,-0.6953 -0.3839,0 -0.6952,0.3113 -0.6952,0.6953 0,0.1085 0.0249,0.2114 0.0695,0.303"/>
   <path id="_131925936" class="fil2 str2" d="M72.2272 89.7543c0.0443,-0.0916 0.0695,-0.1945 0.0695,-0.303 0,-0.384 -0.3113,-0.6953 -0.6953,-0.6953 -0.384,0 -0.6952,0.3113 -0.6952,0.6953"/>
   <polygon id="_132214800" class="fil3 str2" points="70.9062,89.4513 70.9062,91.1052 70.9062,91.9682 "/>
   <path id="_111989696" class="fil2 str2" d="M70.9062 89.4513c0,-0.384 -0.3113,-0.6953 -0.6953,-0.6953 -0.384,0 -0.6952,0.3113 -0.6952,0.6953 0,0.1085 0.0249,0.2114 0.0694,0.303"/>
   <path id="_132005864" class="fil2 str2" d="M81.1502 89.7543c0.0443,-0.0916 0.0694,-0.1945 0.0694,-0.303 0,-0.384 -0.3112,-0.6953 -0.6952,-0.6953 -0.384,0 -0.6953,0.3113 -0.6953,0.6953"/>
   <polygon id="_131557864" class="fil3 str2" points="79.8291,89.4513 79.8291,91.1052 79.8291,91.9682 "/>
   <path id="_41131992" class="fil2 str2" d="M79.8291 89.4513c0,-0.384 -0.3109,-0.6953 -0.6952,-0.6953 -0.384,0 -0.6953,0.3113 -0.6953,0.6953 0,0.1085 0.0249,0.2114 0.0695,0.303"/>
   <path id="_39992680" class="fil2 str2" d="M90.0732 89.7543c0.0443,-0.0916 0.0694,-0.1945 0.0694,-0.303 0,-0.384 -0.3112,-0.6953 -0.6952,-0.6953 -0.384,0 -0.6953,0.3113 -0.6953,0.6953"/>
   <polygon id="_112603696" class="fil3 str2" points="88.7521,89.4513 88.7521,91.1052 88.7521,91.9682 "/>
   <path id="_128847832" class="fil2 str2" d="M88.7521 89.4513c0,-0.384 -0.3112,-0.6953 -0.6952,-0.6953 -0.3841,0 -0.6953,0.3113 -0.6953,0.6953 0,0.1085 0.0249,0.2114 0.0694,0.303"/>
   <path id="_41313896" class="fil2 str2" d="M9.7664 104.209c0.0445,-0.0916 0.0697,-0.1944 0.0697,-0.3029 0,-0.3843 -0.3114,-0.6953 -0.6956,-0.6953 -0.3838,0 -0.6952,0.311 -0.6952,0.6953"/>
   <polygon id="_130179624" class="fil3 str2" points="8.4453,103.907 8.4453,105.56 8.4453,106.423 "/>
   <path id="_41401768" class="fil2 str2" d="M8.4453 103.907c0,-0.3843 -0.3111,-0.6953 -0.6953,-0.6953 -0.3839,0 -0.6951,0.311 -0.6951,0.6953 0,0.1085 0.025,0.2113 0.0693,0.3029"/>
   <path id="_132161336" class="fil2 str2" d="M18.6896 104.209c0.0441,-0.0916 0.0695,-0.1944 0.0695,-0.3029 0,-0.3843 -0.3114,-0.6953 -0.6953,-0.6953 -0.3842,0 -0.6955,0.311 -0.6955,0.6953"/>
   <polygon id="_112957104" class="fil3 str2" points="17.3683,103.907 17.3683,105.56 17.3683,106.423 "/>
   <path id="_125773272" class="fil2 str2" d="M17.3683 103.907c0,-0.3843 -0.3111,-0.6953 -0.6953,-0.6953 -0.3839,0 -0.6952,0.311 -0.6952,0.6953 0,0.1085 0.025,0.2113 0.0694,0.3029"/>
   <path id="_131176560" class="fil2 str2" d="M27.6126 104.209c0.0441,-0.0916 0.0693,-0.1944 0.0693,-0.3029 0,-0.3843 -0.3113,-0.6953 -0.6951,-0.6953 -0.3841,0 -0.6953,0.311 -0.6953,0.6953"/>
   <polygon id="_112938912" class="fil3 str2" points="26.2915,103.907 26.2915,105.56 26.2915,106.423 "/>
   <path id="_120539784" class="fil2 str2" d="M26.2915 103.907c0,-0.3843 -0.3114,-0.6953 -0.6955,-0.6953 -0.3839,0 -0.6953,0.311 -0.6953,0.6953 0,0.1085 0.0249,0.2113 0.0695,0.3029"/>
   <path id="_129374232" class="fil2 str2" d="M36.5355 104.209c0.0442,-0.0916 0.0694,-0.1944 0.0694,-0.3029 0,-0.3843 -0.3113,-0.6953 -0.6953,-0.6953 -0.3842,0 -0.6951,0.311 -0.6951,0.6953"/>
   <polygon id="_111743984" class="fil3 str2" points="35.2145,103.907 35.2145,105.56 35.2145,106.423 "/>
   <path id="_131125224" class="fil2 str2" d="M35.2145 103.907c0,-0.3843 -0.3114,-0.6953 -0.6953,-0.6953 -0.3841,0 -0.6955,0.311 -0.6955,0.6953 0,0.1085 0.0249,0.2113 0.0698,0.3029"/>
   <path id="_41288896" class="fil2 str2" d="M45.4584 104.209c0.0443,-0.0916 0.0695,-0.1944 0.0695,-0.3029 0,-0.3843 -0.3113,-0.6953 -0.6953,-0.6953 -0.3842,0 -0.6953,0.311 -0.6953,0.6953"/>
   <polygon id="_129669512" class="fil3 str2" points="44.1373,103.907 44.1373,105.56 44.1373,106.423 "/>
   <path id="_131998872" class="fil2 str2" d="M44.1373 103.907c0,-0.3843 -0.3112,-0.6953 -0.6951,-0.6953 -0.3841,0 -0.6953,0.311 -0.6953,0.6953 0,0.1085 0.0247,0.2113 0.0695,0.3029"/>
   <path id="_40354920" class="fil2 str2" d="M54.3813 104.209c0.0442,-0.0916 0.0695,-0.1944 0.0695,-0.3029 0,-0.3843 -0.3113,-0.6953 -0.6953,-0.6953 -0.3843,0 -0.6952,0.311 -0.6952,0.6953"/>
   <polygon id="_112224136" class="fil3 str2" points="53.0603,103.907 53.0603,105.56 53.0603,106.423 "/>
   <path id="_131702656" class="fil2 str2" d="M53.0603 103.907c0,-0.3843 -0.3113,-0.6953 -0.6953,-0.6953 -0.3841,0 -0.6953,0.311 -0.6953,0.6953 0,0.1085 0.0249,0.2113 0.0694,0.3029"/>
   <path id="_112780120" class="fil2 str2" d="M63.3043 104.209c0.0442,-0.0916 0.0694,-0.1944 0.0694,-0.3029 0,-0.3843 -0.3109,-0.6953 -0.6953,-0.6953 -0.3839,0 -0.6952,0.311 -0.6952,0.6953"/>
   <polygon id="_132203784" class="fil3 str2" points="61.9832,103.907 61.9832,105.56 61.9832,106.423 "/>
   <path id="_112926624" class="fil2 str2" d="M61.9832 103.907c0,-0.3843 -0.3113,-0.6953 -0.6953,-0.6953 -0.3839,0 -0.6952,0.311 -0.6952,0.6953 0,0.1085 0.0249,0.2113 0.0695,0.3029"/>
   <path id="_130485272" class="fil2 str2" d="M72.2272 104.209c0.0443,-0.0916 0.0695,-0.1944 0.0695,-0.3029 0,-0.3843 -0.3113,-0.6953 -0.6953,-0.6953 -0.384,0 -0.6952,0.311 -0.6952,0.6953"/>
   <polygon id="_131012816" class="fil3 str2" points="70.9062,103.907 70.9062,105.56 70.9062,106.423 "/>
   <path id="_112501480" class="fil2 str2" d="M70.9062 103.907c0,-0.3843 -0.3113,-0.6953 -0.6953,-0.6953 -0.384,0 -0.6952,0.311 -0.6952,0.6953 0,0.1085 0.0249,0.2113 0.0694,0.3029"/>
   <path id="_129542288" class="fil2 str2" d="M81.1502 104.209c0.0443,-0.0916 0.0694,-0.1944 0.0694,-0.3029 0,-0.3843 -0.3112,-0.6953 -0.6952,-0.6953 -0.384,0 -0.6953,0.311 -0.6953,0.6953"/>
   <polygon id="_132230896" class="fil3 str2" points="79.8291,103.907 79.8291,105.56 79.8291,106.423 "/>
   <path id="_130181664" class="fil2 str2" d="M79.8291 103.907c0,-0.3843 -0.3109,-0.6953 -0.6952,-0.6953 -0.384,0 -0.6953,0.311 -0.6953,0.6953 0,0.1085 0.0249,0.2113 0.0695,0.3029"/>
   <path id="_128932568" class="fil2 str2" d="M90.0732 104.209c0.0443,-0.0916 0.0694,-0.1944 0.0694,-0.3029 0,-0.3843 -0.3112,-0.6953 -0.6952,-0.6953 -0.384,0 -0.6953,0.311 -0.6953,0.6953"/>
   <polygon id="_113267048" class="fil3 str2" points="88.7521,103.907 88.7521,105.56 88.7521,106.423 "/>
   <path id="_129072984" class="fil2 str2" d="M88.7521 103.907c0,-0.3843 -0.3112,-0.6953 -0.6952,-0.6953 -0.3841,0 -0.6953,0.311 -0.6953,0.6953 0,0.1085 0.0249,0.2113 0.0694,0.3029"/>
   <path id="_112181608" class="fil2 str2" d="M5.7514 82.5267c0.0441,-0.0916 0.0694,-0.1945 0.0694,-0.303 0,-0.384 -0.3113,-0.6952 -0.6952,-0.6952 -0.3841,0 -0.6953,0.3112 -0.6953,0.6952"/>
   <polygon id="_130527592" class="fil3 str2" points="4.4303,82.2237 4.4303,83.8777 4.4303,84.7405 "/>
   <path id="_131097320" class="fil2 str2" d="M4.4303 82.2237c0,-0.384 -0.3114,-0.6952 -0.6955,-0.6952 -0.3838,0 -0.6953,0.3112 -0.6953,0.6952 0,0.1085 0.0251,0.2114 0.0695,0.303"/>
   <path id="_129215080" class="fil2 str2" d="M14.585 82.5267c0.0442,-0.0916 0.0695,-0.1945 0.0695,-0.303 0,-0.384 -0.3114,-0.6952 -0.6953,-0.6952 -0.3841,0 -0.6951,0.3112 -0.6951,0.6952"/>
   <polygon id="_113453352" class="fil3 str2" points="13.2641,82.2237 13.2641,83.8777 13.2641,84.7405 "/>
   <path id="_129245976" class="fil2 str2" d="M13.2641 82.2237c0,-0.384 -0.3114,-0.6952 -0.6953,-0.6952 -0.3841,0 -0.6955,0.3112 -0.6955,0.6952 0,0.1085 0.0249,0.2114 0.0697,0.303"/>
   <path id="_131607032" class="fil2 str2" d="M23.4187 82.5267c0.0444,-0.0916 0.0695,-0.1945 0.0695,-0.303 0,-0.384 -0.3114,-0.6952 -0.6952,-0.6952 -0.3842,0 -0.6953,0.3112 -0.6953,0.6952"/>
   <polygon id="_111966376" class="fil3 str2" points="22.0977,82.2237 22.0977,83.8777 22.0977,84.7405 "/>
   <path id="_131076016" class="fil2 str2" d="M22.0977 82.2237c0,-0.384 -0.3113,-0.6952 -0.6951,-0.6952 -0.3843,0 -0.6953,0.3112 -0.6953,0.6952 0,0.1085 0.0249,0.2114 0.0694,0.303"/>
   <path id="_41267056" class="fil2 str2" d="M32.2525 82.5267c0.0441,-0.0916 0.0694,-0.1945 0.0694,-0.303 0,-0.384 -0.3113,-0.6952 -0.6952,-0.6952 -0.3842,0 -0.6953,0.3112 -0.6953,0.6952"/>
   <polygon id="_130907152" class="fil3 str2" points="30.9314,82.2237 30.9314,83.8777 30.9314,84.7405 "/>
   <path id="_121005792" class="fil2 str2" d="M30.9314 82.2237c0,-0.384 -0.3113,-0.6952 -0.6955,-0.6952 -0.3839,0 -0.6952,0.3112 -0.6952,0.6952 0,0.1085 0.025,0.2114 0.0694,0.303"/>
   <path id="_112085632" class="fil2 str2" d="M41.0863 82.5267c0.0441,-0.0916 0.0693,-0.1945 0.0693,-0.303 0,-0.384 -0.3113,-0.6952 -0.6951,-0.6952 -0.3843,0 -0.6953,0.3112 -0.6953,0.6952"/>
   <polygon id="_129611576" class="fil3 str2" points="39.7652,82.2237 39.7652,83.8777 39.7652,84.7405 "/>
   <path id="_128118192" class="fil2 str2" d="M39.7652 82.2237c0,-0.384 -0.3114,-0.6952 -0.6953,-0.6952 -0.3841,0 -0.6955,0.3112 -0.6955,0.6952 0,0.1085 0.0249,0.2114 0.0697,0.303"/>
   <path id="_130392368" class="fil2 str2" d="M49.9198 82.5267c0.0442,-0.0916 0.0694,-0.1945 0.0694,-0.303 0,-0.384 -0.3111,-0.6952 -0.6952,-0.6952 -0.3839,0 -0.6952,0.3112 -0.6952,0.6952"/>
   <polygon id="_129561464" class="fil3 str2" points="48.5988,82.2237 48.5988,83.8777 48.5988,84.7405 "/>
   <path id="_40188128" class="fil2 str2" d="M48.5988 82.2237c0,-0.384 -0.3113,-0.6952 -0.6953,-0.6952 -0.3839,0 -0.6952,0.3112 -0.6952,0.6952 0,0.1085 0.0252,0.2114 0.0695,0.303"/>
   <path id="_131302432" class="fil2 str2" d="M58.7534 82.5267c0.0443,-0.0916 0.0695,-0.1945 0.0695,-0.303 0,-0.384 -0.3113,-0.6952 -0.6953,-0.6952 -0.384,0 -0.6952,0.3112 -0.6952,0.6952"/>
   <polygon id="_41857120" class="fil3 str2" points="57.4324,82.2237 57.4324,83.8777 57.4324,84.7405 "/>
   <path id="_112978800" class="fil2 str2" d="M57.4324 82.2237c0,-0.384 -0.3113,-0.6952 -0.6953,-0.6952 -0.384,0 -0.6953,0.3112 -0.6953,0.6952 0,0.1085 0.025,0.2114 0.0695,0.303"/>
   <path id="_41130544" class="fil2 str2" d="M67.5873 82.5267c0.0443,-0.0916 0.0694,-0.1945 0.0694,-0.303 0,-0.384 -0.3112,-0.6952 -0.6952,-0.6952 -0.384,0 -0.6953,0.3112 -0.6953,0.6952"/>
   <polygon id="_40319888" class="fil3 str2" points="66.2662,82.2237 66.2662,83.8777 66.2662,84.7405 "/>
   <path id="_120102672" class="fil2 str2" d="M66.2662 82.2237c0,-0.384 -0.3112,-0.6952 -0.6952,-0.6952 -0.384,0 -0.6953,0.3112 -0.6953,0.6952 0,0.1085 0.0249,0.2114 0.0695,0.303"/>
   <path id="_120538544" class="fil2 str2" d="M76.4209 82.5267c0.0443,-0.0916 0.0695,-0.1945 0.0695,-0.303 0,-0.384 -0.3113,-0.6952 -0.6953,-0.6952 -0.384,0 -0.6952,0.3112 -0.6952,0.6952"/>
   <polygon id="_113584744" class="fil3 str2" points="75.0999,82.2237 75.0999,83.8777 75.0999,84.7405 "/>
   <path id="_118892616" class="fil2 str2" d="M75.0999 82.2237c0,-0.384 -0.3113,-0.6952 -0.6953,-0.6952 -0.3841,0 -0.6952,0.3112 -0.6952,0.6952 0,0.1085 0.0248,0.2114 0.0693,0.303"/>
   <path id="_41113624" class="fil2 str2" d="M85.2551 82.5267c0.044,-0.0916 0.0692,-0.1945 0.0692,-0.303 0,-0.384 -0.3113,-0.6952 -0.695,-0.6952 -0.3843,0 -0.6955,0.3112 -0.6955,0.6952"/>
   <polygon id="_130242840" class="fil3 str2" points="83.9338,82.2237 83.9338,83.8777 83.9338,84.7405 "/>
   <path id="_129136200" class="fil2 str2" d="M83.9338 82.2237c0,-0.384 -0.3113,-0.6952 -0.6953,-0.6952 -0.384,0 -0.6952,0.3112 -0.6952,0.6952 0,0.1085 0.0248,0.2114 0.0693,0.303"/>
   <path id="_129566360" class="fil2 str2" d="M94.0885 82.5267c0.0442,-0.0916 0.0693,-0.1945 0.0693,-0.303 0,-0.384 -0.3111,-0.6952 -0.6952,-0.6952 -0.384,0 -0.6953,0.3112 -0.6953,0.6952"/>
   <polygon id="_40298792" class="fil3 str2" points="92.7673,82.2237 92.7673,83.8777 92.7673,84.7405 "/>
   <path id="_119586160" class="fil2 str2" d="M92.7673 82.2237c0,-0.384 -0.3112,-0.6952 -0.6952,-0.6952 -0.3838,0 -0.6953,0.3112 -0.6953,0.6952 0,0.1085 0.0249,0.2114 0.0695,0.303"/>
   <path id="_113591176" class="fil2 str2" d="M5.7514 96.9819c0.0441,-0.0917 0.0694,-0.1945 0.0694,-0.303 0,-0.384 -0.3113,-0.6953 -0.6952,-0.6953 -0.3841,0 -0.6953,0.3113 -0.6953,0.6953"/>
   <polygon id="_130362016" class="fil3 str2" points="4.4303,96.6789 4.4303,98.3328 4.4303,99.1957 "/>
   <path id="_40127088" class="fil2 str2" d="M4.4303 96.6789c0,-0.384 -0.3114,-0.6953 -0.6955,-0.6953 -0.3838,0 -0.6953,0.3113 -0.6953,0.6953 0,0.1085 0.0251,0.2113 0.0695,0.303"/>
   <path id="_130393864" class="fil2 str2" d="M14.585 96.9819c0.0442,-0.0917 0.0695,-0.1945 0.0695,-0.303 0,-0.384 -0.3114,-0.6953 -0.6953,-0.6953 -0.3841,0 -0.6951,0.3113 -0.6951,0.6953"/>
   <polygon id="_128051128" class="fil3 str2" points="13.2641,96.6789 13.2641,98.3328 13.2641,99.1957 "/>
   <path id="_129281696" class="fil2 str2" d="M13.2641 96.6789c0,-0.384 -0.3114,-0.6953 -0.6953,-0.6953 -0.3841,0 -0.6955,0.3113 -0.6955,0.6953 0,0.1085 0.0249,0.2113 0.0697,0.303"/>
   <path id="_130396144" class="fil2 str2" d="M23.4187 96.9819c0.0444,-0.0917 0.0695,-0.1945 0.0695,-0.303 0,-0.384 -0.3114,-0.6953 -0.6952,-0.6953 -0.3842,0 -0.6953,0.3113 -0.6953,0.6953"/>
   <polygon id="_131558392" class="fil3 str2" points="22.0977,96.6789 22.0977,98.3328 22.0977,99.1957 "/>
   <path id="_111824112" class="fil2 str2" d="M22.0977 96.6789c0,-0.384 -0.3113,-0.6953 -0.6951,-0.6953 -0.3843,0 -0.6953,0.3113 -0.6953,0.6953 0,0.1085 0.0249,0.2113 0.0694,0.303"/>
   <path id="_131481680" class="fil2 str2" d="M32.2525 96.9819c0.0441,-0.0917 0.0694,-0.1945 0.0694,-0.303 0,-0.384 -0.3113,-0.6953 -0.6952,-0.6953 -0.3842,0 -0.6953,0.3113 -0.6953,0.6953"/>
   <polygon id="_39992976" class="fil3 str2" points="30.9314,96.6789 30.9314,98.3328 30.9314,99.1957 "/>
   <path id="_129280064" class="fil2 str2" d="M30.9314 96.6789c0,-0.384 -0.3113,-0.6953 -0.6955,-0.6953 -0.3839,0 -0.6952,0.3113 -0.6952,0.6953 0,0.1085 0.025,0.2113 0.0694,0.303"/>
   <path id="_131687000" class="fil2 str2" d="M41.0863 96.9819c0.0441,-0.0917 0.0693,-0.1945 0.0693,-0.303 0,-0.384 -0.3113,-0.6953 -0.6951,-0.6953 -0.3843,0 -0.6953,0.3113 -0.6953,0.6953"/>
   <polygon id="_130519008" class="fil3 str2" points="39.7652,96.6789 39.7652,98.3328 39.7652,99.1957 "/>
   <path id="_41289696" class="fil2 str2" d="M39.7652 96.6789c0,-0.384 -0.3114,-0.6953 -0.6953,-0.6953 -0.3841,0 -0.6955,0.3113 -0.6955,0.6953 0,0.1085 0.0249,0.2113 0.0697,0.303"/>
   <path id="_113441696" class="fil2 str2" d="M49.9198 96.9819c0.0442,-0.0917 0.0694,-0.1945 0.0694,-0.303 0,-0.384 -0.3111,-0.6953 -0.6952,-0.6953 -0.3839,0 -0.6952,0.3113 -0.6952,0.6953"/>
   <polygon id="_112652128" class="fil3 str2" points="48.5988,96.6789 48.5988,98.3328 48.5988,99.1957 "/>
   <path id="_129125696" class="fil2 str2" d="M48.5988 96.6789c0,-0.384 -0.3113,-0.6953 -0.6953,-0.6953 -0.3839,0 -0.6952,0.3113 -0.6952,0.6953 0,0.1085 0.0252,0.2113 0.0695,0.303"/>
   <path id="_112765032" class="fil2 str2" d="M58.7534 96.9819c0.0443,-0.0917 0.0695,-0.1945 0.0695,-0.303 0,-0.384 -0.3113,-0.6953 -0.6953,-0.6953 -0.384,0 -0.6952,0.3113 -0.6952,0.6953"/>
   <polygon id="_129779792" class="fil3 str2" points="57.4324,96.6789 57.4324,98.3328 57.4324,99.1957 "/>
   <path id="_129850944" class="fil2 str2" d="M57.4324 96.6789c0,-0.384 -0.3113,-0.6953 -0.6953,-0.6953 -0.384,0 -0.6953,0.3113 -0.6953,0.6953 0,0.1085 0.025,0.2113 0.0695,0.303"/>
   <path id="_131174384" class="fil2 str2" d="M67.5873 96.9819c0.0443,-0.0917 0.0694,-0.1945 0.0694,-0.303 0,-0.384 -0.3112,-0.6953 -0.6952,-0.6953 -0.384,0 -0.6953,0.3113 -0.6953,0.6953"/>
   <polygon id="_128765856" class="fil3 str2" points="66.2662,96.6789 66.2662,98.3328 66.2662,99.1957 "/>
   <path id="_131476936" class="fil2 str2" d="M66.2662 96.6789c0,-0.384 -0.3112,-0.6953 -0.6952,-0.6953 -0.384,0 -0.6953,0.3113 -0.6953,0.6953 0,0.1085 0.0249,0.2113 0.0695,0.303"/>
   <path id="_131290600" class="fil2 str2" d="M76.4209 96.9819c0.0443,-0.0917 0.0695,-0.1945 0.0695,-0.303 0,-0.384 -0.3113,-0.6953 -0.6953,-0.6953 -0.384,0 -0.6952,0.3113 -0.6952,0.6953"/>
   <polygon id="_113269288" class="fil3 str2" points="75.0999,96.6789 75.0999,98.3328 75.0999,99.1957 "/>
   <path id="_129954520" class="fil2 str2" d="M75.0999 96.6789c0,-0.384 -0.3113,-0.6953 -0.6953,-0.6953 -0.3841,0 -0.6952,0.3113 -0.6952,0.6953 0,0.1085 0.0248,0.2113 0.0693,0.303"/>
   <path id="_112599072" class="fil2 str2" d="M85.2551 96.9819c0.044,-0.0917 0.0692,-0.1945 0.0692,-0.303 0,-0.384 -0.3113,-0.6953 -0.695,-0.6953 -0.3843,0 -0.6955,0.3113 -0.6955,0.6953"/>
   <polygon id="_131310840" class="fil3 str2" points="83.9338,96.6789 83.9338,98.3328 83.9338,99.1957 "/>
   <path id="_131560560" class="fil2 str2" d="M83.9338 96.6789c0,-0.384 -0.3113,-0.6953 -0.6953,-0.6953 -0.384,0 -0.6952,0.3113 -0.6952,0.6953 0,0.1085 0.0248,0.2113 0.0693,0.303"/>
   <path id="_128889824" class="fil2 str2" d="M94.0885 96.9819c0.0442,-0.0917 0.0693,-0.1945 0.0693,-0.303 0,-0.384 -0.3111,-0.6953 -0.6952,-0.6953 -0.384,0 -0.6953,0.3113 -0.6953,0.6953"/>
   <polygon id="_131689864" class="fil3 str2" points="92.7673,96.6789 92.7673,98.3328 92.7673,99.1957 "/>
   <path id="_129705568" class="fil2 str2" d="M92.7673 96.6789c0,-0.384 -0.3112,-0.6953 -0.6952,-0.6953 -0.3838,0 -0.6953,0.3113 -0.6953,0.6953 0,0.1085 0.0249,0.2113 0.0695,0.303"/>
  </g>
  <path class="fil4 str3" d="M79.0146 81.5061c-0.2613,0.5007 -0.6939,0.9561 -0.7919,1.5124 -0.0298,0.1692 -0.075,0.4574 0.0847,0.5214l0.4815 0.1934 0.3767 0.0979c0.6648,-0.0228 1.1812,-0.1533 1.4872,-0.894 0.6022,-1.4581 0.5394,-2.8849 0.3657,-4.4554 -0.2208,-1.9934 -0.9407,-3.5446 -1.8172,-4.9721 -1.7225,-2.8053 -3.7233,-5.4842 -5.0726,-8.5056 1.3291,0.3099 6.8124,3.6668 7.9199,4.5433 1.6212,1.2829 5.3193,4.6368 5.3193,7.2567 0,1.456 -0.7083,2.0174 -1.446,3.2399 -0.2131,0.3532 0.066,0.6451 0.3292,0.8207 0.4689,0.0704 0.9534,0.3501 1.4068,0.2114 0.4162,-0.1273 0.8076,-0.3023 1.0451,-0.6619 2.3289,-3.5272 0.0869,-8.8248 -1.8453,-11.6713 -1.5558,-2.0783 -2.5438,-3.7211 -3.7549,-6.1503 -0.5521,-1.1073 -1.151,-2.1361 -1.7412,-3.1559 -1.4656,-2.5329 -4.3415,-5.8388 -7.2329,-7.6796 3.5905,-3.0951 5.94,-5.5516 6.896,-6.7924 4.0955,-5.3159 5.8321,-14.7104 -1.3333,-20.7038 -2.6272,-2.1973 -7.1463,-2.9069 -11.3359,-3.463 -5.4735,-0.7264 -13.8885,-1.1682 -18.8498,-3.2916 -1.4845,-0.6353 -3.4902,-1.9382 -4.3031,-3.1528 -1.8199,1.2194 -3.4488,4.6606 -3.4488,7.7924 0,5.1297 3.9849,7.6649 8.4428,8.3615 4.8109,0.7519 9.9117,1.2816 14.9311,1.8693 4.7509,0.5564 9.102,2.364 10.3576,6.4457 1.583,5.1461 -1.2429,9.7191 -4.583,11.4875 -0.8131,-0.4306 -2.3312,-0.7793 -3.5601,-0.7793 -6.1588,0 -11.4787,4.5642 -17.8007,4.5642 -5.5692,0 -10.5405,-2.4322 -12.3691,-6.1026 -1.2761,-2.5612 -0.7755,-5.4508 -1.3126,-7.9262 -0.5646,-2.6014 -1.6118,-3.888 -3.5626,-5.6749 0,-1.6659 -0.6305,-3.3396 -2.4476,-3.3396 -1.0567,0 -1.0243,1.5584 -1.7801,1.5584 -1.0194,0 -1.2196,-1.6697 -1.8913,-1.6697l-0.2225 0c-0.7922,0 -1.5575,0.7859 -1.5575,1.5584 0,0.2856 0.0467,0.5023 0.1112,0.7793 -1.0408,0.2426 -1.8757,1.7413 -2.3355,2.6991 -0.5796,1.2072 -2.5183,1.9397 -2.3768,2.617 0.1015,0.4859 0.2666,1.0673 0.606,1.4739 0.692,0.0415 1.421,-0.0626 1.5367,0.1113 0.079,0.5927 -1.3769,0.1862 -1.3156,0.3389 0.0962,0.2036 0.3875,0.5225 0.8595,0.5524 2.7136,0.172 5.4783,1.0944 5.4783,4.1825 0,2.1186 -0.7455,6.5987 -1.3242,8.0783 -1.0923,2.6444 -2.1505,4.4392 -5.6736,4.1665 -3.4002,-0.2632 -6.9888,-0.8601 -10.2867,0.3467 -1.0549,0.386 -2.9181,1.5125 -2.9625,2.7139 -0.0083,0.2238 0.0721,0.4271 0.2108,0.6028 0.248,0.3142 0.6308,0.2807 1.0068,0.2807 0.757,0 2.2522,-1.3358 3.5601,-1.3358 3.354,0 6.9922,2.8943 11.3479,2.8943 1.4906,0 2.6602,-0.2172 4.1164,-0.5566 -2.3296,4.4052 -10.0009,2.2291 -14.2405,2.3376 -1.9096,0 -3.1769,1.2622 -3.8939,2.4492 -0.2203,0.3646 0.1862,1.0973 0.6089,1.1025 0.2791,0.0034 0.6102,0.0319 0.8638,-0.0847 0.6874,-0.3163 2.6125,-1.2405 3.645,-1.2405 3.3915,0 5.483,3.3396 10.5691,3.3396 3.6384,0 5.8608,-1.3511 8.1216,-3.1169 2.0071,1.3448 4.4562,2.8942 7.7877,2.8942l0.1113 0c3.3929,0 6.6198,-1.1391 9.089,-2.1489 1.9968,-0.8167 6.3334,-2.3039 8.9342,-2.3039 1.1993,0 2.2522,0.3882 3.1446,1.195 0.7136,0.6454 1.6761,1.3595 2.2812,1.9476 1.9963,1.9399 5.0179,3.7121 7.5916,4.8717 1.7738,0.7992 4.0438,1.6577 5.5337,2.9234 1.1926,1.0133 2.7822,3.225 1.9103,4.8964z"/>
  <path class="fil5 str4" d="M21.1635 37.9182c-0.1162,0.7538 -0.7692,0.8425 -1.3336,0.5934l1.3336 -0.5934z"/>
  <path class="fil5" d="M30.4486 31.6392c0.565,0.0833 0.9059,0.767 0.9059,1.3358 0,0.5377 -0.0618,1.0046 -0.5563,1.3358 0.1692,-1.0063 0.0164,-2.0857 -0.8372,-2.1097 -0.4275,-0.012 -0.5189,0.62 -0.6092,1.0598 -0.4024,-0.7578 0.1229,-1.7652 1.0968,-1.6217z"/>
  <path class="fil4" d="M29.5067 32.2345c0.907,-0.675 1.4268,0.1927 1.6159,0.9807 0.0257,-0.7049 -0.2714,-1.3784 -0.917,-1.4206 -0.3011,-0.0197 -0.6412,0.2006 -0.6989,0.4399z"/>
  <sodipodi:namedview id="base" pagecolor="#ffffff" bordercolor="#666666" borderopacity="1.0" inkscape:pageopacity="0.0" inkscape:pageshadow="2" inkscape:zoom="0.31241379" inkscape:cx="750" inkscape:cy="725" inkscape:document-units="px" inkscape:current-layer="layer1" showgrid="false" inkscape:window-width="1280" inkscape:window-height="701" inkscape:window-x="0" inkscape:window-y="0" inkscape:window-maximized="0" showguides="true" inkscape:guide-bbox="true" inkscape:object-nodes="true" inkscape:snap-nodes="false" inkscape:snap-page="false" inkscape:snap-bbox="false" inkscape:snap-grids="false" inkscape:snap-to-guides="false"/>
  <sodipodi:namedview inkscape:window-height="705" inkscape:window-width="1280" inkscape:pageshadow="2" inkscape:pageopacity="0.0" borderopacity="1.0" bordercolor="#666666" pagecolor="#ffffff" id="base" inkscape:zoom="1.2570886" inkscape:cx="10.008772" inkscape:cy="149.71352" inkscape:window-x="0" inkscape:window-y="0" inkscape:current-layer="layer2" width="569px" showgrid="false" inkscape:window-maximized="0" showguides="true" inkscape:guide-bbox="true" inkscape:snap-midpoints="false" inkscape:snap-smooth-nodes="false">
   <inkscape:grid type="xygrid" id="grid3968" empspacing="5" visible="true" enabled="true" snapvisiblegridlinesonly="true"/>
  </sodipodi:namedview>
  <sodipodi:namedview id="base" pagecolor="#ffffff" bordercolor="#666666" borderopacity="1.0" gridtolerance="10000" guidetolerance="10" objecttolerance="10" inkscape:pageopacity="0.0" inkscape:pageshadow="2" inkscape:zoom="1.4" inkscape:cx="335.72928" inkscape:cy="307.35413" inkscape:document-units="px" inkscape:current-layer="layer1" inkscape:window-width="1857" inkscape:window-height="1165" inkscape:window-x="1436" inkscape:window-y="-4"/>
  <sodipodi:namedview id="base" pagecolor="#ffffff" bordercolor="#666666" borderopacity="1.0" gridtolerance="10000" guidetolerance="10" objecttolerance="10" inkscape:pageopacity="0.0" inkscape:pageshadow="2" inkscape:zoom="1.4" inkscape:cx="335.72928" inkscape:cy="307.35413" inkscape:document-units="px" inkscape:current-layer="layer1" inkscape:window-width="1857" inkscape:window-height="1165" inkscape:window-x="1436" inkscape:window-y="-4"/>
  <sodipodi:namedview id="base" pagecolor="#ffffff" bordercolor="#666666" borderopacity="1.0" gridtolerance="10000" guidetolerance="10" objecttolerance="10" inkscape:pageopacity="0.0" inkscape:pageshadow="2" inkscape:zoom="1.4" inkscape:cx="335.72928" inkscape:cy="307.35413" inkscape:document-units="px" inkscape:current-layer="layer1" inkscape:window-width="1857" inkscape:window-height="1165" inkscape:window-x="1436" inkscape:window-y="-4"/>
  <sodipodi:namedview id="base" pagecolor="#ffffff" bordercolor="#666666" borderopacity="1.0" inkscape:pageopacity="0.0" inkscape:pageshadow="2" inkscape:zoom="0.31354839" inkscape:cx="522.18628" inkscape:cy="775.00002" inkscape:document-units="px" inkscape:current-layer="layer1" showgrid="false" inkscape:window-width="1280" inkscape:window-height="704" inkscape:window-x="0" inkscape:window-y="0" inkscape:window-maximized="0" showguides="true" inkscape:guide-bbox="true" inkscape:object-nodes="false" inkscape:snap-nodes="false" inkscape:snap-page="false" inkscape:snap-bbox="false" inkscape:snap-grids="false" inkscape:snap-to-guides="false">
   <inkscape:grid type="xygrid" id="grid14322" empspacing="5" visible="true" enabled="true" snapvisiblegridlinesonly="true"/>
  </sodipodi:namedview>
  <g id="g6659">
   <g id="g6663">
   </g>
  </g>
  <g id="g11618-9-0-2">
  </g>
  <sodipodi:namedview id="base" pagecolor="#ffffff" bordercolor="#666666" borderopacity="1.0" inkscape:pageopacity="0.0" inkscape:pageshadow="2" inkscape:zoom="0.3116129" inkscape:cx="372.25672" inkscape:cy="774.99999" inkscape:document-units="px" inkscape:current-layer="layer1" showgrid="false" inkscape:window-width="1280" inkscape:window-height="701" inkscape:window-x="0" inkscape:window-y="0" inkscape:window-maximized="0" showguides="true" inkscape:guide-bbox="true" inkscape:object-nodes="false" inkscape:snap-nodes="false" inkscape:snap-page="true" inkscape:snap-bbox="false" inkscape:snap-grids="false" inkscape:snap-to-guides="false">
   <inkscape:grid type="xygrid" id="grid14322" empspacing="5" visible="true" enabled="true" snapvisiblegridlinesonly="true"/>
  </sodipodi:namedview>
  <g id="g6659_0">
   <g id="g6663_1">
   </g>
  </g>
  <g id="g11618-9-0-2_2">
  </g>
  <g id="g6659_3">
   <g id="g6663_4">
   </g>
  </g>
  <g id="g11618-9-0-2_5">
  </g>
  <g id="g6659_6">
   <g id="g6663_7">
   </g>
  </g>
  <g id="g11618-9-0-2_8">
  </g>
  <g id="_112670800">
   <path id="path15848" class="fil5" d="M28.3277 36.0312c0,0 0.0355,-0.3972 -0.0777,-0.5391 -0.097,-0.1217 -0.2799,-0.164 -0.4354,-0.1679 -0.3967,-0.0099 -0.5059,0.2592 -0.8955,0.2744 -0.332,0.0129 -0.8644,0.1233 -1.0627,0.1952 -0.713,0.2972 -0.9555,0.3155 -0.9047,0.4489 0.0284,0.0746 0.4201,0.2103 0.6005,0.4253 0.3199,0.8122 1.0294,0.9646 1.6534,0.7223 0.2334,-0.0906 0.4477,-0.3045 0.5927,-0.5811 0.093,-0.1774 0.1318,-0.408 0.2133,-0.5585 0.0878,-0.1619 0.2868,-0.0312 0.3161,-0.2195l0 0z" sodipodi:nodetypes="cssscscsssc"/>
   <path id="path4096-5-3-7-2-7-2-7-9-4-7" class="fil6" d="M25.8105 36.7956c0.1143,0.2968 0.6939,0.6388 1.1797,0.466 0.4858,-0.1729 0.6939,-0.795 0.5796,-1.0919 -0.1144,-0.2968 -0.4894,-0.0877 -0.9752,0.0852 -0.4858,0.1728 -0.8984,0.2439 -0.7841,0.5407l0 0z" sodipodi:nodetypes="csssc"/>
   <path id="path4096-7-5-4-8-9-0-39-7-9-8-8" class="fil7" d="M27.2012 35.9408c0.0929,-0.0106 0.1805,-0.0099 0.2564,0.0225 0.0758,0.0323 0.1379,0.0992 0.1717,0.1872 0.0678,0.1759 0.0353,0.4148 -0.0685,0.6408 -0.1038,0.2259 -0.2849,0.4366 -0.5466,0.5297 -0.2617,0.0931 -0.5464,0.0493 -0.7783,-0.0571 -0.2319,-0.1065 -0.417,-0.2729 -0.4848,-0.4488 -0.0339,-0.088 -0.0295,-0.1735 0.0062,-0.2456 0.0356,-0.072 0.0962,-0.1273 0.1739,-0.1773 0.1552,-0.1002 0.4243,-0.1177 0.6672,-0.2041 0.2429,-0.0865 0.4171,-0.2263 0.6028,-0.2474l0 0.0001zm0.0213 0.1232c-0.161,0.0183 -0.3361,0.1595 -0.579,0.2459 -0.2429,0.0864 -0.5043,0.1023 -0.639,0.1892 -0.0673,0.0434 -0.1128,0.0878 -0.134,0.1308 -0.0213,0.043 -0.0244,0.0846 -0.0011,0.145 0.0466,0.121 0.2071,0.2745 0.415,0.37 0.2079,0.0955 0.4567,0.135 0.6809,0.0552 0.2241,-0.0797 0.3892,-0.2665 0.4823,-0.4691 0.0931,-0.2025 0.1101,-0.4194 0.0635,-0.5403 -0.0233,-0.0605 -0.053,-0.09 -0.0982,-0.1094 -0.0453,-0.0193 -0.1098,-0.0264 -0.1904,-0.0173l0 0z" sodipodi:nodetypes="csssssssssccsssssssssc"/>
   <path id="path4125-29-0-8-1-6-1-2-6-5-8" class="fil5" d="M26.3181 36.8539c0.0623,0.2299 0.289,0.3749 0.5065,0.3238 0.2174,-0.0511 0.3432,-0.2789 0.2809,-0.5088 -0.0623,-0.2299 -0.289,-0.3749 -0.5065,-0.3238 -0.2174,0.0511 -0.3432,0.2789 -0.2809,0.5088z" sodipodi:ry="3.1164353" sodipodi:rx="2.984755" sodipodi:cy="314.30814" sodipodi:cx="725.11987" sodipodi:type="arc"/>
   <path id="path4149-3-8-9-1-3-2-42-1-0-7-7" class="fil7" d="M26.6629 36.5603c0.1068,-0.0251 0.2258,0.0313 0.2582,0.1508 0.0323,0.1194 -0.0437,0.2216 -0.1506,0.2467 -0.1068,0.0251 -0.2188,-0.0288 -0.2522,-0.1521 -0.0334,-0.1233 0.0377,-0.2203 0.1446,-0.2454z" inkscape:original="M 725.125 311.1875 C 723.47657 311.1875 722.125 312.59134 722.125 314.3125 C 722.125 316.03366 723.47657 317.4375 725.125 317.4375 C 726.77343 317.4375 728.09375 316.03366 728.09375 314.3125 C 728.09375 312.59134 726.77343 311.1875 725.125 311.1875 z " inkscape:radius="-1.9251236" sodipodi:type="inkscape:offset"/>
   <path id="path4149-2-3-5-7-5-7-3-3-9-7" class="fil6" d="M26.5253 36.5537c0.0733,-0.0172 0.1555,0.0237 0.1786,0.1089 0.023,0.0852 -0.0285,0.1575 -0.1018,0.1747 -0.0732,0.0172 -0.1506,-0.0219 -0.1744,-0.1099 -0.0239,-0.0879 0.0243,-0.1565 0.0976,-0.1737l0 0z" inkscape:original="M 725.125 311.1875 C 723.47657 311.1875 722.125 312.59134 722.125 314.3125 C 722.125 316.03366 723.47657 317.4375 725.125 317.4375 C 726.77343 317.4375 728.09375 316.03366 728.09375 314.3125 C 728.09375 312.59134 726.77343 311.1875 725.125 311.1875 z " inkscape:radius="-1.9251236" sodipodi:type="inkscape:offset"/>
   <path id="path3477-9-0-3-9-4-7-5-4-1-0-2-7" class="fil7" d="M25.1883 36.4229c-0.1976,-0.0329 -0.2102,-0.109 -0.2102,-0.109l-0.037 -0.1364 0.1363 0.0267 0 0 0.0001 0c0,0 0.524,0.0882 1.2963,-0.0957 0.3388,-0.0807 0.7433,-0.3593 1.1238,-0.4842 0.1902,-0.0625 0.3912,-0.0899 0.5677,-0.0012 0.1765,0.0887 0.3024,0.2784 0.3844,0.5802 -0.1569,-0.0054 -0.2233,-0.2635 -0.4853,-0.3999 -0.0997,-0.0519 -0.2304,-0.0395 -0.3938,0.0142 -0.3269,0.1074 -0.7358,0.3918 -1.1432,0.4888 -0.7322,0.1744 -1.0414,0.1495 -1.2391,0.1166l0 -0.0001z" sodipodi:nodetypes="ccccccssscsssc"/>
  </g>
  <g id="_131607712">
   <path id="_130312656" class="fil3 str5" d="M8.3629 68.6801c0.1374,-0.6049 0.4831,-1.1773 1.062,-1.3245 0.0914,-0.0237 0.1855,0.0639 0.1712,0.1355 -0.228,0.3487 -1.0268,1.1639 -1.2332,1.189z"/>
   <path id="path10006-2-7-6" class="fil8" d="M9.0671 67.6354c0.0769,-0.0366 0.1181,0.0572 0.0728,0.1022 -0.1891,0.0936 -0.3615,0.3542 -0.4919,0.537 0.0029,-0.1522 0.1423,-0.4159 0.4191,-0.6392l0 0z" sodipodi:nodetypes="csccc"/>
   <g>
    <path id="_129433288" class="fil3 str5" d="M8.8642 69.0916c0.1375,-0.6049 0.4831,-1.1773 1.062,-1.3245 0.0915,-0.0237 0.1856,0.0639 0.1712,0.1355 -0.228,0.3487 -1.0267,1.1639 -1.2332,1.189z"/>
    <path id="path10006-2-7-6_9" class="fil8" d="M9.5685 68.0469c0.0768,-0.0366 0.1181,0.0572 0.0728,0.1022 -0.1892,0.0936 -0.3616,0.3542 -0.492,0.537 0.0029,-0.1522 0.1424,-0.4159 0.4192,-0.6393l0 0.0001z" sodipodi:nodetypes="csccc"/>
   </g>
  </g>
  <g id="_130989968">
   <path id="_113257776" class="fil3 str5" d="M6.3538 61.8719c0.074,-0.6159 0.3585,-1.221 0.919,-1.4274 0.0885,-0.0331 0.1912,0.0442 0.1843,0.117 -0.1906,0.3704 -0.9005,1.2641 -1.1033,1.3104z"/>
   <path id="path10006-2-7-6_10" class="fil8" d="M6.946 60.7598c0.0726,-0.0443 0.1234,0.0447 0.083,0.0941 -0.1784,0.1127 -0.3229,0.3898 -0.4336,0.5852 -0.0129,-0.1517 0.0984,-0.4285 0.3506,-0.6793l0 0z" sodipodi:nodetypes="csccc"/>
   <g>
    <path id="_129674648" class="fil3 str5" d="M6.8952 62.2292c0.0739,-0.6159 0.3584,-1.221 0.9189,-1.4275 0.0885,-0.033 0.1912,0.0443 0.1843,0.1171 -0.1906,0.3704 -0.9005,1.2641 -1.1032,1.3104z"/>
    <path id="path10006-2-7-6_11" class="fil8" d="M7.4873 61.1171c0.0726,-0.0443 0.1234,0.0447 0.083,0.0941 -0.1784,0.1127 -0.3229,0.3898 -0.4336,0.5851 -0.0129,-0.1516 0.0984,-0.4284 0.3506,-0.6792l0 0z" sodipodi:nodetypes="csccc"/>
   </g>
  </g>
  <sodipodi:namedview id="base" pagecolor="#ffffff" bordercolor="#666666" borderopacity="1.0" inkscape:pageopacity="0.0" inkscape:pageshadow="2" inkscape:zoom="0.31241379" inkscape:cx="750" inkscape:cy="725" inkscape:document-units="px" inkscape:current-layer="layer1" showgrid="false" inkscape:window-width="1280" inkscape:window-height="701" inkscape:window-x="0" inkscape:window-y="0" inkscape:window-maximized="0" showguides="true" inkscape:guide-bbox="true" inkscape:object-nodes="true" inkscape:snap-nodes="false" inkscape:snap-page="false" inkscape:snap-bbox="false" inkscape:snap-grids="false" inkscape:snap-to-guides="false"/>
  <sodipodi:namedview inkscape:window-height="705" inkscape:window-width="1280" inkscape:pageshadow="2" inkscape:pageopacity="0.0" borderopacity="1.0" bordercolor="#666666" pagecolor="#ffffff" id="base" inkscape:zoom="1.2570886" inkscape:cx="10.008772" inkscape:cy="149.71352" inkscape:window-x="0" inkscape:window-y="0" inkscape:current-layer="layer2" width="569px" showgrid="false" inkscape:window-maximized="0" showguides="true" inkscape:guide-bbox="true" inkscape:snap-midpoints="false" inkscape:snap-smooth-nodes="false">
   <inkscape:grid type="xygrid" id="grid3968" empspacing="5" visible="true" enabled="true" snapvisiblegridlinesonly="true"/>
  </sodipodi:namedview>
  <sodipodi:namedview id="base" pagecolor="#ffffff" bordercolor="#666666" borderopacity="1.0" gridtolerance="10000" guidetolerance="10" objecttolerance="10" inkscape:pageopacity="0.0" inkscape:pageshadow="2" inkscape:zoom="1.4" inkscape:cx="335.72928" inkscape:cy="307.35413" inkscape:document-units="px" inkscape:current-layer="layer1" inkscape:window-width="1857" inkscape:window-height="1165" inkscape:window-x="1436" inkscape:window-y="-4"/>
  <sodipodi:namedview id="base" pagecolor="#ffffff" bordercolor="#666666" borderopacity="1.0" gridtolerance="10000" guidetolerance="10" objecttolerance="10" inkscape:pageopacity="0.0" inkscape:pageshadow="2" inkscape:zoom="1.4" inkscape:cx="335.72928" inkscape:cy="307.35413" inkscape:document-units="px" inkscape:current-layer="layer1" inkscape:window-width="1857" inkscape:window-height="1165" inkscape:window-x="1436" inkscape:window-y="-4"/>
  <sodipodi:namedview id="base" pagecolor="#ffffff" bordercolor="#666666" borderopacity="1.0" gridtolerance="10000" guidetolerance="10" objecttolerance="10" inkscape:pageopacity="0.0" inkscape:pageshadow="2" inkscape:zoom="1.4" inkscape:cx="335.72928" inkscape:cy="307.35413" inkscape:document-units="px" inkscape:current-layer="layer1" inkscape:window-width="1857" inkscape:window-height="1165" inkscape:window-x="1436" inkscape:window-y="-4"/>
  <sodipodi:namedview id="base" pagecolor="#ffffff" bordercolor="#666666" borderopacity="1.0" inkscape:pageopacity="0.0" inkscape:pageshadow="2" inkscape:zoom="0.31354839" inkscape:cx="522.18628" inkscape:cy="775.00002" inkscape:document-units="px" inkscape:current-layer="layer1" showgrid="false" inkscape:window-width="1280" inkscape:window-height="704" inkscape:window-x="0" inkscape:window-y="0" inkscape:window-maximized="0" showguides="true" inkscape:guide-bbox="true" inkscape:object-nodes="false" inkscape:snap-nodes="false" inkscape:snap-page="false" inkscape:snap-bbox="false" inkscape:snap-grids="false" inkscape:snap-to-guides="false">
   <inkscape:grid type="xygrid" id="grid14322" empspacing="5" visible="true" enabled="true" snapvisiblegridlinesonly="true"/>
  </sodipodi:namedview>
  <g id="g6659_12">
   <g id="g6663_13">
   </g>
  </g>
  <g id="g11618-9-0-2_14">
  </g>
  <sodipodi:namedview id="base" pagecolor="#ffffff" bordercolor="#666666" borderopacity="1.0" inkscape:pageopacity="0.0" inkscape:pageshadow="2" inkscape:zoom="0.3116129" inkscape:cx="372.25672" inkscape:cy="774.99999" inkscape:document-units="px" inkscape:current-layer="layer1" showgrid="false" inkscape:window-width="1280" inkscape:window-height="701" inkscape:window-x="0" inkscape:window-y="0" inkscape:window-maximized="0" showguides="true" inkscape:guide-bbox="true" inkscape:object-nodes="false" inkscape:snap-nodes="false" inkscape:snap-page="true" inkscape:snap-bbox="false" inkscape:snap-grids="false" inkscape:snap-to-guides="false">
   <inkscape:grid type="xygrid" id="grid14322" empspacing="5" visible="true" enabled="true" snapvisiblegridlinesonly="true"/>
  </sodipodi:namedview>
  <g id="g6659_15">
   <g id="g6663_16">
   </g>
  </g>
  <g id="g11618-9-0-2_17">
  </g>
  <g id="g6659_18">
   <g id="g6663_19">
   </g>
  </g>
  <g id="g11618-9-0-2_20">
  </g>
  <g id="g6659_21">
   <g id="g6663_22">
   </g>
  </g>
  <g id="g11618-9-0-2_23">
  </g>
  <g id="_113558744">
   <path id="_127977480" class="fil3 str5" d="M78.2549 84.5615c-0.0262,-0.6198 0.1571,-1.2629 0.677,-1.5569 0.082,-0.0469 0.1958,0.0129 0.2008,0.0858 -0.1284,0.3963 -0.6851,1.3927 -0.8778,1.4711z"/>
   <path id="path10006-2-7-6_24" class="fil8" d="M78.6602 83.3685c0.0646,-0.0554 0.129,0.0242 0.0971,0.0795 -0.158,0.14 -0.2559,0.4367 -0.3337,0.6473 -0.0372,-0.1476 0.0281,-0.4386 0.2366,-0.7268l0 0z" sodipodi:nodetypes="csccc"/>
   <g>
    <path id="_112398952" class="fil3 str5" d="M78.8467 84.8269c-0.0262,-0.6198 0.1571,-1.2629 0.677,-1.5569 0.082,-0.0469 0.1958,0.0129 0.2008,0.0858 -0.1284,0.3964 -0.6851,1.3927 -0.8778,1.4711z"/>
    <path id="path10006-2-7-6_25" class="fil8" d="M79.252 83.6339c0.0646,-0.0554 0.129,0.0243 0.0971,0.0795 -0.158,0.14 -0.2559,0.4367 -0.3337,0.6474 -0.0372,-0.1477 0.0281,-0.4387 0.2366,-0.7269l0 0z" sodipodi:nodetypes="csccc"/>
   </g>
  </g>
  <g id="_131554352">
   <path id="_132141712" class="fil3 str5" d="M86.127 81.8098c-0.0262,-0.6198 0.1571,-1.2629 0.677,-1.5569 0.082,-0.0469 0.1958,0.0129 0.2008,0.0858 -0.1284,0.3963 -0.6851,1.3927 -0.8778,1.4711z"/>
   <path id="path10006-2-7-6_26" class="fil8" d="M86.5323 80.6168c0.0646,-0.0554 0.129,0.0242 0.0971,0.0795 -0.158,0.14 -0.2559,0.4367 -0.3337,0.6473 -0.0372,-0.1476 0.0281,-0.4386 0.2366,-0.7268l0 0z" sodipodi:nodetypes="csccc"/>
   <g>
    <path id="_41368672" class="fil3 str5" d="M86.7188 82.0752c-0.0262,-0.6198 0.1571,-1.2629 0.677,-1.5569 0.082,-0.0469 0.1958,0.0129 0.2008,0.0858 -0.1284,0.3964 -0.6851,1.3927 -0.8778,1.4711z"/>
    <path id="path10006-2-7-6_27" class="fil8" d="M87.1241 80.8822c0.0646,-0.0554 0.129,0.0243 0.0971,0.0795 -0.158,0.14 -0.2559,0.4367 -0.3337,0.6474 -0.0372,-0.1477 0.0281,-0.4387 0.2366,-0.7269l0 0z" sodipodi:nodetypes="csccc"/>
   </g>
  </g>
 </g>
</svg>
